<svg width="250" height="375" viewBox="0 0 250 375" fill="none" xmlns="http://www.w3.org/2000/svg">
<path d="M126.322 349.522C124.954 348.263 124.499 346.638 124.526 344.855C124.526 344.234 124.421 343.864 123.733 343.654C117.907 341.871 117.107 337.345 118.495 332.821C120.015 327.863 124.7 324.406 129.861 324.288C135.517 324.159 140.297 327.25 142.169 332.273C142.614 333.488 142.857 334.768 142.887 336.062C142.985 339.404 141.487 341.789 138.396 343.104C137.683 343.407 137.458 343.752 137.48 344.564C137.529 346.431 137.193 348.227 135.626 349.527H134.512C133.826 349.052 133.3 348.381 133.003 347.601C132.728 348.418 132.16 349.103 131.41 349.527H130.518C129.85 349.112 129.404 348.466 128.889 347.666C128.629 348.619 128.036 349.085 127.416 349.527L126.322 349.522ZM123.189 327.809C121.31 329.022 119.966 330.908 119.431 333.08C117.885 338.963 119.808 341.388 124.167 342.792C125.232 343.135 125.531 343.645 125.462 344.677C125.386 345.789 125.634 346.899 126.177 347.873C126.67 348.764 127.178 348.764 127.737 347.944C128.02 347.511 128.213 347.025 128.303 346.516C128.377 346.152 128.548 345.881 128.941 345.869C129.386 345.858 129.582 346.117 129.667 346.538C129.75 346.897 129.871 347.246 130.028 347.579C130.22 348.024 130.456 348.526 130.998 348.521C131.539 348.517 131.753 347.984 131.965 347.561C132.111 347.267 132.222 346.958 132.297 346.638C132.395 346.21 132.549 345.838 133.052 345.836C133.556 345.834 133.609 346.215 133.703 346.589C133.787 346.91 133.899 347.222 134.037 347.523C134.236 347.955 134.412 348.484 134.976 348.504C135.608 348.528 135.796 347.942 136.005 347.492C136.502 346.373 136.674 345.138 136.502 343.926C136.408 343.104 136.725 342.763 137.449 342.46C141.264 340.862 142.575 338.279 141.717 334.243C141.178 331.673 139.765 329.369 137.718 327.724C135.67 326.079 133.116 325.196 130.489 325.224C127.784 325.24 125.243 325.893 123.184 327.814L123.189 327.809Z" fill="#554392"/>
<path d="M116.142 322.947C115.493 321.794 114.791 320.801 114.484 319.617C114.35 319.1 114.228 318.574 114.678 318.178C115.128 317.781 115.654 318.013 116.12 318.244C117.011 318.69 117.74 319.359 118.52 320.103C118.698 319.287 118.776 318.559 119.026 317.89C119.373 316.956 120 316.776 120.875 317.262C122.09 317.937 122.625 319.1 123.037 320.341C123.301 321.176 123.47 322.038 123.541 322.911C122.745 322.835 122.224 322.349 121.629 322.055C120.936 321.712 120.554 321.661 120.615 322.664C120.719 324.487 120.548 324.707 118.745 325.153C117.878 325.376 117.943 325.984 117.927 326.606C117.887 328.244 117.807 328.282 116.327 327.497C115.342 326.969 114.406 326.383 113.782 325.436C113.423 324.89 113.042 324.279 113.432 323.586C113.8 322.944 114.459 322.956 115.09 322.947C115.384 322.942 115.678 322.947 116.142 322.947Z" fill="#4D3D95"/>
<path d="M123.184 327.814C125.243 325.895 127.784 325.244 130.489 325.224C133.114 325.195 135.667 326.077 137.714 327.72C139.762 329.362 141.176 331.664 141.717 334.232C142.581 338.268 141.271 340.851 137.449 342.449C136.729 342.752 136.408 343.093 136.502 343.915C136.674 345.127 136.501 346.362 136.005 347.481C135.795 347.926 135.608 348.517 134.975 348.492C134.412 348.472 134.235 347.944 134.037 347.512C133.898 347.211 133.787 346.899 133.703 346.578C133.609 346.204 133.529 345.823 133.052 345.825C132.575 345.827 132.384 346.199 132.297 346.627C132.224 346.95 132.114 347.263 131.969 347.561C131.746 347.984 131.543 348.515 131.002 348.521C130.46 348.528 130.224 348.022 130.032 347.579C129.876 347.246 129.755 346.897 129.671 346.538C129.587 346.112 129.382 345.854 128.945 345.869C128.553 345.869 128.381 346.152 128.308 346.516C128.22 347.025 128.03 347.51 127.75 347.944C127.187 348.771 126.678 348.764 126.19 347.873C125.647 346.899 125.399 345.789 125.475 344.677C125.544 343.645 125.252 343.135 124.18 342.792C119.821 341.388 117.898 338.963 119.445 333.08C119.975 330.91 121.315 329.025 123.189 327.809C123.215 327.954 123.189 328.132 123.273 328.237C123.623 328.705 124.042 328.558 124.414 328.282C124.637 328.117 125.036 327.885 124.876 327.613C124.599 327.147 124.24 327.602 123.935 327.709C123.699 327.812 123.439 327.848 123.184 327.814V327.814ZM130.786 335.143C130.828 334.399 130.552 333.334 130.075 332.324C128.653 329.314 125.299 328.672 122.984 331.038C120.891 333.169 120.376 335.763 121.232 338.587C121.8 340.454 122.926 341.905 124.998 342.188C127.071 342.471 128.513 341.361 129.593 339.723C130.425 338.453 130.763 337.033 130.786 335.143ZM139.593 337.724C139.519 336.507 139.227 335.382 138.45 334.43C137.351 333.093 135.584 333.011 134.394 334.257C132.709 336.022 132.729 339.489 134.436 341.245C135.579 342.42 137.231 342.384 138.334 341.161C139.221 340.176 139.528 338.983 139.593 337.724ZM130.106 343.429C130.329 343.663 130.269 344.468 131.013 343.813C131.202 343.645 131.236 343.556 131.488 343.813C132.103 344.416 132.299 343.904 132.314 343.367C132.339 342.629 131.887 341.9 131.272 341.878C130.614 341.847 130.278 342.627 130.106 343.429Z" fill="#F9CF2D"/>
<path d="M130.786 335.143C130.763 337.033 130.429 338.453 129.593 339.716C128.512 341.354 127.082 342.464 124.998 342.181C122.914 341.898 121.8 340.447 121.232 338.58C120.376 335.756 120.891 333.162 122.983 331.038C125.301 328.678 128.653 329.32 130.075 332.331C130.552 333.334 130.828 334.399 130.786 335.143Z" fill="#4C3A91"/>
<path d="M139.593 337.724C139.528 338.99 139.221 340.176 138.334 341.161C137.231 342.384 135.579 342.42 134.436 341.245C132.729 339.489 132.709 336.021 134.394 334.256C135.584 333.011 137.351 333.084 138.45 334.43C139.227 335.375 139.519 336.501 139.593 337.724Z" fill="#4C3B91"/>
<path d="M130.106 343.429C130.278 342.629 130.614 341.847 131.271 341.869C131.887 341.891 132.339 342.62 132.314 343.358C132.299 343.893 132.092 344.405 131.488 343.804C131.236 343.558 131.202 343.648 131.013 343.804C130.269 344.468 130.333 343.663 130.106 343.429Z" fill="#57448B"/>
<path d="M123.184 327.814C123.44 327.848 123.699 327.812 123.935 327.709C124.241 327.602 124.604 327.147 124.876 327.613C125.036 327.885 124.635 328.117 124.414 328.282C124.042 328.558 123.623 328.705 123.273 328.237C123.195 328.132 123.216 327.954 123.189 327.809L123.184 327.814Z" fill="#FDDC5C"/>
<path d="M59.3643 332.762C59.3643 336.833 57.3266 339.948 54.572 342.682C51.6372 345.617 48.0776 347.713 44.4677 349.722C44.3325 349.822 44.1712 349.881 44.0032 349.892C43.8351 349.904 43.6674 349.866 43.5202 349.784C38.4135 346.85 33.55 343.646 30.3006 338.569C28.4642 335.701 27.8144 332.615 29.0428 329.307C30.678 324.893 34.8161 322.968 39.2772 324.545C40.7282 325.011 42.0573 325.794 43.168 326.838C43.8598 327.521 44.2329 327.341 44.845 326.783C46.1778 325.521 47.8284 324.644 49.6205 324.247C54.7062 323.174 59.1379 326.641 59.3643 331.869C59.3769 332.154 59.3643 332.456 59.3643 332.762ZM36.2123 325.023C33.7261 325.14 31.7765 326.205 30.5648 328.46C28.8122 331.727 29.2022 334.909 31.1224 337.944C34.1621 342.77 38.7279 345.801 43.516 348.585C43.6596 348.673 43.8265 348.716 43.9947 348.708C44.163 348.7 44.3249 348.641 44.4593 348.539C48.1279 346.443 51.7546 344.284 54.6433 341.118C57.1589 338.351 58.7186 335.219 58.2868 331.324C57.8968 327.756 54.9326 324.947 51.4066 325.06C48.8113 325.14 46.6521 326.318 44.9037 328.159C44.1994 328.913 43.7801 328.922 43.0631 328.159C42.1867 327.207 41.1295 326.44 39.9533 325.901C38.777 325.363 37.5053 325.064 36.2123 325.023V325.023Z" fill="#533F96"/>
<path d="M36.2121 325.023C37.5057 325.065 38.7778 325.365 39.9541 325.905C41.1304 326.445 42.1873 327.214 43.063 328.167C43.7799 328.922 44.1992 328.913 44.9036 328.167C46.6519 326.305 48.8111 325.148 51.4064 325.069C54.9115 324.955 57.8967 327.765 58.2866 331.333C58.7058 335.227 57.1713 338.359 54.6431 341.127C51.7544 344.292 48.1277 346.451 44.4591 348.548C44.3247 348.649 44.1628 348.708 43.9946 348.716C43.8263 348.724 43.6595 348.682 43.5158 348.594C38.7277 345.801 34.1619 342.77 31.1222 337.944C29.202 334.909 28.8121 331.727 30.5646 328.461C31.7763 326.205 33.7426 325.161 36.2121 325.023ZM41.0295 335.802C41.0169 336.037 41.0169 336.272 41.0295 336.506C41.302 338.9 43.6625 340.246 45.5618 339.089C46.6226 338.443 47.3521 336.246 46.9622 335.03C46.7274 334.293 46.3668 334.611 45.9895 334.838C44.7945 335.613 43.5577 335.538 42.3376 334.959C41.1176 334.381 41.0169 334.418 41.0295 335.802ZM39.4489 332.745C39.4646 332.104 39.2911 331.473 38.95 330.93C37.9479 329.362 36.0402 329.349 35.0969 330.93C34.8144 331.37 34.6372 331.87 34.579 332.39C34.5209 332.91 34.5833 333.436 34.7615 333.928C35.2059 335.156 36.1199 335.844 37.231 335.76C38.233 335.684 39.1889 334.703 39.3902 333.534C39.4239 333.272 39.4435 333.009 39.4489 332.745V332.745ZM48.7524 332.926C48.7399 333.128 48.7399 333.331 48.7524 333.534C48.9663 335.072 50.3415 336.234 51.5909 335.94C52.639 335.689 53.5153 334.536 53.6034 333.286C53.6998 331.836 53.0038 330.511 51.9263 330.104C50.3121 329.496 48.744 330.875 48.7524 332.926V332.926ZM36.5937 337.768C36.8615 337.791 37.1308 337.791 37.3987 337.768C37.7173 337.71 38.1324 337.668 38.1575 337.248C38.1827 336.905 37.8557 336.724 37.5706 336.632C36.6146 336.318 35.6461 335.999 34.6357 336.339C34.3841 336.422 34.0571 336.448 34.0487 336.791C34.0403 337.135 34.3212 337.248 34.556 337.353C35.1859 337.654 35.8795 337.796 36.5769 337.768H36.5937ZM51.3058 337.974C52.0382 338.025 52.7727 337.907 53.4524 337.63C53.7082 337.529 53.9891 337.395 53.9807 337.089C53.9723 336.783 53.6662 336.67 53.4063 336.607C52.7232 336.414 52.0028 336.394 51.31 336.548C50.7314 336.699 49.8299 336.724 49.8845 337.362C49.939 338.095 50.8697 337.907 51.289 337.974H51.3058ZM37.2016 326.419C37.3651 326.419 37.6209 326.503 37.7299 326.192C37.8389 325.882 37.6754 325.71 37.3693 325.601C36.1996 325.182 35.1304 325.551 34.0823 326.02C34.0161 326.04 33.9552 326.073 33.9038 326.119C33.8525 326.165 33.8121 326.222 33.7855 326.285C33.759 326.349 33.747 326.418 33.7505 326.486C33.7539 326.555 33.7728 326.622 33.8055 326.683C33.9816 326.96 34.2793 326.842 34.5351 326.742C35.3736 326.419 36.2079 326.05 37.2016 326.419ZM31.227 329.672C31.814 329.509 31.8308 328.884 32.1033 328.456C32.2668 328.209 32.4178 327.911 32.1033 327.647C32.0524 327.612 31.9948 327.588 31.9342 327.577C31.8736 327.565 31.8113 327.566 31.7511 327.58C31.466 327.66 30.7994 329.14 30.8874 329.421C30.9098 329.493 30.9548 329.557 31.0159 329.602C31.077 329.647 31.151 329.672 31.227 329.672V329.672Z" fill="#DE6EA8"/>
<path d="M41.0298 335.802C41.0298 334.418 41.1178 334.381 42.3421 334.963C43.5664 335.546 44.799 335.617 45.9939 334.842C46.3713 334.599 46.7318 334.297 46.9666 335.035C47.3565 336.25 46.627 338.447 45.5663 339.093C43.667 340.25 41.3065 338.904 41.034 336.51C41.0198 336.274 41.0184 336.038 41.0298 335.802Z" fill="#4D3A93"/>
<path d="M39.4491 332.745C39.4443 333.015 39.4247 333.283 39.3904 333.55C39.1891 334.72 38.2332 335.701 37.2311 335.777C36.1201 335.861 35.2061 335.173 34.7616 333.945C34.5835 333.453 34.521 332.926 34.5792 332.406C34.6374 331.887 34.8146 331.387 35.0971 330.947C36.0404 329.349 37.9481 329.362 38.9501 330.947C39.2881 331.485 39.4615 332.11 39.4491 332.745V332.745ZM36.183 330.289C36.183 331.127 35.3947 331.37 35.4157 331.693C35.4367 332.016 36.0614 332.368 36.0027 332.901C37.1179 332.804 37.8139 332.385 37.5414 331.119C37.097 331.169 36.6777 330.892 36.183 330.289V330.289Z" fill="#513E95"/>
<path d="M48.7528 332.926C48.7528 330.876 50.3125 329.496 51.935 330.104C53.0083 330.523 53.7043 331.836 53.6121 333.286C53.524 334.544 52.6478 335.689 51.5996 335.94C50.3418 336.234 48.975 335.072 48.7612 333.534C48.7458 333.331 48.743 333.128 48.7528 332.926V332.926ZM50.2202 333.345C50.6688 332.653 51.2055 332.863 51.6709 332.775C51.4696 332.263 51.9224 331.492 51.7002 331.324C50.8365 330.687 50.0232 330.934 49.3901 331.987C50.0315 332.079 50.0232 332.649 50.2202 333.349V333.345Z" fill="#513E95"/>
<path d="M36.577 337.768C35.8681 337.8 35.1622 337.656 34.5226 337.349C34.2878 337.244 34.0027 337.097 34.0153 336.787C34.0279 336.477 34.3507 336.418 34.6023 336.334C35.6295 335.995 36.598 336.334 37.5371 336.628C37.8222 336.72 38.1493 336.9 38.1241 337.244C38.099 337.663 37.6839 337.705 37.3652 337.764C37.1031 337.788 36.8394 337.789 36.577 337.768V337.768Z" fill="#FACC34"/>
<path d="M51.2893 337.974C50.8701 337.907 49.9393 338.095 49.8764 337.362C49.8219 336.724 50.7149 336.699 51.3019 336.548C51.9948 336.394 52.7151 336.414 53.3983 336.607C53.6582 336.67 53.9601 336.775 53.9727 337.089C53.9852 337.403 53.7001 337.508 53.4444 337.63C52.762 337.909 52.0246 338.026 51.2893 337.974V337.974Z" fill="#FBCE31"/>
<path d="M37.2017 326.419C36.208 326.037 35.3737 326.419 34.5352 326.742C34.2794 326.842 33.9817 326.96 33.8056 326.683C33.7729 326.622 33.754 326.555 33.7506 326.486C33.7471 326.418 33.7591 326.349 33.7856 326.285C33.8122 326.222 33.8526 326.165 33.9039 326.119C33.9553 326.073 34.0163 326.04 34.0824 326.02C35.1305 325.551 36.1997 325.182 37.3694 325.601C37.6755 325.71 37.8348 325.869 37.73 326.192C37.6252 326.515 37.3652 326.419 37.2017 326.419Z" fill="#E690BC"/>
<path d="M31.2275 329.672C31.1551 329.668 31.0858 329.641 31.0288 329.596C30.9719 329.551 30.93 329.49 30.9088 329.421C30.8208 329.14 31.4874 327.66 31.7725 327.58C31.8327 327.566 31.895 327.565 31.9556 327.577C32.0162 327.588 32.0738 327.612 32.1247 327.647C32.4182 327.911 32.2672 328.209 32.1247 328.456C31.8312 328.884 31.8144 329.509 31.2275 329.672Z" fill="#E690BC"/>
<path d="M50.2199 333.349C50.0228 332.649 50.0312 332.091 49.3813 331.991C50.0019 330.938 50.8278 330.691 51.6915 331.328C51.9137 331.496 51.4609 332.267 51.6622 332.779C51.2052 332.867 50.6685 332.657 50.2199 333.349Z" fill="#F1F0F7"/>
<path d="M36.5708 333.704C37.2673 333.677 37.803 332.902 37.7675 331.972C37.7319 331.041 37.1385 330.309 36.442 330.336C35.7455 330.362 35.2097 331.138 35.2453 332.068C35.2809 332.998 35.8743 333.731 36.5708 333.704Z" fill="#FDFDFD"/>
<path d="M50.7861 333.706C51.4826 333.679 52.0184 332.904 51.9828 331.973C51.9472 331.043 51.3538 330.311 50.6573 330.337C49.9608 330.364 49.4251 331.14 49.4606 332.07C49.4962 333 50.0897 333.732 50.7861 333.706Z" fill="#FDFDFD"/>
</svg>
