<svg width="250" height="375" viewBox="0 0 250 375" fill="none" xmlns="http://www.w3.org/2000/svg">
<path fill-rule="evenodd" clip-rule="evenodd" d="M158.133 169.648C157.336 174.881 154.838 178.995 151.039 182.339C146.576 186.27 141.292 188.39 135.393 189.091C128.991 189.85 122.926 188.786 117.277 185.714C112.245 182.975 108.492 179.038 106.517 173.578C106.369 173.155 106.081 172.745 106.281 172.255C107.791 171.849 154.904 169.455 158.133 169.648Z" fill="#020302"/>
<path fill-rule="evenodd" clip-rule="evenodd" d="M86.7711 131.141C87.1337 129.685 87.3528 128.375 87.7864 127.139C89.3184 122.728 93.2691 121.701 96.8044 124.744C97.7502 125.557 98.5494 126.517 99.2671 127.518C100.063 127.405 100.143 126.664 100.536 126.233C102.387 124.209 104.646 124.213 106.321 126.329C107.975 128.416 108.531 130.922 108.942 133.47C109.121 134.545 108.377 134.712 107.577 134.95C103.398 136.201 99.2323 137.498 95.0534 138.772C90.6615 140.116 86.2408 141.395 81.8746 142.825C80.7324 143.198 80.116 142.947 79.6038 142.001C77.8966 138.827 77.4237 135.535 78.8152 132.138C79.6869 130.017 81.5241 129.218 83.8084 129.9C84.7663 130.185 85.6637 130.671 86.7711 131.141Z" fill="#020302"/>
<path fill-rule="evenodd" clip-rule="evenodd" d="M146.366 154.275C146.62 153.301 146.638 152.436 145.141 151.973C144.031 151.629 144.017 150.93 144.638 149.683C147.024 144.877 152.885 141.985 158.622 142.782C163.751 143.496 168.187 147.815 169.133 153.039C169.37 154.335 169.649 155.637 169.375 156.969C169.248 157.596 169.045 158.381 168.306 158.271C166.876 158.062 166.512 158.96 165.978 159.945C163.588 164.375 158.636 166.426 153.854 165.038C149.193 163.687 146.131 159.354 146.366 154.275Z" fill="#020302"/>
<path fill-rule="evenodd" clip-rule="evenodd" d="M101.841 140.883C109.786 140.839 116.367 147.265 116.49 155.135C116.6 162.323 111.126 169.616 102.06 169.827C94.0828 170.012 87.4579 163.336 87.4005 155.329C87.3446 147.498 93.9151 140.927 101.841 140.883Z" fill="#020302"/>
<path fill-rule="evenodd" clip-rule="evenodd" d="M158.916 129.541C164.542 125.532 166.612 126.447 167.482 133.317C167.623 133.348 167.768 133.415 167.909 133.403C171.151 133.131 172.178 134.325 171.435 137.5C171.202 138.495 170.752 139.407 170.262 140.289C169.277 142.063 168.966 142.173 167.133 141.327C162.6 139.231 158.076 137.115 153.551 135.009C152.773 134.647 151.98 134.301 151.211 133.923C149.665 133.167 149.64 133.099 150.147 131.42C150.664 129.73 151.631 128.336 153.013 127.243C155.017 125.663 156.807 126.002 158.09 128.167C158.36 128.628 158.381 129.239 158.916 129.541Z" fill="#020302"/>
<path fill-rule="evenodd" clip-rule="evenodd" d="M135.231 162.864C134.303 163.336 134.25 164.033 133.923 164.544C132.644 166.53 130.736 166.797 129.031 165.124C128.327 164.428 127.775 163.571 127.258 162.915C126.523 163.58 125.881 164.264 125.136 164.805C123.833 165.756 122.564 165.456 121.829 164.033C121.102 162.621 120.918 161.06 120.857 159.503C120.753 156.682 121.325 153.931 121.854 151.181C121.928 150.805 122.073 150.42 122.288 150.104C122.608 149.622 123.098 149.357 123.693 149.575C124.16 149.743 124.524 150.083 124.494 150.611C124.463 151.224 124.353 151.839 124.244 152.448C123.836 154.748 123.416 157.049 123.527 159.396C123.561 160.232 123.416 161.119 124.037 161.949C124.962 161.651 125.101 160.71 125.583 160.081C126.677 158.668 127.669 158.637 128.733 160.102C129.372 160.982 129.84 161.982 130.483 162.858C131.105 163.703 131.49 163.637 131.954 162.654C132.252 162.025 132.444 161.346 132.672 160.686C132.986 159.752 133.004 158.527 134.303 158.396C135.45 158.279 135.773 159.337 136.251 160.131C136.854 161.14 137.589 162.052 138.543 162.761C139.68 163.609 140.179 163.454 140.517 162.131C140.788 161.072 140.924 159.994 140.73 158.892C140.236 156.136 139.712 153.391 138.614 150.788C138.346 150.146 138.171 149.461 138.005 148.783C137.813 148.022 137.987 147.311 138.797 147.073C139.594 146.837 140.158 147.324 140.412 148.064C141.06 149.975 141.904 151.823 142.341 153.807C142.858 156.157 143.589 158.476 143.349 160.934C143.151 162.908 142.918 164.924 140.691 165.707C138.565 166.452 137.148 165.077 135.796 163.742C135.533 163.481 135.384 163.105 135.231 162.864Z" fill="#040505"/>
<path fill-rule="evenodd" clip-rule="evenodd" d="M139.72 185.677C130.824 189.3 116.542 185.654 111.594 177.726C120.424 173.093 135.213 176.357 139.72 185.677Z" fill="#EC2E83"/>
<path fill-rule="evenodd" clip-rule="evenodd" d="M156.842 163.233C152.238 163.248 148.13 158.97 148.576 154.628C148.724 153.254 149.272 152.955 150.406 153.568C150.742 153.749 150.842 153.97 150.833 154.293C150.826 154.523 150.747 154.755 150.756 154.985C150.795 156.694 151.569 157.778 152.978 158.121C154.273 158.437 155.651 157.951 156.274 156.542C156.763 155.443 157.222 155.436 158.198 155.753C159.975 156.333 161.785 156.793 163.602 157.24C164.489 157.456 164.489 157.896 164.18 158.593C163.028 161.185 159.83 163.221 156.842 163.233Z" fill="#FEFEFE"/>
<path fill-rule="evenodd" clip-rule="evenodd" d="M90.1311 155.437C89.8244 149.708 94.7996 143.493 101.967 143.527C108.613 143.561 113.825 148.77 113.846 155.413C113.869 162.283 107.927 167.251 101.854 167.203C95.2513 167.149 89.7988 161.357 90.1311 155.437Z" fill="#FEFEFE"/>
<path fill-rule="evenodd" clip-rule="evenodd" d="M111.03 154.075C110.998 155.901 109.546 157.291 107.717 157.254C105.905 157.216 104.465 155.729 104.506 153.94C104.549 152.172 106.09 150.696 107.848 150.732C109.634 150.771 111.065 152.274 111.03 154.075Z" fill="#070807"/>
</svg>
