<svg width="250" height="375" viewBox="0 0 250 375" fill="none" xmlns="http://www.w3.org/2000/svg">
<path fill-rule="evenodd" clip-rule="evenodd" d="M137.035 168.21C140.264 167.852 143.499 167.147 146.72 166.351C151.614 165.141 156.365 163.548 160.848 161.255C161.808 160.763 162.709 160.162 163.669 159.667C164.512 159.231 164.754 158.776 164.158 157.905C163.408 156.811 163.125 155.552 163.241 154.213C163.336 153.114 163.744 152.157 164.455 151.314C164.897 150.788 165.472 150.528 166.093 150.863C166.783 151.235 166.726 151.912 166.339 152.442C164.907 154.395 165.323 156.196 166.855 157.798C168.516 159.537 170.539 160.272 172.949 159.35C173.237 159.242 173.512 159.073 173.809 159.029C174.281 158.96 174.731 159.014 174.963 159.547C175.177 160.036 175.047 160.463 174.7 160.789C174.068 161.385 173.279 161.695 172.412 161.801C170.684 162.012 168.978 161.939 167.463 161.009C166.672 160.523 166.075 160.575 165.407 161.165C165.067 161.466 164.657 161.739 164.23 161.888C162.562 162.472 162.004 163.563 162.496 165.215C162.558 165.426 162.525 165.671 162.507 165.896C162.429 166.814 162.389 167.774 161.328 168.181C160.34 168.561 159.289 168.284 158.801 167.526C157.262 165.136 155.403 165.832 153.436 166.73C153.087 166.89 152.713 167.027 152.335 167.084C151.092 167.275 150.342 167.78 150.619 169.185C150.721 169.706 150.516 170.239 150.264 170.723C149.713 171.778 148.813 172.103 147.773 171.554C147.373 171.344 146.897 171.062 146.72 170.692C145.864 168.902 144.53 169.009 142.887 169.463C141.255 169.912 139.552 170.147 137.865 170.363C137.004 170.473 136.709 170.803 136.617 171.634C136.444 173.228 135.95 174.75 135.177 176.177C134.553 177.333 133.747 178.346 132.735 179.195C129.734 181.715 126.069 181.487 123.439 178.602C121.961 176.981 121.026 175.063 120.566 172.952C120.374 172.059 120.039 171.595 119.062 171.725C118.759 171.767 118.44 171.761 118.133 171.724C116.604 171.535 115.479 171.778 115.141 173.593C114.961 174.549 114.254 175.443 113.039 175.395C111.956 175.349 111.487 174.508 111.097 173.652C110.971 173.376 110.866 173.088 110.772 172.799C110.703 172.583 110.644 172.357 110.616 172.134C110.51 171.267 109.804 171.219 109.223 171.317C107.844 171.549 106.393 170.226 105.092 171.51C104.938 171.662 104.9 171.922 104.788 172.12C104.203 173.151 103.512 174.151 102.135 173.963C100.819 173.784 100.305 172.703 99.8798 171.599C99.6687 171.051 99.7361 170.254 99.1117 170.03C98.2507 169.723 97.3074 169.629 96.3925 169.474C95.9208 169.397 95.7426 169.784 95.53 170.099C95.2725 170.477 95.0329 170.875 94.7334 171.22C93.1642 173.018 91.4258 172.739 90.4345 170.542C90.3716 170.402 90.2578 170.264 90.2548 170.125C90.1964 167.874 88.6736 167.121 86.739 166.645C85.6999 166.388 84.7041 165.908 83.7398 165.428C82.9133 165.02 82.3772 165.131 81.7918 165.858C80.9577 166.895 79.8018 167.525 78.4991 167.887C77.427 168.185 76.3549 168.209 75.2887 167.908C74.597 167.712 73.8677 167.4 74.0205 166.547C74.1762 165.677 74.9189 165.718 75.6706 165.754C80.4277 165.977 83.1618 161.679 81.0027 157.4C80.7286 156.857 80.3318 156.372 80.0578 155.832C79.8272 155.381 79.935 154.916 80.3483 154.605C80.7556 154.298 81.2692 154.292 81.6465 154.597C82.0538 154.929 82.4147 155.353 82.6857 155.803C83.7383 157.56 84.2654 159.475 83.8042 161.485C83.5182 162.732 83.9629 163.186 85.0785 163.647C90.177 165.751 95.4851 167.125 100.915 168.022C106.497 168.947 112.127 169.526 117.803 169.489C119.98 169.474 120.031 169.934 119.916 167.226C119.736 162.94 119.125 158.757 116.926 154.939C116.529 154.252 116.204 153.437 117.173 152.989C118.101 152.559 118.565 153.309 118.962 153.986C119.543 154.976 120.015 156.01 120.416 157.086C121.773 160.71 122.039 164.5 122.22 168.297C122.286 169.673 122.476 171.022 122.74 172.364C123.036 173.878 123.682 175.257 124.61 176.499C126.744 179.352 129.61 179.481 132.013 176.79C133.487 175.138 134.241 173.17 134.4 170.978C135.149 160.619 131.866 151.525 125.417 143.425C125.131 143.065 124.787 142.752 124.501 142.394C124.125 141.924 124.034 141.42 124.531 140.972C124.999 140.548 125.585 140.567 126.015 140.936C126.653 141.481 127.249 142.097 127.758 142.759C133.205 149.872 136.417 157.792 136.728 166.757C136.743 167.203 136.647 167.676 137.035 168.21Z" fill="#020302"/>
<path fill-rule="evenodd" clip-rule="evenodd" d="M105.577 141.353C104.469 140.058 103.174 139.269 101.87 138.494C101.145 138.061 100.362 137.707 99.8062 137.046C99.0471 136.143 98.8494 135.159 99.4439 134.098C100.016 133.073 101.265 132.394 102.391 132.855C105.859 134.274 109.064 136.137 110.881 139.542C112.107 141.837 111.378 144.241 109.106 145.693C106.426 147.405 103.367 147.893 100.236 147.807C98.6682 147.762 97.689 146.73 97.5916 145.435C97.4868 144.066 98.4317 142.94 100.062 142.607C101.045 142.407 102.049 142.32 103.045 142.184C103.867 142.072 104.67 141.909 105.577 141.353Z" fill="#020302"/>
<path fill-rule="evenodd" clip-rule="evenodd" d="M143.332 140.133C144.482 140.298 145.293 140.454 146.112 140.525C146.961 140.595 147.818 140.561 148.667 140.616C150.581 140.739 151.662 141.607 151.764 143.065C151.871 144.611 150.795 145.714 148.808 145.893C146.4 146.11 143.991 145.99 141.679 145.239C137.576 143.903 136.393 140.472 138.795 136.934C140.283 134.745 142.347 133.124 144.534 131.67C146.132 130.61 147.77 130.845 148.655 132.108C149.517 133.34 149.227 134.686 147.8 135.911C147.336 136.31 146.8 136.632 146.327 137.023C145.323 137.843 144.26 138.613 143.332 140.133Z" fill="#020302"/>
<path fill-rule="evenodd" clip-rule="evenodd" d="M158.834 164.745C159.333 164.42 159.863 163.811 160.27 164.212C160.779 164.711 160.924 165.513 160.406 166.332C159.674 166.025 159.24 165.552 158.834 164.745Z" fill="#FEFEFE"/>
<path fill-rule="evenodd" clip-rule="evenodd" d="M91.9632 168.293C92.6639 168.688 93.6477 168.141 93.745 169.242C93.7825 169.663 93.2779 170.412 92.7837 170.309C91.9108 170.127 91.9153 169.308 91.9632 168.293Z" fill="#FEFEFE"/>
<path fill-rule="evenodd" clip-rule="evenodd" d="M113.194 173.226C112.658 172.612 112.242 172.147 112.743 171.539C112.827 171.436 113.225 171.446 113.368 171.549C114.104 172.082 113.505 172.556 113.194 173.226Z" fill="#FEFEFE"/>
<path fill-rule="evenodd" clip-rule="evenodd" d="M102.508 171.861C101.927 171.855 101.816 171.41 101.704 170.981C101.608 170.613 101.806 170.418 102.158 170.435C102.574 170.457 103.15 170.341 103.159 171.002C103.164 171.388 102.89 171.68 102.508 171.861Z" fill="#FEFEFE"/>
<path fill-rule="evenodd" clip-rule="evenodd" d="M147.844 168.573C148.03 168.09 148.395 168.077 148.635 168.433C148.856 168.767 149.032 169.286 148.473 169.518C148.156 169.648 147.955 169.351 147.888 169.034C147.997 168.921 148.025 168.815 147.976 168.717C147.93 168.621 147.886 168.573 147.844 168.573Z" fill="#FEFEFE"/>
<path fill-rule="evenodd" clip-rule="evenodd" d="M147.844 168.573C148.049 168.711 148.347 168.839 147.888 169.034C147.849 168.934 147.799 168.839 147.78 168.733C147.769 168.686 147.82 168.628 147.844 168.573Z" fill="#FEFEFE"/>
</svg>
