<svg width="250" height="375" viewBox="0 0 250 375" fill="none" xmlns="http://www.w3.org/2000/svg">
<path fill-rule="evenodd" clip-rule="evenodd" d="M142.184 153.559C138.818 161.715 133.593 165.77 126.35 165.637C117.789 165.482 112.699 160.737 110.099 152.371C108.582 156.935 106.13 160.322 102.214 162.495C98.232 164.702 94.0435 165.235 89.6636 163.928C82.268 161.724 77.5455 154.909 78.0347 147.181C78.5149 139.587 84.2261 133.417 91.8895 132.215C100.052 130.933 106.512 135.404 110.437 145.199C113.245 137.583 118.495 133.084 126.604 133.251C134.724 133.419 139.888 138.015 142.378 146.198C143.888 141.102 146.641 137.564 150.983 135.379C154.423 133.647 158.045 133.202 161.828 134.012C169.222 135.597 174.581 142.324 174.525 149.977C174.465 157.765 169.101 164.305 161.454 165.893C153.288 167.592 146.508 163.324 142.184 153.559Z" fill="#020302"/>
<path fill-rule="evenodd" clip-rule="evenodd" d="M97.0277 167.046C97.1444 167.094 97.4959 167.241 97.8505 167.381C105.771 170.564 114.076 171.773 122.528 172.232C132.154 172.754 141.69 172.174 151.096 169.916C151.789 169.75 152.803 169.304 153.054 170.38C153.297 171.408 152.305 171.53 151.537 171.685C151.156 171.761 150.792 171.963 150.415 171.975C149.346 172.007 148.964 172.584 148.894 173.581C148.8 174.915 148.387 176.168 147.578 177.244C146.351 178.869 144.667 178.978 143.198 177.565C142.284 176.683 141.717 175.576 141.365 174.383C141.123 173.562 140.603 173.518 139.949 173.605C139.268 173.695 138.514 173.64 138.411 174.636C138.359 175.171 138.211 175.7 138.06 176.219C137.427 178.374 136.262 179.579 134.758 179.65C133.22 179.721 131.973 178.648 131.176 176.542C131.011 176.109 130.837 175.667 130.764 175.213C130.534 173.722 129.391 174.342 128.576 174.253C127.749 174.163 127.06 174.272 126.939 175.368C126.809 176.538 126.327 177.607 125.544 178.501C124.248 179.977 122.658 179.97 121.381 178.491C120.6 177.587 120.09 176.487 120.028 175.343C119.955 174.063 119.3 173.8 118.26 173.761C117.798 173.744 117.334 173.67 116.879 173.587C116.142 173.456 115.779 173.686 115.614 174.485C115.406 175.458 115.041 176.411 114.435 177.238C113.046 179.15 111.143 179.04 110.055 176.953C109.514 175.914 109.189 174.779 109.276 173.605C109.367 172.464 108.577 172.367 107.832 172.232C107.044 172.089 106.148 171.634 105.68 172.817C105.286 173.833 104.723 174.769 103.921 175.518C102.39 176.952 100.706 176.592 99.8265 174.671C99.3284 173.584 99.2282 172.418 99.3149 171.263C99.3897 170.245 99.0337 169.693 98.0719 169.382C97.4182 169.174 96.7989 168.841 96.217 168.477C95.8849 168.27 95.7458 167.872 96.0061 167.467C96.1781 167.193 96.4174 167.013 97.0277 167.046Z" fill="#040505"/>
<path fill-rule="evenodd" clip-rule="evenodd" d="M144.87 149.984C144.831 142.573 150.815 136.488 158.188 136.431C165.579 136.377 171.636 142.366 171.696 149.787C171.757 157.322 165.73 163.327 158.144 163.302C150.857 163.28 144.904 157.304 144.87 149.984Z" fill="#FEFEFE"/>
<path fill-rule="evenodd" clip-rule="evenodd" d="M112.881 149.414C112.897 141.991 118.949 135.943 126.315 135.988C133.649 136.034 139.75 142.173 139.732 149.489C139.72 156.898 133.688 162.869 126.245 162.85C118.798 162.834 112.863 156.87 112.881 149.414Z" fill="#FEFEFE"/>
<path fill-rule="evenodd" clip-rule="evenodd" d="M81.3409 145.113C82.9041 138.676 88.4538 134.611 95.2166 134.943C101.314 135.244 106.551 140.098 107.465 146.29C108.487 153.189 104.271 159.676 97.6953 161.342C90.8157 163.079 83.818 159.342 81.5279 152.691C81.3798 152.262 81.3663 151.788 81.2885 151.333C81.0896 150.492 80.9639 149.651 81.3543 148.825C82.7784 148.318 82.9086 149.791 83.6116 150.352C85.3992 151.774 87.6221 151.717 89.0177 150.095C90.3475 148.545 90.2039 146.262 88.6796 144.865C87.1643 143.472 84.8412 143.706 83.3244 145.416C83.0686 145.706 82.8786 146.05 82.6109 146.329C82.3237 146.628 81.9946 146.778 81.5697 146.687C80.9549 146.24 81.0462 145.692 81.3409 145.113Z" fill="#FEFEFE"/>
<path fill-rule="evenodd" clip-rule="evenodd" d="M81.341 145.113C81.4666 145.61 81.2707 146.224 81.8645 146.553C82.4808 147.318 82.4808 148.08 81.8615 148.843C80.9775 149.514 81.5923 150.53 81.2886 151.333C80.5826 149.256 80.5481 147.181 81.341 145.113Z" fill="#FEFEFE"/>
<path fill-rule="evenodd" clip-rule="evenodd" d="M132.545 173.973C133.892 173.973 134.884 173.967 135.876 173.98C136.02 173.982 136.162 174.067 136.301 174.117C136.15 176.319 135.396 177.921 134.572 177.649C133.004 177.131 132.97 175.609 132.545 173.973Z" fill="#FEFEFE"/>
<path fill-rule="evenodd" clip-rule="evenodd" d="M146.849 172.739C147.119 173.958 146.651 174.914 146.139 175.841C145.711 176.623 145.12 176.693 144.484 176.062C143.977 175.569 143.701 174.935 143.406 174.311C143.059 173.571 143.237 173.159 144.099 173.08C144.996 172.998 145.88 172.86 146.849 172.739Z" fill="#FEFEFE"/>
<path fill-rule="evenodd" clip-rule="evenodd" d="M121.887 174.134C122.217 174.096 122.514 174.008 122.81 174.036C123.546 174.102 124.586 173.654 124.933 174.364C125.409 175.317 124.712 176.275 124.145 177.093C123.651 177.802 123.122 177.625 122.71 176.987C122.161 176.142 121.819 175.224 121.887 174.134Z" fill="#FEFEFE"/>
<path fill-rule="evenodd" clip-rule="evenodd" d="M111.19 172.948C112.184 173.091 113.279 172.661 113.665 173.491C114.041 174.318 113.386 175.258 112.893 176.033C112.486 176.67 111.983 176.594 111.711 175.928C111.359 175.077 111.104 174.183 111.19 172.948Z" fill="#FEFEFE"/>
<path fill-rule="evenodd" clip-rule="evenodd" d="M102.045 174.393C101.049 173.297 101.33 172.075 101.257 170.791C102.335 170.594 103.094 171.247 104.055 171.32C103.752 172.639 103.224 173.67 102.045 174.393Z" fill="#FEFEFE"/>
<path fill-rule="evenodd" clip-rule="evenodd" d="M167.879 154.523C167.918 156.888 166.05 158.847 163.708 158.897C161.368 158.947 159.41 157.047 159.371 154.69C159.332 152.33 161.203 150.365 163.543 150.316C165.869 150.264 167.836 152.175 167.879 154.523Z" fill="#040505"/>
<path fill-rule="evenodd" clip-rule="evenodd" d="M133.832 142.946C133.901 145.282 131.821 147.401 129.461 147.416C127.168 147.429 125.168 145.532 125.054 143.232C124.937 140.803 126.839 138.744 129.269 138.668C131.643 138.59 133.767 140.582 133.832 142.946Z" fill="#040505"/>
<path fill-rule="evenodd" clip-rule="evenodd" d="M81.8611 148.843C81.8611 148.079 81.8611 147.316 81.8641 146.554C82.0855 146.153 82.2859 145.736 82.5417 145.357C83.6801 143.677 85.5873 142.927 87.3674 143.439C89.2043 143.965 90.5431 145.662 90.5985 147.529C90.6598 149.477 89.3345 151.251 87.3764 151.855C85.5514 152.417 83.6935 151.731 82.5372 150.041C82.2769 149.664 82.081 149.244 81.8611 148.843Z" fill="#040505"/>
</svg>
