<svg width="250" height="375" viewBox="0 0 250 375" fill="none" xmlns="http://www.w3.org/2000/svg">
<path fill-rule="evenodd" clip-rule="evenodd" d="M150.604 161.559C148.254 158.757 147.217 155.497 147.261 151.922C146.748 151.791 146.409 152.018 146.058 152.167C141.28 154.197 137.075 150.458 137.659 145.332C138.223 140.376 141.161 136.816 145.215 134.083C146.116 133.476 147.034 132.858 148.124 132.614C148.756 132.471 149.432 132.439 149.692 133.201C149.932 133.909 149.56 134.363 148.901 134.66C146.662 135.666 144.695 137.044 143.092 138.905C141.595 140.644 140.47 142.567 140.036 144.845C139.874 145.693 139.862 146.533 140.068 147.379C140.709 150.012 142.681 151.025 145.233 150.021C147.1 149.287 148.425 147.814 149.935 146.599C150.968 145.768 151.942 144.866 152.941 143.996C157.267 140.226 162.496 139.259 168.025 139.263C168.564 139.263 169.116 139.389 169.639 139.534C170.384 139.74 170.78 140.462 170.345 140.948C169.5 141.896 170.048 142.289 170.694 142.909C173.018 145.149 174.334 147.887 174.757 151.087C175.761 158.717 169.781 165.883 162.033 166.241C160.641 166.305 159.24 166.251 157.766 166.251C158.14 167.469 158.84 168.606 159.051 169.915C159.966 175.564 156.495 180.208 150.415 181.522C146.521 182.363 142.795 181.76 139.127 180.437C137 179.67 134.933 178.733 132.695 178.273C128.983 177.512 125.365 178.017 121.804 179.068C119.634 179.709 117.511 180.511 115.369 181.243C112.952 182.065 110.471 182.264 107.952 181.936C103.431 181.348 101.025 178.839 100.36 173.84C99.9942 171.081 100.539 168.427 102.205 166.09C102.377 166.009 102.486 165.877 102.534 165.697C102.757 165.402 103.195 165.246 103.136 164.773C103.238 164.589 103.374 164.435 103.54 164.306C104.234 163.864 104.991 163.541 105.723 163.166C106.1 162.992 106.488 162.877 106.912 162.945C109.815 162.425 112.651 162.859 115.468 163.556C118.878 164.399 122.344 164.906 125.841 165.173C130.174 165.503 134.373 164.667 138.533 163.597C140.647 163.055 142.774 162.594 144.95 162.386C146.459 162.019 147.995 162.333 149.512 162.205C149.94 162.167 150.702 162.527 150.604 161.559Z" fill="#020302"/>
<path fill-rule="evenodd" clip-rule="evenodd" d="M121.411 142.985C121.441 144.064 121.581 145.155 121.477 146.221C121.066 150.441 117.773 152.583 113.664 151.37C113.365 151.28 113.07 151.18 112.497 150.996C112.217 153.206 111.983 155.418 110.956 157.424C109.954 159.387 108.607 161.055 106.898 162.451C106.655 162.787 106.401 163.11 105.947 163.179C105.264 163.655 104.467 163.92 103.765 164.359C103.429 164.594 102.952 164.448 102.649 164.77C102.512 164.756 102.383 164.78 102.261 164.842C101.925 165.02 101.515 164.982 101.19 165.192C98.6937 165.604 96.2321 165.605 93.7781 164.84C83.9015 161.753 80.3693 149.947 86.9769 142.074C87.6513 141.268 88.6115 140.686 88.7218 139.435C88.7808 138.763 89.6185 138.68 90.2278 138.535C92.4687 138.003 94.7549 137.997 96.9866 138.354C102.33 139.21 106.907 141.536 110.391 145.758C110.935 146.416 111.523 147.04 112.112 147.662C112.648 148.231 113.268 148.694 113.988 149.026C116.348 150.121 118.393 149.206 119.055 146.702C119.4 145.399 119.283 144.109 118.827 142.826C117.886 140.182 116.208 138.09 114.029 136.369C111.997 134.767 109.712 133.594 107.317 132.622C106.812 132.417 106.271 132.284 105.796 132.029C105.374 131.8 105.09 131.397 105.23 130.874C105.395 130.275 105.861 129.922 106.45 130.015C107.134 130.12 107.808 130.356 108.452 130.62C113.17 132.547 117.252 135.282 120.026 139.658C121.237 140.459 121.376 141.703 121.411 142.985Z" fill="#020302"/>
<path fill-rule="evenodd" clip-rule="evenodd" d="M180.087 154.603C179.881 159.191 178.293 163.005 174.991 166.065C174.764 166.276 174.525 166.477 174.277 166.661C173.748 167.053 173.169 167.327 172.601 166.779C171.938 166.143 172.217 165.526 172.768 164.978C173.151 164.594 173.582 164.256 173.952 163.863C176.819 160.813 178.097 157.232 177.577 153.062C177.465 152.168 177.052 151.019 178.383 150.808C179.703 150.597 179.727 151.774 179.851 152.691C179.945 153.378 180.022 154.067 180.087 154.603Z" fill="#070807"/>
<path fill-rule="evenodd" clip-rule="evenodd" d="M78 155.906C78.0333 155.355 78.1799 154.816 78.8089 154.659C79.5695 154.468 79.9687 154.918 80.1773 155.58C80.2953 155.95 80.3981 156.323 80.5039 156.696C81.6455 160.712 83.9529 163.757 87.8963 165.457C88.6553 165.785 89.747 166.032 89.2465 167.191C88.7823 168.269 87.8025 167.891 87.0133 167.552C82.0266 165.416 79.2187 161.551 78.0816 156.384C78.0484 156.234 78.0302 156.08 78 155.906Z" fill="#090A0A"/>
<path fill-rule="evenodd" clip-rule="evenodd" d="M120.565 138.657C120.364 137.628 119.626 136.924 119.024 136.132C118.657 135.649 118.603 135.143 119.094 134.697C119.563 134.273 120.113 134.312 120.589 134.628C120.963 134.878 121.285 135.236 121.559 135.597C122.691 137.095 123.353 138.815 123.775 140.616C124.111 142.053 123.81 142.303 122.064 142.353C120.725 141.453 120.923 139.943 120.565 138.657Z" fill="#020302"/>
<path fill-rule="evenodd" clip-rule="evenodd" d="M140.161 136.589C140.145 137.086 139.874 137.451 139.523 137.764C138.28 138.877 137.474 140.249 137.042 141.843C136.836 142.6 136.423 143.135 135.568 142.915C134.719 142.698 134.574 142.018 134.783 141.272C135.351 139.234 136.346 137.435 137.994 136.053C138.404 135.708 138.891 135.431 139.481 135.716C139.857 135.897 140.067 136.195 140.161 136.589Z" fill="#0E0E0E"/>
<path fill-rule="evenodd" clip-rule="evenodd" d="M102.649 164.769C102.886 164.438 103.231 164.321 103.619 164.293C103.752 164.393 103.804 164.5 103.769 164.613C103.734 164.729 103.697 164.786 103.657 164.786C103.483 164.781 103.309 164.778 103.137 164.774C102.974 164.772 102.81 164.771 102.649 164.769Z" fill="#020302"/>
<path fill-rule="evenodd" clip-rule="evenodd" d="M161.054 164.004C154.099 163.962 148.888 158.107 149.693 151.243C149.785 150.465 149.9 149.714 150.533 149.144C152.674 147.224 154.734 145.203 157.283 143.789C157.622 143.6 157.979 143.443 158.326 143.268C164.922 139.953 169.301 142.631 171.82 148.87C174.785 156.212 169.024 164.054 161.054 164.004Z" fill="#FEFEFE"/>
<path fill-rule="evenodd" clip-rule="evenodd" d="M107.673 167.32C108.331 167.958 108.223 168.912 108.653 169.652C109.138 170.485 109.651 171.265 110.741 171.298C111.852 171.332 112.337 170.504 112.88 169.726C113.348 169.053 112.989 167.801 114.029 167.644C114.832 167.521 115.711 167.88 116.553 168.039C117.013 168.127 117.465 168.322 117.926 168.339C119.792 168.405 121.193 168.932 121.659 171.028C121.854 171.909 122.657 172.659 123.747 172.609C124.795 172.561 125.581 171.884 125.804 170.952C126.168 169.42 127.174 169.305 128.435 169.386C129.056 169.423 129.703 169.421 130.307 169.294C132.165 168.906 133.597 168.921 134.625 171.046C135.461 172.773 137.273 172.55 138.332 170.858C138.658 170.34 138.946 169.739 139.033 169.147C139.223 167.828 140.064 167.353 141.242 167.187C141.707 167.121 142.168 167.037 142.63 166.947C144.878 166.51 144.875 166.509 145.75 168.545C146.163 169.51 146.703 170.34 147.895 170.444C149.066 170.548 149.786 169.865 150.409 169.022C150.547 168.834 150.642 168.614 150.784 168.43C151.151 167.952 151.059 167.013 151.776 166.968C152.567 166.916 153.164 167.563 153.752 168.089C155.252 169.424 155.57 173.949 153.537 175.542C152.344 176.477 151.071 177.146 149.593 177.497C146.907 178.133 146.827 178.112 145.992 175.629C145.918 175.409 145.871 175.177 145.775 174.967C145.274 173.888 144.707 172.809 143.333 172.727C141.946 172.646 141.278 173.654 140.691 174.699C139.798 176.297 139.802 176.29 137.986 175.632C137.251 175.364 136.518 175.074 135.759 174.904C134.038 174.524 132.697 173.998 132.015 172.012C131.353 170.08 129.159 170.047 128.302 171.933C127.527 173.637 126.424 174.154 124.729 174.224C123.805 174.265 122.854 174.488 121.984 174.818C120.22 175.486 118.939 175.508 117.725 173.616C116.629 171.911 114.59 172.21 113.468 173.934C113.094 174.511 112.832 175.18 112.625 175.84C111.937 178.045 111.808 178.147 109.369 177.913C106.782 177.666 105.193 176.188 104.635 173.506C104.055 170.718 104.963 168.551 107.221 167.379C107.345 167.314 107.516 167.338 107.673 167.32Z" fill="#EC2E83"/>
<path fill-rule="evenodd" clip-rule="evenodd" d="M117.447 176.103C116.393 176.716 115.361 177.009 114.329 177.256C113.783 176.837 114.126 176.404 114.268 175.998C114.543 175.213 114.719 174.158 115.741 174.177C116.653 174.193 117.09 175.068 117.447 176.103Z" fill="#FEFEFE"/>
<path fill-rule="evenodd" clip-rule="evenodd" d="M144.432 177.592C143.692 177.45 143.016 177.355 142.362 177.183C141.881 177.056 141.524 176.749 141.773 176.183C142.074 175.501 142.235 174.565 143.101 174.469C144.096 174.362 144.152 175.38 144.433 176.027C144.607 176.425 144.739 176.888 144.432 177.592Z" fill="#FEFEFE"/>
<path fill-rule="evenodd" clip-rule="evenodd" d="M149.551 166.346C149.799 166.941 149.532 167.335 149.294 167.724C148.981 168.238 148.643 168.946 147.955 168.726C147.108 168.455 147.1 167.532 146.999 166.791C146.954 166.465 147.247 166.262 147.595 166.241C148.272 166.2 148.953 166.131 149.551 166.346Z" fill="#FEFEFE"/>
<path fill-rule="evenodd" clip-rule="evenodd" d="M111.751 167.708C111.617 168.389 111.592 169.132 110.886 169.463C110.463 169.661 109.719 168.434 109.684 167.524C109.663 166.965 109.887 166.638 110.489 166.794C111.024 166.931 111.798 166.802 111.751 167.708Z" fill="#FEFEFE"/>
<path fill-rule="evenodd" clip-rule="evenodd" d="M137.569 167.889C137.394 169.195 137.323 170.223 136.353 170.33C135.619 170.413 135.419 169.478 135.23 168.788C135.821 168.229 136.609 168.355 137.569 167.889Z" fill="#FEFEFE"/>
<path fill-rule="evenodd" clip-rule="evenodd" d="M123.842 169.028C124.031 169.052 124.648 169.003 124.607 169.612C124.575 170.086 124.434 170.778 123.772 170.806C122.965 170.839 122.862 170.126 122.809 169.536C122.767 169.027 123.173 168.962 123.842 169.028Z" fill="#FEFEFE"/>
<path fill-rule="evenodd" clip-rule="evenodd" d="M130.932 173.147C130.961 173.726 130.702 173.927 130.261 173.929C129.795 173.93 129.289 173.9 129.336 173.268C129.37 172.804 129.659 172.305 130.131 172.296C130.621 172.284 130.798 172.819 130.932 173.147Z" fill="#FEFEFE"/>
<path fill-rule="evenodd" clip-rule="evenodd" d="M94.7143 140.432C100.628 140.799 105.488 143.225 109.204 147.883C110.057 148.949 110.114 150.177 110.107 151.406C110.086 156.36 106.715 160.919 101.949 162.529C97.123 164.161 91.7613 162.646 88.6026 158.756C84.0197 153.117 85.5196 144.732 91.7356 140.937C92.7063 140.342 93.6861 140.547 94.7143 140.432Z" fill="#FEFEFE"/>
<path fill-rule="evenodd" clip-rule="evenodd" d="M166.646 153.272C166.646 154.12 166.657 154.971 166.643 155.82C166.631 156.606 166.43 157.353 166.064 158.044C165.302 159.476 163.84 160.117 162.337 159.706C160.882 159.309 159.86 157.92 160.129 156.329C160.563 153.772 160.547 151.306 159.692 148.811C159.125 147.156 159.964 145.702 161.547 145.05C162.957 144.47 164.487 144.956 165.433 146.298C166.126 147.279 166.268 148.442 166.507 149.572C166.587 149.947 166.616 150.338 166.623 150.723C166.64 151.572 166.629 152.423 166.629 153.272H166.646Z" fill="#020302"/>
<path fill-rule="evenodd" clip-rule="evenodd" d="M90.3095 151.993C90.2717 150.116 90.5757 148.299 91.1472 146.525C91.3846 145.789 91.6658 145.072 92.2238 144.497C93.19 143.501 94.4147 143.203 95.6153 143.69C96.9081 144.217 97.5446 145.186 97.5734 146.556C97.5855 147.179 97.4101 147.763 97.2286 148.359C96.6208 150.377 96.456 152.415 96.831 154.519C97.1969 156.58 96.0613 158.203 94.2348 158.5C92.5519 158.773 90.9612 157.619 90.5923 155.674C90.364 154.471 90.3957 153.221 90.3095 151.993Z" fill="#020302"/>
</svg>
