<svg width="250" height="375" viewBox="0 0 250 375" fill="none" xmlns="http://www.w3.org/2000/svg">
<path fill-rule="evenodd" clip-rule="evenodd" d="M105.544 194.58C94.6704 194.658 85.6254 186.886 84.1242 176.574C83.5675 172.748 84.8952 169.719 87.8448 168.087C90.8397 166.427 94.346 166.912 97.1599 169.44C98.0334 170.225 98.8602 171.079 99.6071 171.985C100.932 173.597 102.587 174.209 104.601 173.91C106.221 173.669 107.837 173.389 109.458 173.147C111.326 172.867 113.18 172.874 115.048 173.249C120.496 174.348 122.88 178.49 120.909 184.144C118.86 190.03 114.274 193.106 108.35 194.259C107.281 194.468 106.179 194.51 105.544 194.58Z" fill="#020302"/>
<path fill-rule="evenodd" clip-rule="evenodd" d="M156.937 149.78C158.891 149.883 160.923 150.781 162.644 152.386C165.039 154.62 166.268 157.478 166.78 160.663C167.056 162.372 166.068 163.771 164.591 164.042C163.148 164.306 161.961 163.522 161.471 161.863C161.161 160.811 161.059 159.697 160.553 158.703C160.375 158.354 160.199 157.998 159.974 157.681C159.035 156.361 157.957 155.159 156.167 155.403C154.372 155.645 153.678 157.084 153.139 158.633C152.822 159.546 152.881 160.502 152.703 161.424C152.41 162.947 151.289 163.911 149.98 163.882C148.678 163.855 147.625 162.839 147.329 161.322C146.351 156.308 151.037 150.12 156.072 149.78C156.228 149.769 156.383 149.78 156.937 149.78Z" fill="#020302"/>
<path fill-rule="evenodd" clip-rule="evenodd" d="M116.27 149.28C118.678 149.384 120.76 150.315 122.432 152.138C124.497 154.389 125.315 157.157 125.496 160.123C125.608 161.958 124.355 163.363 122.827 163.407C121.365 163.452 120.261 162.347 120.034 160.502C119.929 159.64 119.868 158.784 119.573 157.957C119.048 156.486 118.322 155.17 116.638 154.926C114.953 154.682 113.875 155.756 112.96 156.997C112.202 158.022 111.79 159.202 111.516 160.447C110.955 162.994 109.778 163.996 107.988 163.517C106.365 163.082 105.737 161.549 106.196 159.286C106.792 156.342 108.077 153.791 110.301 151.771C111.98 150.245 113.961 149.412 116.27 149.28Z" fill="#020302"/>
<path fill-rule="evenodd" clip-rule="evenodd" d="M120.602 118.081C121.942 118.975 122.985 118.024 124.205 117.323C125.805 116.402 127.641 117.547 127.997 119.543C128.311 121.304 127.801 122.93 126.548 124.095C125.139 125.41 125.079 126.731 125.494 128.509C126.82 134.19 127.953 139.918 129.154 145.628C129.267 146.166 129.38 146.712 129.421 147.258C129.459 147.771 129.242 148.216 128.695 148.309C128.211 148.39 127.734 148.261 127.549 147.73C127.344 147.135 127.172 146.526 127.04 145.909C125.776 139.97 124.498 134.031 123.29 128.08C123.048 126.887 122.617 126.083 121.39 125.707C120.347 125.389 119.392 124.807 118.652 123.954C117.586 122.726 117.226 121.339 117.864 119.788C118.336 118.644 119.263 118.147 120.602 118.081Z" fill="#020302"/>
<path fill-rule="evenodd" clip-rule="evenodd" d="M153.188 120.564C154.122 120.559 154.925 120.95 155.359 121.735C155.813 122.553 156.341 122.782 157.236 122.7C158.414 122.593 159.348 123.107 159.89 124.236C160.484 125.475 160.082 126.554 159.338 127.534C158.321 128.871 156.85 129.48 155.269 129.594C153.968 129.687 153.395 130.348 152.882 131.436C150.398 136.699 147.849 141.93 145.321 147.17C145.083 147.665 144.848 148.163 144.579 148.641C144.28 149.178 143.835 149.48 143.224 149.198C142.616 148.917 142.518 148.404 142.772 147.814C143.02 147.237 143.275 146.661 143.549 146.094C146.076 140.854 148.579 135.6 151.165 130.387C151.678 129.354 151.728 128.558 151.092 127.58C150.406 126.522 149.943 125.335 150.009 124.017C150.107 122.082 151.509 120.56 153.188 120.564Z" fill="#040505"/>
<path fill-rule="evenodd" clip-rule="evenodd" d="M99.714 190.984C94.0003 189.649 88.599 184.385 87.7993 179.373C91.7447 177.918 97.7963 179.825 99.8724 183.178C100.965 185.079 102.001 186.936 101.97 189.303C101.944 191.181 101.262 191.515 99.714 190.984Z" fill="#ED2E82"/>
<path fill-rule="evenodd" clip-rule="evenodd" d="M99.7139 190.984C101.671 190.74 101.65 190.74 101.69 189.022C101.727 187.498 101.23 186.132 100.495 184.853C100.185 184.318 99.7576 183.861 99.8723 183.178C101.402 184.586 101.982 186.426 102.184 188.431C102.23 188.9 102.211 189.376 102.247 189.848C102.279 190.267 102.487 190.659 102.891 190.717C103.465 190.8 103.706 190.324 103.803 189.846C104.062 188.567 103.628 187.351 103.412 186.117C103.293 185.438 102.769 184.867 102.846 184.127C106.132 183.86 109.72 187.115 109.77 190.34C109.783 191.195 109.304 191.395 108.638 191.528C105.615 192.132 102.624 192.233 99.7139 190.984Z" fill="#EC2981"/>
<path fill-rule="evenodd" clip-rule="evenodd" d="M116.576 176.874C115.95 178.215 115.202 179.41 114.019 180.24C113.157 180.844 112.61 180.631 112.22 179.653C112.19 179.579 112.145 179.511 112.134 179.436C111.941 178.272 111.52 176.875 112.226 176.01C112.94 175.134 114.245 175.788 115.267 176.08C115.697 176.204 116.211 176.209 116.576 176.874Z" fill="#FEFEFE"/>
<path fill-rule="evenodd" clip-rule="evenodd" d="M92.7918 170.262C93.415 170.02 93.7454 170.276 94.0758 170.462C96.6271 171.901 96.7931 173.041 94.7653 175.115C93.8148 176.085 93.2037 175.934 92.8748 174.532C92.5474 173.145 92.5157 171.721 92.7918 170.262Z" fill="#FEFEFE"/>
</svg>
