<svg width="250" height="375" viewBox="0 0 250 375" fill="none" xmlns="http://www.w3.org/2000/svg">
<path fill-rule="evenodd" clip-rule="evenodd" d="M166.115 172.425C167.053 172.802 167.796 173.036 168.482 173.385C170.983 174.661 172.691 176.587 173.231 179.417C174.09 183.923 171.152 187.079 166.55 186.665C164.305 186.462 162.239 185.728 160.446 184.453C158.22 182.87 156.458 182.851 154.054 184.511C148.028 188.671 141.109 190.716 133.874 191.489C121.542 192.809 109.9 190.556 99.1451 184.239C93.0413 180.655 87.948 175.987 84.3017 169.871C83.6416 168.761 83.0646 168.639 81.9197 169.102C79.6932 170 77.4728 169.787 75.4065 168.503C74.8748 168.175 74.3598 167.791 74.112 167.184C73.9232 166.723 73.9595 166.24 74.325 165.879C74.6679 165.544 75.1029 165.31 75.5968 165.527C75.9518 165.681 76.2766 165.906 76.6058 166.115C78.642 167.408 80.6312 167.146 82.5269 165.849C84.5222 164.479 85.3892 162.192 84.8666 159.914C84.7971 159.611 84.6914 159.315 84.5932 159.017C84.3319 158.22 84.5811 157.608 85.3605 157.336C86.1701 157.049 86.7471 157.498 87.0568 158.201C88.1096 160.594 87.9918 163.017 86.5719 165.151C85.6732 166.503 85.8333 167.442 86.6263 168.695C90.1276 174.237 94.7209 178.665 100.4 181.857C115.647 190.423 131.436 191.699 147.723 184.997C148.3 184.762 148.838 184.425 149.415 184.192C150.154 183.898 150.471 183.438 150.494 182.602C150.583 179.384 152.546 177.486 155.258 176.224C156.116 175.824 156.893 175.455 157.52 174.672C158.594 173.33 160.165 172.72 161.816 172.496C162.79 172.365 163.327 171.93 163.78 171.116C165.002 168.915 165.946 166.616 166.562 164.175C166.786 163.287 166.642 162.81 165.713 162.372C163.458 161.311 161.991 159.561 161.765 156.966C161.718 156.419 161.698 155.863 161.941 155.351C162.157 154.898 162.549 154.619 163.041 154.596C163.544 154.575 163.949 154.842 164.16 155.301C164.289 155.579 164.367 155.899 164.378 156.205C164.461 158.502 165.763 159.781 167.872 160.328C170.107 160.91 172.046 160.373 173.589 158.605C173.897 158.253 174.135 157.831 174.48 157.525C174.93 157.118 175.495 157.103 175.996 157.436C176.422 157.718 176.521 158.182 176.466 158.68C176.394 159.336 176.028 159.845 175.634 160.33C174.395 161.851 172.805 162.807 170.861 163.039C169.844 163.16 169.412 163.576 169.196 164.595C168.627 167.278 167.541 169.787 166.115 172.425Z" fill="#020302"/>
<path fill-rule="evenodd" clip-rule="evenodd" d="M149.256 158.473C149.154 171.192 138.832 181.397 126.15 181.311C113.441 181.225 103.1 170.881 103.147 158.295C103.194 145.495 113.593 135.142 126.314 135.227C139.164 135.316 149.358 145.644 149.256 158.473Z" fill="#020302"/>
<path fill-rule="evenodd" clip-rule="evenodd" d="M152.149 129.418C153.676 127.908 154.987 126.24 156.646 124.932C157.627 124.157 158.606 123.378 159.801 122.944C161.935 122.169 163.471 122.908 164.205 125.065C164.643 126.35 164.677 127.681 164.591 129.009C164.452 131.194 164.153 133.365 163.613 135.489C163.382 136.399 163.485 136.898 164.459 137.263C165.704 137.733 166.816 138.494 167.675 139.546C168.096 140.061 168.365 140.701 167.737 141.198C167.222 141.606 166.748 141.239 166.317 140.836C162.873 137.602 158.932 137.567 154.762 139.078C154.47 139.183 154.202 139.351 153.912 139.464C153.386 139.674 152.789 139.845 152.456 139.251C152.14 138.692 152.415 138.156 152.971 137.887C153.803 137.482 153.748 136.862 153.572 136.119C152.898 133.249 151.67 130.823 148.652 129.778C148.09 129.584 147.577 129.275 147.815 128.613C148.077 127.886 148.697 127.905 149.379 128.066C150.388 128.306 151.19 128.957 152.149 129.418Z" fill="#070807"/>
<path fill-rule="evenodd" clip-rule="evenodd" d="M94.8822 120C96 120.1 96.9229 120.471 97.802 121.023C99.7459 122.237 101.365 123.82 102.829 125.548C103.641 126.507 104.305 127.107 105.439 126.007C105.752 125.704 106.268 125.572 106.715 125.457C107.312 125.306 108.026 125.114 108.315 125.903C108.6 126.684 108.031 127.022 107.387 127.232C104.909 128.043 103.703 129.978 102.948 132.294C102.561 133.476 102.107 134.683 103.577 135.549C103.915 135.748 104.024 136.183 103.776 136.582C103.409 137.17 102.922 137.147 102.365 136.863C100.595 135.963 98.7264 135.5 96.728 135.538C94.2312 135.587 91.9353 136.144 90.0956 137.969C89.9294 138.133 89.7723 138.314 89.582 138.444C89.1636 138.733 88.7014 138.833 88.3192 138.42C87.9416 138.012 88.0776 137.541 88.3615 137.145C89.0594 136.171 90.0125 135.502 91.0547 134.942C92.7872 134.008 92.7479 134.014 92.393 132.01C91.8764 129.093 91.2662 126.172 91.822 123.186C92.2102 121.103 93.328 119.998 94.8822 120Z" fill="#070807"/>
<path fill-rule="evenodd" clip-rule="evenodd" d="M152.261 182.583C152.518 180.332 153.566 179.263 154.897 178.405C158.239 176.249 163 176.606 166.044 179.168C166.607 179.643 167.171 180.955 168.036 179.849C168.718 178.982 167.624 178.332 167.036 177.792C165.807 176.666 164.325 175.975 162.692 175.621C161.866 175.441 161.037 175.271 160.075 175.068C164.473 172.775 170.014 174.816 171.39 179.092C172.524 182.618 170.526 185.229 166.829 185.012C165.165 184.915 163.636 184.327 162.183 183.542C160.88 182.837 159.615 182.051 158.282 181.415C155.564 180.116 154.654 180.275 152.261 182.583Z" fill="#EC2E83"/>
<path fill-rule="evenodd" clip-rule="evenodd" d="M126.048 178.544C114.88 178.538 105.91 169.446 105.927 158.147C105.944 147.03 115.08 137.997 126.321 137.985C137.638 137.974 146.5 147.017 146.513 158.527C146.527 169.681 137.04 178.864 126.048 178.544Z" fill="#FEFEFE"/>
<path fill-rule="evenodd" clip-rule="evenodd" d="M153.688 130.829C156.868 131.351 159.419 132.418 161.292 134.774C162.02 135.689 161.733 136.321 160.648 136.289C159.318 136.251 158.012 136.315 156.713 136.593C156.133 136.715 155.544 136.667 155.449 135.96C155.221 134.262 154.292 132.803 153.688 130.829Z" fill="#EC2980"/>
<path fill-rule="evenodd" clip-rule="evenodd" d="M162.001 133.124C159.842 131.393 157.713 130.169 155.254 129.584C156.249 127.502 157.028 127.193 159.108 127.932C162.061 128.98 162.759 130.133 162.001 133.124Z" fill="#EC2480"/>
<path fill-rule="evenodd" clip-rule="evenodd" d="M162.631 128.223C161.709 127.704 161.111 127.344 160.492 127.026C159.88 126.71 159.247 126.437 158.489 126.083C159.403 125.088 160.439 124.221 161.563 124.71C162.85 125.27 162.789 126.708 162.631 128.223Z" fill="#DC1F75"/>
<path fill-rule="evenodd" clip-rule="evenodd" d="M102.761 128.371C101.786 130.022 101.071 131.487 100.801 133.109C100.688 133.785 100.308 134.01 99.6605 133.937C98.2708 133.777 96.8857 133.637 95.4765 133.735C94.5505 133.798 94.5158 133.128 94.7152 132.464C94.7998 132.184 95.0384 131.94 95.2348 131.702C96.7135 129.904 99.7813 128.483 102.761 128.371Z" fill="#EC297F"/>
<path fill-rule="evenodd" clip-rule="evenodd" d="M101.308 126.865C98.5117 127.525 96.323 128.779 94.3081 130.403C93.3459 127.925 93.4592 127.459 95.3156 126.238C95.8321 125.898 96.3835 125.599 96.9559 125.368C98.9966 124.543 99.5298 124.714 101.308 126.865Z" fill="#EC247E"/>
<path fill-rule="evenodd" clip-rule="evenodd" d="M93.6899 125.303C93.6718 124.09 93.3077 122.717 94.572 122.138C95.6731 121.632 96.6263 122.407 97.5597 123.262C96.4541 124.282 94.998 124.558 93.6899 125.303Z" fill="#E9257C"/>
<path fill-rule="evenodd" clip-rule="evenodd" d="M121.372 157.405C121.465 151.243 126.55 146.251 132.674 146.31C139.021 146.371 144.078 151.607 143.93 157.963C143.789 164.025 138.531 169.073 132.476 168.963C126.233 168.851 121.279 163.693 121.372 157.405Z" fill="#020302"/>
</svg>
