<svg width="250" height="375" viewBox="0 0 250 375" fill="none" xmlns="http://www.w3.org/2000/svg">
<path d="M4.80005 4H43.0001V53.7L4.80005 75V4Z" fill="#85BFE0"/>
<path d="M24.2879 25C23.9519 25 23.6759 24.898 23.4599 24.694C23.2439 24.478 23.1359 24.214 23.1359 23.902V14.83L23.3879 15.226L22.0739 16.198C21.9059 16.33 21.6959 16.396 21.4439 16.396C21.1559 16.396 20.9039 16.288 20.6879 16.072C20.4719 15.856 20.3639 15.598 20.3639 15.298C20.3639 14.914 20.5499 14.602 20.9219 14.362L23.5139 12.634C23.6339 12.55 23.7659 12.49 23.9099 12.454C24.0659 12.418 24.2099 12.4 24.3419 12.4C24.6899 12.4 24.9659 12.508 25.1699 12.724C25.3739 12.928 25.4759 13.186 25.4759 13.498V23.902C25.4759 24.214 25.3619 24.478 25.1339 24.694C24.9179 24.898 24.6359 25 24.2879 25Z" fill="black"/>
<path d="M24.517 53.8585C19.0673 53.9337 15.1316 50.1509 15.3961 45.0774C15.4906 43.2558 16.2576 41.5341 17.5486 40.2456C18.0298 39.7463 18.4334 39.6573 18.6523 40.4737C18.6819 40.5831 18.7207 40.688 18.7594 40.7952C19.1972 41.9649 19.9725 42.5327 20.8116 42.2955C21.7077 42.0402 22.2299 40.8978 21.9016 39.7645C21.7465 39.2287 21.4455 38.7384 21.2312 38.2185C20.3305 36.0364 21.3247 33.3252 23.4179 32.2284C23.9651 31.9411 24.4485 31.7724 24.444 32.6845C24.4303 34.4357 25.3561 35.5324 26.8679 36.2804C29.1914 37.4205 30.7237 39.3586 31.9276 41.5704C35.1519 47.5104 31.0748 54.0865 24.517 53.8585ZM19.4389 51.6512C19.48 51.69 19.5507 51.7675 19.5621 51.7607C19.6738 51.6832 19.6099 51.6148 19.537 51.5532C19.4207 51.2796 19.309 50.9991 19.1881 50.7323C18.276 48.8169 18.7914 45.8367 20.3054 44.3318C20.6566 43.9829 20.9256 43.7526 21.4341 44.1744C22.7179 45.237 23.9423 44.7719 24.4463 43.1597C24.8043 42.0037 24.3961 40.9411 24.2296 39.842C24.1134 39.0622 24.2091 38.6404 25.2398 38.93C27.4379 39.5297 28.9656 40.6401 29.0021 43.105C29.0923 43.1114 29.1813 43.0823 29.2503 43.0239C29.3193 42.9656 29.3628 42.8826 29.3715 42.7926C29.4445 42.4711 29.4034 42.0538 29.8048 41.9512C30.2608 41.8304 30.4546 42.2477 30.6553 42.5509C31.1113 43.2578 31.5674 43.9806 32.0439 44.7445C32.1584 44.3559 32.1259 43.9387 31.9527 43.5725C30.9494 40.7564 29.2894 38.4329 26.6307 36.9849C25.0163 36.1116 23.7987 35.0331 23.7326 33.0356C21.7009 34.3262 21.1058 36.2781 22.0635 38.2983C22.3188 38.8388 22.6084 39.3586 22.6973 39.972C22.8912 41.3105 22.2915 42.5464 21.2107 42.9363C20.1298 43.3262 19.0764 42.8724 18.3125 41.6138C18.2031 41.4313 18.0959 41.2489 17.9796 41.0506C14.9652 44.0399 15.7587 49.5831 19.4389 51.6604V51.6512ZM29.3647 51.5167C32.1169 49.5808 32.3609 46.2243 30.1764 43.1734C29.7774 43.5155 29.5266 44.1676 28.8083 43.8712C28.2132 43.6249 28.1927 43.0777 28.1242 42.5555C27.8962 40.8066 26.9841 39.9971 24.9753 39.7896C25.071 40.2798 25.1623 40.7473 25.2489 41.217C25.4664 42.2636 25.2936 43.3536 24.7632 44.2816C24.1202 45.4217 22.6951 45.9963 21.6941 45.3145C20.7546 44.6761 20.5106 45.1595 20.1435 45.8413C19.8552 46.3676 19.647 46.934 19.5256 47.5218C19.0125 50.0551 20.7409 52.5907 23.0918 52.6728C22.6039 51.9363 22.0042 51.3047 21.9198 50.3926C21.8446 49.5877 21.9449 48.9994 22.9938 49.2912C23.6345 49.4714 23.9059 49.0883 23.9925 48.5456C24.0385 48.2116 24.0469 47.8736 24.0176 47.5377C23.972 46.8286 24.2456 46.4432 24.9297 46.8377C25.8896 47.3895 25.7893 46.7579 25.7848 46.1765C25.7879 45.9145 25.7749 45.6525 25.746 45.3921C25.6958 45.0022 25.388 44.5826 25.8212 44.252C26.2932 43.8849 26.763 44.1585 27.1894 44.3728C27.5312 44.5338 27.8404 44.7564 28.1014 45.0295C29.7455 46.8491 30.3474 48.9287 29.3647 51.5258V51.5167ZM24.8043 47.6404C24.6583 48.8648 24.6675 50.1258 22.9368 50.0391C22.385 50.0095 22.6358 50.461 22.6951 50.6913C22.9619 51.7128 24.143 52.6591 25.2512 52.7845C26.1333 52.8804 27.0195 52.6437 27.7364 52.1208C28.4533 51.5979 28.9494 50.8263 29.1275 49.957C29.5175 48.0713 28.1493 45.4217 26.4711 44.9201C26.4392 45.9279 26.5805 46.9403 26.2431 47.9094C26.0629 48.4202 25.8121 48.6277 25.3948 48.1101C25.3346 47.9959 25.2508 47.8958 25.149 47.8164C25.0472 47.737 24.9297 47.6801 24.8043 47.6495V47.6404Z" fill="#564394"/>
<path d="M28.4936 34.7481C28.4948 34.6843 28.5085 34.6213 28.534 34.5629C28.5595 34.5044 28.5963 34.4515 28.6423 34.4073C28.6882 34.363 28.7424 34.3282 28.8018 34.3049C28.8612 34.2817 28.9246 34.2703 28.9884 34.2715C29.0535 34.263 29.1197 34.2693 29.182 34.2898C29.2444 34.3104 29.3013 34.3447 29.3486 34.3903C29.3959 34.4358 29.4324 34.4914 29.4553 34.553C29.4782 34.6145 29.4869 34.6804 29.4809 34.7458C29.4903 34.8111 29.4847 34.8776 29.4644 34.9404C29.4442 35.0031 29.4099 35.0605 29.3642 35.108C29.3184 35.1555 29.2624 35.1919 29.2005 35.2145C29.1385 35.2371 29.0722 35.2452 29.0066 35.2383C28.94 35.2431 28.873 35.2339 28.8101 35.2113C28.7472 35.1886 28.6898 35.1531 28.6414 35.1069C28.5931 35.0607 28.555 35.0049 28.5295 34.9431C28.5041 34.8813 28.4918 34.8149 28.4936 34.7481V34.7481Z" fill="#57479A"/>
<path d="M16.2923 38.5811C16.2295 38.5771 16.1683 38.5598 16.1129 38.5302C16.0574 38.5006 16.0089 38.4594 15.9706 38.4095C15.9324 38.3596 15.9053 38.3021 15.8912 38.2408C15.877 38.1796 15.8762 38.116 15.8887 38.0543C15.8907 37.9881 15.9072 37.9231 15.9369 37.8639C15.9666 37.8046 16.0088 37.7526 16.0607 37.7114C16.1126 37.6701 16.1728 37.6407 16.2372 37.6251C16.3016 37.6095 16.3687 37.6081 16.4336 37.6211C16.5002 37.6202 16.5661 37.634 16.6268 37.6613C16.6875 37.6886 16.7415 37.7289 16.7849 37.7793C16.8284 37.8298 16.8603 37.8891 16.8784 37.9531C16.8965 38.0172 16.9003 38.0844 16.8897 38.1501C16.8509 38.4465 16.6503 38.6107 16.2923 38.5811Z" fill="#5A4B9C"/>
<path d="M19.4389 51.6604C15.7586 49.5831 14.9651 44.0399 17.9796 41.0643C18.0958 41.2626 18.2076 41.445 18.3125 41.6275C19.0763 42.8861 20.1115 43.3581 21.2106 42.95C22.3097 42.5418 22.8911 41.3128 22.6973 39.9857C22.6084 39.3723 22.3188 38.8456 22.0634 38.312C21.1057 36.2918 21.7009 34.3399 23.7325 33.0493C23.7986 35.0468 25.0163 36.1253 26.6307 36.9986C29.2985 38.4443 30.9494 40.7678 31.9527 43.5839C32.1259 43.9501 32.1583 44.3673 32.0439 44.7559C31.5696 43.9806 31.1136 43.2578 30.6575 42.5509C30.4569 42.2477 30.2722 41.8304 29.807 41.9513C29.4057 42.0539 29.4467 42.4711 29.3738 42.7926C29.3651 42.8826 29.3216 42.9656 29.2526 43.024C29.1836 43.0823 29.0945 43.1114 29.0044 43.105C28.9679 40.6401 27.4401 39.5297 25.242 38.93C24.2114 38.6495 24.1156 39.0713 24.2319 39.8421C24.3983 40.9411 24.8065 42.0037 24.4485 43.1598C23.9514 44.7719 22.7201 45.237 21.4363 44.1745C20.9279 43.7526 20.6588 43.9829 20.3076 44.3318C18.7936 45.8367 18.2691 48.817 19.1903 50.7323C19.318 50.9991 19.4184 51.2796 19.5392 51.5532C19.5027 51.5943 19.4708 51.6285 19.4389 51.6604Z" fill="#DB6DA8"/>
<path d="M29.365 51.5258C30.3478 48.9287 29.7435 46.8491 28.0904 45.0158C27.8293 44.7427 27.5201 44.5201 27.1783 44.3591C26.7542 44.1448 26.2844 43.8712 25.8101 44.2383C25.3769 44.5735 25.6847 44.993 25.7349 45.3784C25.7638 45.6388 25.7768 45.9008 25.7737 46.1628C25.7737 46.7442 25.8786 47.3759 24.9186 46.8241C24.2345 46.4296 23.9609 46.8241 24.0065 47.5241C24.0359 47.8599 24.0274 48.198 23.9814 48.5319C23.8925 49.0746 23.6234 49.4577 22.9827 49.2776C21.9338 48.9857 21.8426 49.574 21.9087 50.3789C21.9931 51.2773 22.5928 51.9203 23.0807 52.6591C20.7298 52.577 19.0014 50.0414 19.5145 47.5081C19.6359 46.9204 19.8441 46.354 20.1324 45.8276C20.4995 45.1435 20.7435 44.6624 21.683 45.3009C22.684 45.9849 24.1091 45.4149 24.7521 44.2679C25.2783 43.3459 25.4517 42.2642 25.2401 41.2239C25.1534 40.7541 25.0622 40.2867 24.9665 39.7964C26.9822 40.0039 27.8851 40.8134 28.1154 42.5623C28.1838 43.0845 28.2044 43.6318 28.7995 43.878C29.5155 44.1744 29.7663 43.5223 30.1676 43.1803C32.3612 46.2335 32.1172 49.5899 29.365 51.5258Z" fill="#F7CE2F"/>
<path d="M24.8041 47.6495C24.9283 47.6802 25.0447 47.7366 25.1456 47.8152C25.2466 47.8938 25.3299 47.9927 25.3901 48.1055C25.8074 48.6231 26.0582 48.4156 26.2384 47.9049C26.5804 46.9358 26.439 45.9234 26.4664 44.9155C28.1492 45.4217 29.5173 48.0713 29.1297 49.9662C28.9515 50.8355 28.4554 51.607 27.7385 52.1299C27.0216 52.6528 26.1355 52.8895 25.2533 52.7936C24.1451 52.6682 22.9731 51.722 22.6972 50.7004C22.6379 50.4724 22.3871 50.0164 22.9389 50.0483C24.6673 50.1349 24.6582 48.874 24.8041 47.6495Z" fill="#FAF9FB"/>
<path d="M19.537 51.5624C19.61 51.6239 19.6738 51.6923 19.5621 51.7699C19.5621 51.7699 19.48 51.6992 19.439 51.6604C19.4709 51.6285 19.5028 51.5943 19.537 51.5624Z" fill="#DB6DA8"/>
<rect x="2.5" y="2.5" width="245" height="370" rx="12.5" stroke="#85BFE0" stroke-width="5"/>
</svg>
