<svg width="250" height="375" viewBox="0 0 250 375" fill="none" xmlns="http://www.w3.org/2000/svg">
<path fill-rule="evenodd" clip-rule="evenodd" d="M163.943 62.5453C167 60.5304 170.04 58.482 173.553 57.3271C176.3 56.4228 179.077 55.8897 181.975 56.5908C187.162 57.845 188.973 62.4918 185.978 66.9309C184.981 68.4111 183.719 69.6362 182.318 70.7024C179.968 72.4881 177.572 74.2082 175.213 75.9786C169.767 80.0648 164.662 84.5161 160.613 90.0841C160.097 90.7975 159.567 91.5063 159.125 92.2654C158.772 92.8719 158.185 93.4722 158.298 94.1902C158.405 94.8699 159.253 94.9478 159.742 95.3358C161.186 96.4815 161.646 98.0182 161.642 99.804C161.634 101.883 161.667 101.883 163.66 102.466C168.703 103.942 173.572 105.859 178.262 108.262C184.147 111.274 188.799 115.628 192.419 121.196C197.037 128.298 199.593 136.209 201.452 144.398C203.452 153.209 204.346 162.173 204.755 171.176C205.103 178.806 205.49 186.447 204.858 194.089C204.532 198.033 203.924 201.911 202.434 205.599C201.555 207.777 200.374 209.769 198.724 211.446C195.705 214.514 191.981 215.658 187.834 215.181C183.894 214.728 179.985 214 176.064 213.383C171.637 212.685 167.722 213.671 164.426 216.875C163.109 218.155 161.707 219.345 160.14 220.32C157.629 221.88 154.996 222.266 152.153 221.369C150.016 220.696 148.001 219.781 146.062 218.667C143.646 217.28 141.228 215.898 138.667 214.789C135.672 213.492 132.964 213.681 130.594 216.171C129.54 217.282 128.239 218.096 126.874 218.742C124.576 219.833 122.409 219.626 120.492 217.809C119.679 217.039 118.878 216.252 118.009 215.554C116.064 213.994 113.918 213.583 111.52 214.404C108.866 215.316 106.466 216.732 104.044 218.1C101.821 219.356 99.5819 220.538 97.1433 221.325C94.1332 222.298 91.3537 221.887 88.7236 220.17C87.2487 219.208 85.9125 218.062 84.6487 216.842C81.4154 213.715 77.5773 212.696 73.2354 213.362C69.4682 213.942 65.7176 214.645 61.9383 215.113C55.3584 215.922 50.5159 213.26 47.456 207.305C45.3235 203.153 44.4458 198.633 44.2498 194.045C43.5862 178.415 44.1548 162.834 47.0488 147.423C48.4001 140.226 50.3983 133.216 53.6166 126.588C58.1922 117.16 65.1385 110.424 74.739 106.336C82.9959 102.821 91.583 100.662 100.36 99.1257C102.081 98.8248 103.802 98.5162 105.531 98.2825C106.291 98.1802 106.54 97.8792 106.668 97.091C107.059 94.7172 108.021 92.6183 110.243 91.4222C110.983 91.0251 111.03 90.466 110.902 89.8183C110.685 88.7185 110.475 87.6064 110.127 86.5447C108.771 82.3974 106.896 78.5159 104.242 75.0438C100.443 70.0746 96.4798 65.2643 91.6222 61.2866C89.9452 59.9133 88.4929 58.3139 87.5413 56.3159C85.5868 52.2067 86.9863 48.5696 91.1848 46.9718C95.2477 45.4259 99.3044 45.8231 103.308 47.2254C107.011 48.5207 110.419 50.4073 113.514 52.83C114.405 53.5296 115.064 53.774 116.237 53.3341C120.005 51.9241 123.583 52.7429 126.925 54.8066C130.403 56.9529 132.897 60.0553 135.016 63.5061C135.348 64.0453 135.666 64.5922 136.085 65.2888C136.824 64.6609 136.82 63.8116 137.087 63.1349C140.159 55.3382 144.694 48.6826 151.667 43.9426C154.662 41.9049 157.879 40.3972 161.539 40.0443C162.583 39.9435 163.608 40.0183 164.617 40.2322C167.078 40.7531 168.793 42.7298 169.034 45.2716C169.197 46.9871 168.841 48.6215 168.3 50.2377C167.302 53.218 165.869 55.9951 164.513 58.8104C164.098 59.6719 163.715 60.5503 163.317 61.4225C162.952 61.867 163.206 62.5147 162.827 62.944C162.836 62.9363 162.783 63.1257 162.783 63.1257C162.783 63.1257 162.927 62.9898 162.934 62.976C163.218 62.6797 163.569 62.588 163.943 62.5453Z" fill="#020302"/>
<path fill-rule="evenodd" clip-rule="evenodd" d="M201.582 179.548C201.6 185.496 201.89 191.454 201.023 197.374C200.591 200.33 199.938 203.223 198.576 205.903C196.1 210.771 192.383 212.725 187.017 211.915C184.035 211.468 181.066 210.927 178.093 210.408C176.364 210.107 174.625 210.004 172.874 210.029C169.07 210.082 165.731 211.348 162.854 213.884C161.536 215.044 160.21 216.198 158.829 217.28C157 218.714 154.958 219.031 152.76 218.238C151.112 217.642 149.528 216.913 148.005 216.037C145.521 214.605 143.013 213.221 140.406 212.028C135.692 209.873 131.507 210.423 127.801 214.284C125.504 216.68 123.909 216.631 121.464 214.436C121.107 214.115 120.772 213.771 120.418 213.449C117.499 210.8 114.188 210.09 110.466 211.358C107.359 212.416 104.555 214.101 101.71 215.694C100.042 216.629 98.3526 217.497 96.5565 218.168C94.1782 219.057 92.0352 218.702 90.0702 217.127C89.1985 216.428 88.2876 215.763 87.5064 214.969C83.0017 210.398 77.5182 209.347 71.4632 210.327C68.4847 210.809 65.5168 211.355 62.5398 211.837C56.5843 212.803 52.7568 210.751 50.2232 205.221C48.3848 201.209 47.7303 196.892 47.593 192.552C47.1497 178.621 47.6232 164.72 49.8899 150.941C51.1853 143.073 53.0901 135.356 56.6115 128.152C58.6293 124.023 61.0875 120.196 64.3148 116.9C67.972 113.165 72.4721 110.814 77.1593 108.776C85.1673 105.295 93.5916 103.301 102.17 102.046C111.84 100.63 121.592 99.7346 131.359 100.277C144.802 101.024 157.945 103.448 170.666 108.184C182.364 112.539 189.974 120.763 194.354 132.35C197.236 139.977 198.965 147.891 199.983 155.97C200.968 163.796 201.519 171.657 201.582 179.548Z" fill="#7D72B4"/>
<path fill-rule="evenodd" clip-rule="evenodd" d="M163.943 62.5451C163.771 63.0248 163.322 63.2065 162.96 63.4815C162.71 63.645 162.483 63.6144 162.281 63.3929C162.524 62.6811 162.728 61.9463 163.317 61.4224C163.42 61.8577 163.417 62.3526 163.943 62.5451Z" fill="#EC2E83"/>
<path fill-rule="evenodd" clip-rule="evenodd" d="M140.508 81.7261C140.255 78.5136 139.741 75.3393 138.819 72.2628C138.311 70.5672 138.275 68.9098 138.742 67.2799C141.11 59.0174 145.435 52.0547 152.333 46.8946C155.036 44.8736 157.993 43.3506 161.396 42.8985C162.11 42.8038 162.804 42.7564 163.519 42.9031C165.478 43.3033 166.234 44.1969 166.246 46.2041C166.253 47.5988 165.805 48.8865 165.326 50.1666C163.887 54.0054 161.886 57.5738 160.157 61.2736C159.04 63.6688 157.764 65.9907 156.957 68.5249C156.731 69.2352 156.277 69.7775 155.807 70.3289C150.943 76.0313 147.174 82.4211 144.249 89.3348C144.125 89.6312 143.979 89.9199 143.89 90.2254C143.674 90.9586 143.146 90.9647 142.564 90.8349C141.857 90.6776 142.054 90.178 142.166 89.7106C142.389 88.7727 142.588 87.8302 142.828 86.8999C144.882 78.8558 147.704 71.1263 151.901 63.9483C153.118 61.8693 154.525 59.9308 155.997 58.0336C156.389 57.5295 156.766 57.0117 157.126 56.4831C157.571 55.8308 157.788 55.148 157.006 54.595C156.233 54.0481 155.635 54.4988 155.176 55.1022C153.582 57.2026 151.917 59.2511 150.53 61.5103C146.39 68.2453 143.504 75.5242 141.326 83.1161C140.133 83.2093 141.076 82.0117 140.508 81.7261Z" fill="#EC2E83"/>
<path fill-rule="evenodd" clip-rule="evenodd" d="M126.086 89.3641C124.907 89.7475 123.715 89.523 122.547 89.555C121.554 89.5841 121.519 88.7714 121.316 88.0809C119.93 83.3638 117.914 78.9171 115.639 74.5819C112.89 69.3393 109.081 64.9338 105.007 60.7331C104.676 60.3878 104.344 60.038 103.857 59.9143C103.344 59.7829 102.905 59.9189 102.59 60.3374C102.327 60.6842 102.29 61.1302 102.537 61.4648C103.006 62.1079 103.505 62.7418 104.071 63.2963C110.302 69.3882 114.609 76.7235 117.666 84.8639C118.033 85.8385 118.375 86.8253 118.675 87.8228C119.244 89.7032 119.22 89.7414 117.393 89.8712C116.295 89.9476 114.98 90.3387 114.151 89.8758C113.27 89.384 113.508 87.8564 113.184 86.8039C111.825 82.4091 110.031 78.216 107.325 74.4857C103.32 68.9651 98.9644 63.7607 93.781 59.314C92.4479 58.1729 91.1207 57.015 90.2687 55.4187C88.7274 52.5316 89.5267 50.4007 92.6017 49.4429C95.6571 48.4912 98.7125 48.7036 101.733 49.6736C105.323 50.8254 108.574 52.6386 111.608 54.8764C112.337 55.4126 112.861 55.8739 112.501 57.0303C111.732 59.4835 112.46 61.7825 113.68 63.9486C114.745 65.8427 116.081 67.5429 117.383 69.266C121.046 74.1099 123.655 79.4869 125.389 85.3145C125.664 86.2341 125.881 87.1736 126.074 88.1176C126.149 88.4919 126.086 88.8951 126.086 89.3641Z" fill="#EC2E83"/>
<path fill-rule="evenodd" clip-rule="evenodd" d="M151.773 92.2413C154.093 86.519 157.368 81.8462 161.689 77.9158C162.161 77.4866 162.678 77.0986 163.101 76.6235C163.511 76.1637 163.555 75.5588 163.165 75.0715C162.773 74.5796 162.211 74.5079 161.668 74.8607C161.203 75.1616 160.736 75.4763 160.324 75.849C156.002 79.7565 152.574 84.3392 150.196 89.704C149.184 91.9831 149.19 91.9862 146.791 91.2468C146.549 90.8375 146.81 90.4953 146.961 90.15C151.111 80.5952 156.643 72.0592 164.836 65.5289C168.483 62.6234 172.415 60.2405 177.054 59.3025C178.725 58.9649 180.368 58.9466 181.986 59.5301C184.592 60.4711 185.319 62.4508 183.939 64.8476C183.29 65.9734 182.392 66.8792 181.431 67.7331C179.573 69.3783 177.517 70.7562 175.518 72.2089C170.216 76.0599 165.155 80.1965 160.81 85.1656C159.068 87.1576 157.474 89.2595 156.24 91.6226C155.176 93.6604 155.694 93.222 153.563 92.7927C153.03 92.6873 152.517 92.475 151.773 92.2413Z" fill="#EC2E83"/>
<path fill-rule="evenodd" clip-rule="evenodd" d="M137.796 83.3912C138.024 85.4411 137.69 87.1963 137.591 88.9606C137.545 89.7733 137.3 90.3599 136.283 90.1918C135.393 90.0437 134.668 90.0253 134.665 88.6979C134.654 83.327 133.51 78.1761 131.407 73.2436C130.459 71.0195 129.298 68.9191 127.889 66.9638C127.52 66.449 127.085 65.9663 126.613 65.5462C126.309 65.2758 125.864 65.2651 125.502 65.5172C125.086 65.8028 124.773 66.2351 124.978 66.7362C125.218 67.3197 125.573 67.865 125.935 68.3875C130.034 74.2884 131.925 80.9226 132.269 88.0594C132.303 88.7621 132.704 89.7489 131.392 89.8818C129.866 90.036 129.212 89.6771 128.975 88.4275C127.544 80.8676 124.384 74.096 119.887 67.9307C118.801 66.4429 117.69 64.9734 116.663 63.4458C115.948 62.3857 115.342 61.2492 115.132 59.9447C114.754 57.5815 115.603 56.2281 117.916 55.7133C120.255 55.1909 122.495 55.5819 124.607 56.7078C127.343 58.1635 129.435 60.3388 131.23 62.8394C135.175 68.3325 137.013 74.5787 137.634 81.2587C137.71 82.0607 137.757 82.8626 137.796 83.3912Z" fill="#EC2E83"/>
<path fill-rule="evenodd" clip-rule="evenodd" d="M140.508 81.7261C140.994 82.0606 140.771 82.8244 141.326 83.1162C141.443 83.7806 141.127 84.2374 140.59 84.9477C140.386 83.66 140.346 82.6976 140.508 81.7261Z" fill="#EC2E83"/>
<path fill-rule="evenodd" clip-rule="evenodd" d="M162.281 63.3926C162.507 63.4231 162.734 63.4522 162.96 63.4827C162.823 63.8738 162.488 64.1793 162.152 64.0403C161.818 63.9028 161.934 63.5545 162.281 63.3926Z" fill="#EC2E83"/>
</svg>
