<svg width="250" height="375" viewBox="0 0 250 375" fill="none" xmlns="http://www.w3.org/2000/svg">
<path fill-rule="evenodd" clip-rule="evenodd" d="M101.63 100.513C97.9346 98.1839 95.217 94.8263 92.5868 91.3893C91.5137 89.987 90.6033 88.4701 90.2446 86.6982C89.6808 83.9104 91.2017 82.1384 93.9961 82.2728C95.7988 82.3614 97.3664 83.1405 98.8827 84.0219C102.666 86.217 106.425 88.461 110.201 90.6714C110.864 91.0578 111.511 91.5298 112.484 91.6337C112.851 88.7497 113.092 85.9695 113.683 83.2428C114.246 80.6475 114.998 78.1301 115.992 75.6585C118.061 70.5122 121.87 67.6174 127.127 66.5283C128.662 66.209 130.079 65.957 131.399 64.8144C133.101 63.3433 136.06 63.9727 137.514 65.8409C137.966 66.4198 138.486 66.5955 139.079 66.7895C140.058 67.1042 141.064 67.3562 142.012 67.7473C146.426 69.5865 148.669 73.0143 148.992 77.7772C149.317 82.6181 148.859 87.4238 148.314 92.2218C148.059 94.4536 147.837 96.6976 147.445 98.911C147.231 100.116 147.509 100.608 148.689 100.981C152.257 102.114 155.622 103.747 158.762 105.808C171.577 114.211 180.962 125.362 185.577 140.311C186.428 143.067 187.228 145.847 187.936 148.644C188.173 149.579 188.572 150.205 189.358 150.724C192.506 152.8 194.751 155.677 196.303 159.112C199.438 166.055 201.258 173.361 201.726 180.962C202.191 188.49 199.681 195.013 194.624 200.54C190.062 205.525 184.427 208.938 178.429 211.784C172.43 214.628 166.041 216.221 159.597 217.618C150.885 219.504 142.116 220.628 133.167 220.543C124.755 220.462 116.32 220.865 107.935 220.268C96.1093 219.425 84.5245 217.066 73.4325 212.69C68.2354 210.638 63.4318 207.792 59.0788 204.235C53.942 200.04 50.112 194.936 48.6485 188.261C47.8813 184.766 47.818 181.253 48.3365 177.715C49.2257 171.65 50.6275 165.737 53.0301 160.084C55.2669 154.823 58.821 150.891 64.1085 148.745C65.2043 148.3 65.4033 147.562 65.6731 146.598C69.0388 134.593 74.688 123.815 82.7157 114.336C87.7078 108.443 93.5726 103.775 100.892 101.179C101.21 101.066 101.447 100.882 101.63 100.513Z" fill="#020303"/>
<path fill-rule="evenodd" clip-rule="evenodd" d="M68.8069 147.079C70.174 141.848 72.1198 137.117 74.4335 132.533C77.448 126.567 81.076 121.029 85.417 115.952C91.7385 108.555 99.5717 104.009 109.066 102.175C117.647 100.514 126.24 100.413 134.898 101.174C142.197 101.817 149.153 103.707 155.439 107.5C168.21 115.195 177.608 125.839 182.305 140.368C183.094 142.806 183.831 145.265 184.568 147.642C183.954 148.308 183.442 147.891 182.928 147.784C181.219 147.433 179.514 147.057 177.796 146.759C177.018 146.623 176.215 146.601 175.425 146.613C174.438 146.631 173.723 147.097 173.674 148.182C173.627 149.165 174.28 149.607 175.136 149.775C175.603 149.866 176.081 149.902 176.554 149.937C178.539 150.093 180.486 150.488 182.397 151.017C187.246 152.355 190.919 155.224 193.159 159.826C196.216 166.103 197.805 172.809 198.499 179.727C199.398 188.645 195.972 195.738 189.237 201.305C182.867 206.569 175.601 210.093 167.702 212.261C158.189 214.871 148.547 216.689 138.673 217.242C128.352 217.819 118.043 217.842 107.747 217.014C97.8339 216.218 88.1105 214.259 78.6358 211.182C71.7717 208.953 65.4864 205.547 59.9788 200.796C55.561 196.986 52.4379 192.328 51.4808 186.41C50.9502 183.128 51.1055 179.842 51.6707 176.568C52.5736 171.329 53.8337 166.205 55.9197 161.296C58.4881 155.25 62.9933 151.764 69.2937 150.548C70.694 150.279 72.1153 150.12 73.5276 149.911C73.9964 149.844 74.4757 149.807 74.9354 149.692C75.7237 149.495 76.1744 148.973 76.1171 148.128C76.0614 147.302 75.5805 146.788 74.7862 146.662C73.7567 146.497 72.7243 146.608 71.7084 146.801C70.8583 146.963 70.0202 147.181 68.8069 147.079Z" fill="#7D72B4"/>
<path fill-rule="evenodd" clip-rule="evenodd" d="M146.043 81.9708C146.005 86.9552 145.256 91.8754 144.749 96.8247C144.608 98.2102 144.041 98.502 142.779 98.4883C136.964 98.4134 131.286 97.3502 125.612 96.2076C122.656 95.6149 119.753 94.845 116.901 93.8689C116.021 93.568 115.389 93.1983 115.51 92.0099C116.043 86.7291 116.762 81.5018 118.897 76.5724C120.481 72.9154 123.14 70.6974 126.95 69.7533C131.305 68.6734 135.612 68.8979 139.843 70.2208C143.932 71.4993 145.8 74.058 146.034 78.3581C146.098 79.5603 146.043 80.7655 146.043 81.9708Z" fill="#EC2E83"/>
<path fill-rule="evenodd" clip-rule="evenodd" d="M127.382 91.5167C125.501 92.3797 125.234 92.253 124.848 90.3557C124.565 88.9611 124.784 87.4686 123.965 85.8479C123.524 87.5618 122.502 88.8404 123.615 90.4764C124.071 91.1485 123.441 92.0147 122.622 91.9306C121.282 91.7916 119.984 91.341 118.857 90.594C117.989 90.0197 118.245 88.6647 119.244 88.6831C120.762 88.7044 120.878 87.7299 121.116 86.7385C121.51 85.107 121.869 83.4649 122.2 81.8167C122.393 80.8635 122.797 80.1272 123.833 80.0447C124.928 79.9561 125.338 80.7703 125.596 81.6517C126.018 83.109 126.398 84.58 126.836 86.1916C127.748 85.6951 127.748 84.7633 128.039 84.0225C128.184 83.6497 128.305 83.2663 128.407 82.8799C128.624 82.0565 128.989 81.2973 129.916 81.2545C130.908 81.2148 131.135 82.0565 131.373 82.8524C131.901 84.6197 132.223 86.4284 132.439 88.2645C132.554 89.2452 132.526 90.2289 133.79 90.7911C134.689 91.1928 134.388 92.5019 133.319 92.7311C131.72 93.0687 130.059 93.4185 128.479 92.5371C127.444 91.0034 129.424 90.1755 129.29 88.8725C128.654 89.731 128.478 90.9683 127.382 91.5167Z" fill="#040505"/>
<path fill-rule="evenodd" clip-rule="evenodd" d="M127.382 91.5166C128.028 90.1937 128.675 88.8724 129.388 87.4136C130.234 89.5735 130.25 89.5903 128.892 91.0079C128.449 91.4723 128.473 91.9886 128.479 92.537C128.113 92.1948 127.748 91.8542 127.382 91.5166Z" fill="#EC2E83"/>
</svg>
