<svg width="250" height="375" viewBox="0 0 250 375" fill="none" xmlns="http://www.w3.org/2000/svg">
<path fill-rule="evenodd" clip-rule="evenodd" d="M126.262 220.873C109.103 220.788 92.8975 216.986 78.0032 208.224C67.9676 202.322 59.5777 194.629 53.6254 184.474C46.9973 173.159 44.6442 161.039 47.2508 148.083C47.5177 146.76 47.3669 145.901 46.3578 144.967C44.5114 143.247 43.267 141.134 43.0362 138.524C42.7873 135.812 43.813 134.266 46.394 133.529C48.0155 133.074 49.6778 132.851 51.3477 133.079C52.3689 133.217 53.0084 132.913 53.4082 131.953C53.6254 131.443 53.9135 130.947 54.2665 130.518C54.9709 129.652 54.8261 128.852 54.4339 127.869C53.3267 125.131 52.3508 122.34 52.3161 119.324C52.3116 118.846 52.2844 118.369 52.307 117.889C52.479 113.663 55.1489 111.318 59.3635 111.756C61.9866 112.025 64.4861 112.798 66.9479 113.709C67.7338 114 68.5378 114.566 69.3327 113.677C70.2619 112.629 71.98 112.346 71.8684 110.305C71.6994 107.04 71.8684 103.765 72.8413 100.579C74.8626 93.923 79.572 92.271 85.2452 96.2682C86.8743 97.4211 88.3541 98.7666 89.6287 100.303C90.3301 101.151 90.9259 101.295 92.0482 100.974C94.8162 100.179 96.8028 98.9896 97.1663 95.7282C97.4107 93.5271 98.5526 91.5034 99.6628 89.5557C100.498 88.0949 101.474 86.7402 102.711 85.5873C106.238 82.3047 110.542 82.024 114.423 84.8562C117.124 86.8297 119.084 89.4707 120.42 92.4758C121.229 94.2992 122.229 95.129 124.173 94.7194C124.401 94.6708 124.655 94.6663 124.885 94.7012C126.498 94.9333 127.453 94.3022 128.177 92.7671C129.611 89.7377 131.442 86.9238 133.648 84.3814C135.28 82.5019 137.122 80.8848 139.307 79.6788C144.622 76.7465 150.133 77.6901 154.167 82.2379C156.384 84.7303 157.734 87.6914 158.698 90.8451C159.463 93.3693 159.982 95.9694 160.103 98.5967C160.172 100.065 160.777 100.628 162.056 101.107C170.384 104.212 178.017 108.572 184.878 114.255C193.185 121.128 199.703 129.388 203.5 139.582C209.345 155.29 207.561 170.344 199.058 184.62C192.648 195.379 183.506 203.291 172.672 209.294C161.323 215.583 149.129 219.098 136.256 220.38C132.925 220.71 129.602 220.851 126.262 220.873Z" fill="#020302"/>
<path fill-rule="evenodd" clip-rule="evenodd" d="M126.142 217.595C109.217 217.505 93.2762 213.647 78.6534 204.87C70.7145 200.106 63.8904 194.07 58.5656 186.429C45.7681 168.058 46.1904 145.892 59.6577 128.012C67.2813 117.894 77.2053 110.75 88.683 105.74C103.861 99.1183 119.742 96.8944 136.181 98.3947C149.752 99.628 162.474 103.546 174.201 110.542C181.863 115.112 188.496 120.887 193.807 128.128C207.591 146.916 206.846 169.728 193.247 187.708C185.194 198.363 174.591 205.614 162.397 210.63C150.796 215.409 138.679 217.625 126.142 217.595Z" fill="#7D72B4"/>
</svg>
