<svg width="250" height="375" viewBox="0 0 250 375" fill="none" xmlns="http://www.w3.org/2000/svg">
<path fill-rule="evenodd" clip-rule="evenodd" d="M44.8112 179.185C45.0423 168.072 45.719 157.517 47.7883 147.108C49.2686 139.686 51.3017 132.439 54.806 125.654C59.1999 117.136 65.5711 110.788 74.4346 106.977C78.5325 105.216 82.6681 103.577 86.979 102.45C88.2342 102.121 88.5408 101.61 88.491 100.319C88.2916 95.1785 89.568 90.4024 92.4635 86.1051C93.0013 85.309 93.5405 84.4254 94.7187 84.7336C95.7866 85.0115 96.1023 84.3559 96.4089 83.572C96.9255 82.2307 97.5961 80.9679 98.4057 79.7792C100.301 76.9999 102.827 74.9351 105.999 73.8899C107.641 73.3506 108.481 72.4731 108.885 70.884C109.121 69.9687 109.558 69.0987 109.971 68.2422C111.998 64.0461 115.047 60.9859 119.602 59.5736C121.421 59.0087 123.196 58.2928 124.973 57.6236C126.656 56.9922 127.75 55.8473 128.141 54.0423C128.319 53.1904 128.596 52.3506 128.92 51.541C129.922 49.0276 131.78 48.0458 134.435 48.6228C135.686 48.8931 136.868 49.3855 137.982 49.9988C147.615 55.293 153.482 63.4132 155.92 74.0636C156.076 74.7312 156.204 75.2402 156.813 75.5952C159.58 77.2205 161.444 79.6689 162.987 82.4059C163.374 83.0856 163.66 83.7669 164.676 83.8363C165.972 83.9239 166.439 85.1217 166.946 86.0764C169.709 91.2528 170.901 96.7765 170.452 102.639C170.313 104.457 170.322 104.436 172.008 105.145C174.058 106.009 176.109 106.87 178.13 107.809C185.118 111.07 190.436 116.138 194.409 122.731C198.83 130.064 201.224 138.108 202.932 146.391C204.781 155.374 205.538 164.483 205.876 173.638C206.112 180.161 206.357 186.675 205.867 193.197C205.641 196.224 205.154 199.201 204.324 202.116C203.718 204.265 202.812 206.299 201.549 208.155C198.839 212.129 195.098 214.174 190.264 214.167C187.211 214.161 184.272 213.407 181.29 212.933C178.778 212.532 176.287 212.063 173.712 212.149C170.901 212.248 168.428 213.138 166.288 214.976C164.962 216.117 163.651 217.281 162.267 218.346C159.207 220.696 155.888 221.382 152.183 219.937C150.324 219.21 148.526 218.402 146.788 217.423C144.363 216.059 141.95 214.685 139.368 213.618C136.427 212.401 133.799 212.662 131.505 215.038C130.444 216.133 129.147 216.931 127.777 217.582C125.467 218.678 123.307 218.49 121.385 216.703C120.803 216.16 120.206 215.63 119.632 215.083C117.243 212.812 114.562 212.325 111.506 213.609C108.931 214.689 106.511 216.053 104.087 217.42C102.214 218.479 100.265 219.355 98.2366 220.08C94.9588 221.257 91.9757 220.707 89.1949 218.768C88.0862 217.996 86.979 217.18 86.041 216.218C82.2905 212.34 77.7093 211.57 72.6477 212.434C69.743 212.928 66.8475 213.445 63.9428 213.904C56.1548 215.136 50.6069 212.078 47.5119 204.815C45.8398 200.89 45.1903 196.724 44.9502 192.5C44.6873 187.893 44.6299 183.277 44.8112 179.185Z" fill="#020303"/>
<path fill-rule="evenodd" clip-rule="evenodd" d="M202.584 178.829C202.629 184.713 202.878 190.602 202.029 196.456C201.602 199.379 200.952 202.242 199.595 204.894C197.19 209.613 193.787 211.52 188.527 210.887C184.739 210.433 180.989 209.715 177.212 209.181C171.965 208.437 167.276 209.623 163.29 213.262C162.062 214.386 160.755 215.437 159.411 216.423C157.766 217.632 155.923 217.845 153.97 217.215C152.3 216.677 150.715 215.957 149.178 215.111C147.019 213.922 144.832 212.786 142.655 211.631C141.313 210.918 139.897 210.38 138.429 210.037C135.467 209.351 132.747 209.883 130.339 211.786C129.838 212.18 129.312 212.569 128.912 213.05C126.41 216.056 124.146 215.26 122.044 213.102C118.476 209.448 114.37 208.931 109.806 210.886C108.931 211.262 108.069 211.676 107.232 212.12C105.332 213.121 103.436 214.132 101.56 215.177C100.096 215.993 98.5754 216.656 96.9879 217.188C94.9457 217.872 93.0456 217.62 91.3342 216.348C89.9944 215.354 88.7045 214.286 87.4644 213.167C83.5326 209.616 78.9015 208.456 73.7508 209.166C69.89 209.697 66.0549 210.389 62.1957 210.913C57.3863 211.57 53.873 209.626 51.5378 205.398C49.9307 202.486 49.2555 199.313 48.7751 196.08C48.4232 193.718 48.2631 191.34 48.2359 188.95C48.0637 176.126 48.5214 163.338 50.6436 150.665C51.9154 143.043 53.8247 135.591 57.1326 128.546C61.3317 119.601 67.7542 113.014 77.0149 109.28C81.4466 107.493 85.9297 105.91 90.5608 104.721C91.4596 104.489 92.242 104.532 93.0999 104.845C99.3276 107.129 105.835 108.139 112.374 109.056C121.314 110.31 130.286 110.301 139.275 110.053C147.864 109.816 156.396 108.905 164.864 107.429C166.888 107.076 168.704 107.295 170.666 107.957C183.948 112.443 191.977 121.859 196.314 134.844C199.027 142.953 200.61 151.292 201.478 159.778C202.122 166.111 202.522 172.46 202.584 178.829Z" fill="#7D72B4"/>
<path fill-rule="evenodd" clip-rule="evenodd" d="M110.891 72.3502C112.635 67.0771 115.459 63.2179 120.82 61.6606C122.643 61.1304 124.404 60.3797 126.183 59.6909C128.42 58.8209 129.804 57.1896 130.366 54.8529C130.535 54.1581 130.707 53.4603 130.952 52.7911C131.638 50.9468 132.568 50.468 134.47 51.1039C135.526 51.4513 136.553 51.9181 137.514 52.4603C144.208 56.2199 148.949 61.7165 151.849 68.8006C152.472 70.3201 153.309 71.7958 153.348 73.4891C152.664 74.0389 152.103 73.5767 151.525 73.4166C150.605 73.1613 149.683 72.9 148.78 72.6145C147.952 72.3547 147.099 72.2369 146.804 73.2429C146.566 74.0782 147.236 74.5328 147.971 74.7684C149.402 75.2291 150.848 75.6596 152.289 76.1082C156.218 77.3332 158.994 79.8572 160.865 83.6047C159.1 84.2738 157.338 84.2164 155.648 84.4944C148.674 85.6333 141.696 86.7012 134.755 88.0546C124.934 89.9698 115.162 89.5152 105.451 87.2193C103.677 86.7978 101.871 86.4867 100.093 86.0789C98.1355 85.6302 98.1038 85.529 98.8832 83.7497C100.928 79.1035 104.535 76.3952 109.402 75.2473C110.324 75.0282 111.275 74.9074 112.213 74.7564C112.964 74.6355 113.698 74.4165 113.663 73.5027C113.619 72.5632 112.849 72.4544 112.098 72.4302C111.792 72.4197 111.484 72.3895 110.891 72.3502Z" fill="#EC2E83"/>
<path fill-rule="evenodd" clip-rule="evenodd" d="M123.835 106.315C122.337 106.206 120.839 106.079 119.336 105.998C118.446 105.949 118.067 105.56 118.151 104.644C118.503 100.931 119.068 97.2641 120.15 93.6812C120.523 92.4547 121.104 91.7961 122.48 91.8883C124.146 91.9985 125.802 91.7146 127.448 91.4714C128.454 91.3219 128.947 91.5983 128.778 92.7311C128.196 96.7414 128.048 100.776 128.364 104.816C128.454 105.999 128.084 106.38 126.932 106.283C125.909 106.2 124.873 106.268 123.84 106.268C123.84 106.283 123.835 106.298 123.835 106.315Z" fill="#ED2E82"/>
<path fill-rule="evenodd" clip-rule="evenodd" d="M152.885 104.718C150.449 104.79 150.479 104.789 150.387 102.692C150.204 98.7331 149.884 94.7908 149.1 90.8938C148.626 88.5208 148.855 88.6764 150.684 88.4574C156.319 87.7837 155.609 86.8487 156.858 92.7682C157.553 96.0309 157.574 99.3811 157.864 102.694C157.956 103.721 157.448 104.136 156.519 104.251C155.184 104.417 153.852 104.592 152.885 104.718Z" fill="#ED2E82"/>
<path fill-rule="evenodd" clip-rule="evenodd" d="M130.566 99.6255C130.733 97.5728 130.806 95.5049 131.1 93.4703C131.526 90.5173 131.153 91.2197 133.688 90.7016C134.386 90.5581 135.112 90.5551 135.801 90.3905C136.855 90.1367 137.39 90.3739 137.583 91.5596C138.287 95.7844 138.639 100.041 138.964 104.306C139.056 105.544 138.617 105.945 137.39 106.028C135.726 106.139 134.07 106.216 132.407 106.273C131.353 106.309 130.792 106.036 130.78 104.846C130.758 103.106 130.445 101.373 130.566 99.6255Z" fill="#ED2E82"/>
<path fill-rule="evenodd" clip-rule="evenodd" d="M167.106 99.5858V101.015C167.102 102.255 166.546 102.876 165.247 102.965C163.984 103.052 162.731 103.311 161.489 103.566C160.51 103.768 160.195 103.344 160.167 102.45C160.096 100.068 159.976 97.6947 159.682 95.3248C159.394 93.0349 159.051 90.7616 158.39 88.5518C158.143 87.7301 158.353 87.3178 159.175 87.2453C160.519 87.1274 161.867 87.0519 163.209 86.9613C164.282 86.8888 164.483 87.7588 164.78 88.4657C166.261 92.0214 166.974 95.7477 167.106 99.5858Z" fill="#ED2E82"/>
<path fill-rule="evenodd" clip-rule="evenodd" d="M141.512 105.591C141.352 103.761 141.174 101.97 141.032 100.173C140.808 97.2513 140.508 94.3421 140.014 91.4496C139.733 89.8198 139.822 89.7639 141.508 89.5494C142.526 89.4165 143.554 89.3228 144.568 89.1552C145.675 88.9679 146.329 89.2337 146.578 90.4768C147.441 94.8406 147.85 99.2436 147.997 103.683C148.033 104.725 147.557 105.088 146.615 105.157C144.964 105.276 143.317 105.434 141.512 105.591Z" fill="#ED2E82"/>
<path fill-rule="evenodd" clip-rule="evenodd" d="M118.062 92.0245C116.865 96.21 116.038 100.166 115.817 104.226C115.754 105.3 115.388 105.794 114.166 105.54C112.613 105.218 111.026 105.034 109.437 104.91C108.346 104.827 107.886 104.459 108.001 103.294C108.343 99.6358 109.02 96.0605 110.352 92.6211C110.692 91.7572 111.141 91.3569 112.124 91.4762C114.009 91.7043 115.905 91.8312 118.062 92.0245Z" fill="#ED2E82"/>
<path fill-rule="evenodd" clip-rule="evenodd" d="M108.322 91.2203C106.702 95.14 105.888 99.0959 105.607 103.159C105.536 104.127 105.136 104.404 104.242 104.216C102.997 103.96 101.745 103.718 100.491 103.523C99.5534 103.375 99.0867 102.99 99.2558 101.94C99.857 98.244 100.612 94.5993 102.293 91.2083C102.698 90.385 103.21 89.9863 104.171 90.2612C105.456 90.6313 106.875 90.4394 108.322 91.2203Z" fill="#EC2E83"/>
<path fill-rule="evenodd" clip-rule="evenodd" d="M100.181 89.8016C98.4726 93.5431 97.45 97.5156 96.8413 101.601C96.7779 102.018 96.6147 102.331 96.1027 102.355C93.7192 102.459 92.0863 100.843 92.2585 98.4249C92.464 95.5641 92.8386 92.7304 94.0167 90.069C94.9109 88.0601 94.8973 88.0495 96.9395 88.6401C97.8548 88.9044 98.7702 89.1748 99.678 89.4572C99.8215 89.5026 99.9363 89.6309 100.181 89.8016Z" fill="#EC2982"/>
<path fill-rule="evenodd" clip-rule="evenodd" d="M129.761 86.8026C125.033 86.8238 121.604 84.3798 120.42 79.8832C120.091 78.6401 119.508 78.2352 118.397 77.9679C117.648 77.7897 116.296 77.7534 116.63 76.539C116.967 75.2898 118.101 76.0149 118.863 76.2188C125.193 77.906 131.554 78.2307 137.955 76.6402C139.177 76.3366 140.352 75.8215 141.539 75.388C141.989 75.2249 142.402 74.9711 142.857 74.8352C143.261 74.7143 143.639 74.8412 143.856 75.2536C144.088 75.6871 143.875 76.0375 143.594 76.32C143.382 76.5375 143.091 76.7505 142.802 76.823C140.672 77.3531 139.737 78.7987 138.978 80.8166C137.562 84.5687 133.834 86.783 129.761 86.8026Z" fill="#040505"/>
<path fill-rule="evenodd" clip-rule="evenodd" d="M129.948 84.7978C130.161 83.9626 130.476 83.162 130.556 82.3373C130.637 81.4899 130.495 80.6184 130.44 79.6335C132.762 79.3556 135.073 79.0807 137.399 78.8013C137.269 82.1228 134.008 84.7525 129.948 84.7978Z" fill="#EC2981"/>
</svg>
