<svg width="250" height="375" viewBox="0 0 250 375" fill="none" xmlns="http://www.w3.org/2000/svg">
<path fill-rule="evenodd" clip-rule="evenodd" d="M179.891 107.797C177.812 110.136 176.362 112.399 174.88 114.638C174.426 115.331 174.642 115.778 175.087 116.31C181.823 124.358 185.386 133.877 187.847 143.899C188.106 144.951 188.597 145.719 189.535 146.328C192.043 147.955 194.049 150.113 195.395 152.779C199.568 161.052 201.857 169.804 201.633 179.109C201.511 184.258 199.666 188.856 196.563 192.953C194.091 196.213 191.06 198.859 187.701 201.173C179.857 206.576 171.079 209.645 161.864 211.659C152.389 213.731 142.867 215.161 133.108 215.034C124.778 214.927 116.421 215.334 108.115 214.766C96.2855 213.957 84.7076 211.629 73.5985 207.352C68.6897 205.462 64.1411 202.85 59.9648 199.654C54.7471 195.66 50.6974 190.804 48.9084 184.297C47.9197 180.708 47.8022 177.063 48.2483 173.438C48.9958 167.365 50.4668 161.452 52.8451 155.781C55.0968 150.416 58.6808 146.373 64.1472 144.189C65.0183 143.841 65.3634 143.304 65.5699 142.501C67.6829 134.284 71.2941 126.728 75.7944 119.585C76.45 118.543 76.3731 117.779 75.811 116.791C70.1999 106.905 64.3084 97.2239 56.0809 89.2025C54.0327 87.2063 52.1759 85.0322 50.497 82.712C49.5625 81.4208 48.7487 80.0633 48.393 78.4783C47.87 76.1445 48.7351 74.201 50.8617 73.1117C52.1458 72.4488 53.5369 72.161 54.9822 72.0586C59.3484 71.7572 63.5066 72.6401 67.5413 74.2191C72.1486 76.0255 76.4093 78.4648 80.355 81.4343C86.5207 86.0793 92.3383 91.1099 97.235 97.1169C97.9434 97.9877 98.4799 98.2047 99.5952 97.8009C109.365 94.2739 119.459 93.2539 129.8 93.7993C136.498 94.1533 143.06 94.9925 149.376 97.3353C149.747 97.4725 150.119 97.605 150.488 97.7482C153.572 98.9279 153.559 98.9143 155.881 96.3636C160.118 91.7051 164.726 87.4729 170.148 84.2065C173.227 82.3519 176.491 80.9763 180.099 80.4701C184.75 79.8237 188.733 81.1179 192.049 84.419C195.399 87.7517 197.084 91.922 197.637 96.5052C198.353 102.455 197.496 108.213 194.887 113.663C194.058 115.392 193.045 116.998 191.631 118.317C188.475 121.259 185.334 120.76 183.27 116.998C182.31 115.251 181.775 113.334 181.131 111.462C180.745 110.344 180.373 109.226 179.891 107.797Z" fill="#020302"/>
<path fill-rule="evenodd" clip-rule="evenodd" d="M184.578 143.617C182.124 143.142 180.111 142.735 178.093 142.366C177.392 142.238 176.677 142.148 175.967 142.133C174.539 142.097 173.725 142.627 173.601 143.585C173.476 144.552 174.174 145.155 175.666 145.358C177 145.542 178.34 145.7 179.672 145.904C186.597 146.963 191.446 150.647 194.107 157.197C196.484 163.046 198.02 169.113 198.558 175.38C199.134 182.113 197.099 188.074 192.413 193.034C186.831 198.946 179.916 202.79 172.338 205.398C162.242 208.873 151.797 210.806 141.155 211.658C132.358 212.361 123.544 212.324 114.735 212.027C102.538 211.617 90.5967 209.575 78.9449 205.938C72.5999 203.959 66.7702 200.923 61.5103 196.866C56.6769 193.135 53.013 188.56 51.6521 182.431C50.7357 178.311 51.1291 174.23 51.9309 170.152C52.8819 165.318 54.0951 160.574 56.172 156.074C58.5638 150.891 62.4884 147.645 68.0407 146.338C69.8192 145.919 71.6036 145.557 73.4273 145.402C73.9005 145.36 74.3813 145.337 74.841 145.235C75.6081 145.063 76.1808 144.591 76.1643 143.775C76.1477 142.881 75.5825 142.246 74.6963 142.182C73.7558 142.115 72.7943 142.205 71.8553 142.33C70.9254 142.454 70.0121 142.702 69.0129 142.643C68.8727 141.385 69.3896 140.377 69.7363 139.37C73.1017 129.599 78.0452 120.731 84.66 112.753C91.6909 104.269 100.657 99.5266 111.462 97.8587C120.568 96.4515 129.668 96.4786 138.736 97.8195C147.366 99.0911 155.2 102.46 162.031 107.947C168.385 113.059 173.996 118.845 177.972 126.063C180.971 131.506 182.876 137.342 184.578 143.617Z" fill="#7D72B4"/>
<path fill-rule="evenodd" clip-rule="evenodd" d="M156.57 100.445C157.267 99.234 158.216 98.3827 159.068 97.4607C162.522 93.7197 166.291 90.3343 170.572 87.5561C173.176 85.8656 175.927 84.4855 178.988 83.794C184.338 82.5796 188.751 84.2957 191.738 88.8789C193.921 92.2281 194.834 95.9721 194.837 99.9346C194.841 104.438 193.955 108.751 191.91 112.792C191.191 114.213 190.338 115.561 189.042 116.533C187.887 117.402 187.063 117.256 186.249 116.053C185.399 114.793 184.884 113.356 184.493 111.909C182.697 105.22 179.28 99.362 175.316 93.7769C174.906 93.1954 174.463 92.6289 173.949 92.1438C173.383 91.6119 172.685 91.4658 172.013 92.0067C171.342 92.5385 171.369 93.227 171.696 93.9366C171.955 94.4956 172.695 94.8903 172.513 95.5744C172.326 96.278 171.592 96.6305 171.077 97.1126C168.751 99.2792 166.646 101.652 164.627 104.097C163.943 104.928 163.464 105.113 162.51 104.408C160.615 103.014 158.597 101.785 156.57 100.445Z" fill="#EC2E83"/>
<path fill-rule="evenodd" clip-rule="evenodd" d="M95.2123 99.5312C93.6946 100.747 93.6796 100.759 92.6381 99.5312C88.7738 94.9706 84.4604 90.9058 79.5124 87.5339C76.162 85.2498 72.6368 83.2882 68.7755 81.9865C67.4191 81.536 66.034 81.1413 64.5871 81.2874C62.6821 81.4863 61.8019 82.782 62.3264 84.6321C62.9022 86.6555 64.1245 88.3369 65.4568 89.9114C67.9662 92.8764 70.5554 95.7737 73.0829 98.7192C75.9751 102.091 78.7106 105.579 81.2908 109.199C82.0534 110.268 82.2855 111.04 81.2516 112.06C80.3142 112.988 79.5546 114.093 78.7196 115.113C77.9043 114.643 77.6933 113.929 77.3572 113.338C71.6662 103.302 65.2985 93.7774 56.9474 85.7018C55.4101 84.2163 54.0673 82.5334 52.851 80.7631C52.4049 80.1152 51.9814 79.4282 51.683 78.705C50.955 76.9302 51.4011 76.0217 53.2353 75.4884C56.1517 74.6401 59.062 75.0575 61.9391 75.6978C66.0792 76.6199 69.9074 78.363 73.4944 80.5733C81.3782 85.4367 88.293 91.4572 94.3713 98.4389C94.6743 98.7854 94.9335 99.1681 95.2123 99.5312Z" fill="#EC2E83"/>
</svg>
