<svg width="250" height="375" viewBox="0 0 250 375" fill="none" xmlns="http://www.w3.org/2000/svg">
<path fill-rule="evenodd" clip-rule="evenodd" d="M162.52 177.922C163.458 178.298 164.201 178.532 164.887 178.881C167.388 180.158 169.096 182.083 169.636 184.914C170.495 189.42 167.557 192.575 162.955 192.161C160.71 191.959 158.644 191.225 156.851 189.95C154.625 188.367 152.863 188.347 150.459 190.007C144.434 194.167 137.514 196.212 130.279 196.986C117.947 198.306 106.305 196.052 95.5501 189.735C89.4463 186.151 84.353 181.484 80.7067 175.368C80.0466 174.258 79.4696 174.135 78.3247 174.599C76.0983 175.496 73.8779 175.283 71.8115 173.999C71.2799 173.672 70.7648 173.288 70.5171 172.681C70.3283 172.22 70.3645 171.737 70.7301 171.376C71.0729 171.04 71.5079 170.806 72.0019 171.024C72.3568 171.178 72.6816 171.403 73.0109 171.611C75.047 172.904 77.0363 172.643 78.9319 171.345C80.9272 169.975 81.7943 167.689 81.2716 165.411C81.2022 165.107 81.0964 164.811 80.9982 164.514C80.7369 163.716 80.9862 163.104 81.7656 162.832C82.5752 162.545 83.1522 162.994 83.4618 163.698C84.5146 166.091 84.3968 168.513 82.977 170.648C82.0782 172 82.2383 172.939 83.0313 174.191C86.5326 179.733 91.1259 184.162 96.8053 187.353C112.052 195.919 127.841 197.196 144.128 190.494C144.705 190.258 145.243 189.921 145.82 189.689C146.559 189.394 146.876 188.935 146.899 188.098C146.988 184.881 148.951 182.982 151.663 181.721C152.521 181.321 153.298 180.952 153.925 180.168C154.999 178.827 156.57 178.217 158.221 177.993C159.195 177.862 159.732 177.427 160.185 176.612C161.407 174.412 162.351 172.113 162.967 169.672C163.191 168.784 163.047 168.306 162.118 167.868C159.863 166.808 158.396 165.057 158.17 162.462C158.123 161.916 158.103 161.36 158.346 160.848C158.562 160.395 158.954 160.115 159.446 160.092C159.949 160.071 160.354 160.339 160.565 160.798C160.694 161.076 160.772 161.396 160.783 161.701C160.866 163.999 162.168 165.278 164.277 165.825C166.512 166.406 168.452 165.87 169.994 164.101C170.302 163.749 170.541 163.328 170.885 163.021C171.335 162.615 171.9 162.6 172.401 162.932C172.827 163.215 172.926 163.678 172.871 164.177C172.799 164.832 172.433 165.341 172.039 165.826C170.8 167.347 169.21 168.303 167.266 168.536C166.249 168.657 165.817 169.072 165.601 170.092C165.032 172.774 163.946 175.283 162.52 177.922Z" fill="#020302"/>
<path fill-rule="evenodd" clip-rule="evenodd" d="M145.661 163.969C145.559 176.689 135.237 186.894 122.555 186.808C109.846 186.722 99.5051 176.378 99.5519 163.791C99.5987 150.991 109.998 140.639 122.72 140.723C135.569 140.812 145.763 151.141 145.661 163.969Z" fill="#020302"/>
<path fill-rule="evenodd" clip-rule="evenodd" d="M148.554 134.915C150.081 133.404 151.392 131.737 153.051 130.429C154.032 129.654 155.011 128.874 156.206 128.441C158.34 127.666 159.876 128.405 160.61 130.561C161.049 131.847 161.082 133.178 160.996 134.505C160.857 136.691 160.558 138.861 160.018 140.985C159.787 141.896 159.89 142.394 160.864 142.76C162.109 143.23 163.221 143.991 164.08 145.042C164.501 145.557 164.77 146.198 164.142 146.695C163.627 147.103 163.153 146.736 162.722 146.332C159.278 143.098 155.337 143.064 151.167 144.574C150.876 144.68 150.607 144.847 150.317 144.961C149.791 145.171 149.194 145.341 148.861 144.748C148.545 144.189 148.82 143.653 149.376 143.384C150.208 142.979 150.153 142.358 149.977 141.615C149.303 138.745 148.075 136.319 145.057 135.274C144.495 135.081 143.982 134.771 144.22 134.11C144.482 133.383 145.102 133.401 145.784 133.563C146.793 133.803 147.595 134.454 148.554 134.915Z" fill="#070807"/>
<path fill-rule="evenodd" clip-rule="evenodd" d="M91.2873 125.497C92.405 125.596 93.3279 125.968 94.207 126.519C96.151 127.734 97.7702 129.317 99.2339 131.045C100.046 132.004 100.71 132.603 101.844 131.504C102.157 131.2 102.673 131.069 103.12 130.954C103.717 130.803 104.431 130.611 104.72 131.4C105.005 132.18 104.436 132.519 103.792 132.729C101.314 133.54 100.108 135.475 99.3532 137.79C98.9665 138.973 98.5118 140.18 99.9815 141.045C100.32 141.245 100.429 141.68 100.181 142.079C99.8139 142.666 99.3275 142.643 98.7701 142.359C96.9999 141.459 95.1314 140.997 93.1331 141.035C90.6363 141.083 88.3403 141.641 86.5006 143.465C86.3344 143.63 86.1773 143.811 85.987 143.941C85.5686 144.229 85.1064 144.329 84.7243 143.917C84.3466 143.509 84.4826 143.038 84.7666 142.642C85.4644 141.668 86.4175 140.999 87.4597 140.438C89.1922 139.505 89.153 139.511 88.798 137.506C88.2814 134.59 87.6712 131.668 88.227 128.682C88.6152 126.599 89.733 125.495 91.2873 125.497Z" fill="#070807"/>
<path fill-rule="evenodd" clip-rule="evenodd" d="M148.666 188.079C148.923 185.829 149.971 184.759 151.302 183.901C154.644 181.746 159.405 182.103 162.449 184.664C163.012 185.14 163.576 186.451 164.441 185.345C165.123 184.478 164.029 183.829 163.441 183.288C162.212 182.163 160.73 181.471 159.097 181.118C158.271 180.938 157.442 180.767 156.48 180.565C160.878 178.272 166.419 180.313 167.795 184.589C168.929 188.114 166.931 190.726 163.235 190.508C161.57 190.412 160.041 189.824 158.588 189.039C157.285 188.333 156.021 187.548 154.687 186.912C151.969 185.613 151.059 185.771 148.666 188.079Z" fill="#EC2E83"/>
<path fill-rule="evenodd" clip-rule="evenodd" d="M122.453 184.041C111.285 184.035 102.315 174.943 102.332 163.643C102.349 152.526 111.486 143.494 122.726 143.481C134.043 143.471 142.905 152.514 142.918 164.024C142.932 175.177 133.445 184.361 122.453 184.041Z" fill="#FEFEFE"/>
<path fill-rule="evenodd" clip-rule="evenodd" d="M150.093 136.325C153.273 136.848 155.824 137.914 157.697 140.271C158.425 141.186 158.138 141.817 157.053 141.786C155.723 141.748 154.417 141.811 153.118 142.089C152.538 142.212 151.949 142.163 151.854 141.456C151.626 139.758 150.697 138.299 150.093 136.325Z" fill="#EC2980"/>
<path fill-rule="evenodd" clip-rule="evenodd" d="M158.406 138.62C156.247 136.889 154.118 135.666 151.659 135.081C152.654 132.998 153.433 132.69 155.513 133.429C158.466 134.477 159.164 135.629 158.406 138.62Z" fill="#EC2480"/>
<path fill-rule="evenodd" clip-rule="evenodd" d="M159.036 133.72C158.114 133.2 157.516 132.841 156.897 132.522C156.285 132.206 155.652 131.933 154.894 131.58C155.808 130.584 156.844 129.717 157.968 130.207C159.255 130.767 159.194 132.205 159.036 133.72Z" fill="#DC1F75"/>
<path fill-rule="evenodd" clip-rule="evenodd" d="M99.1665 133.868C98.1907 135.519 97.4763 136.984 97.2059 138.606C97.0926 139.281 96.7135 139.506 96.0655 139.434C94.6759 139.274 93.2908 139.133 91.8815 139.231C90.9556 139.295 90.9208 138.624 91.1202 137.961C91.2048 137.68 91.4435 137.437 91.6398 137.198C93.1186 135.401 96.1863 133.979 99.1665 133.868Z" fill="#EC297F"/>
<path fill-rule="evenodd" clip-rule="evenodd" d="M97.7126 132.362C94.9167 133.022 92.7281 134.275 90.7131 135.899C89.7509 133.422 89.8642 132.955 91.7206 131.735C92.2372 131.395 92.7885 131.096 93.361 130.865C95.4016 130.04 95.9348 130.211 97.7126 132.362Z" fill="#EC247E"/>
<path fill-rule="evenodd" clip-rule="evenodd" d="M90.0949 130.799C90.0768 129.586 89.7128 128.213 90.977 127.635C92.0782 127.129 93.0313 127.904 93.9648 128.759C92.8591 129.778 91.403 130.055 90.0949 130.799Z" fill="#E9257C"/>
<path fill-rule="evenodd" clip-rule="evenodd" d="M117.777 162.901C117.87 156.74 122.955 151.748 129.079 151.807C135.426 151.867 140.483 157.104 140.335 163.46C140.194 169.521 134.936 174.569 128.881 174.459C122.638 174.347 117.684 169.189 117.777 162.901Z" fill="#020302"/>
<path fill-rule="evenodd" clip-rule="evenodd" d="M122.147 220.571C107.957 220.462 91.8324 216.653 76.9999 207.9C67.9595 202.566 60.118 195.803 54.3907 186.87C42.1715 167.806 41.8624 148.429 53.5492 128.99C57.8983 121.754 63.7628 115.887 70.4764 110.877C72.5785 109.309 72.5529 109.319 71.915 106.847C70.7071 102.182 69.564 97.4983 69.3635 92.6468C69.282 90.7144 69.282 88.779 69.9621 86.9291C70.9348 84.2818 73.0083 83.2752 75.6593 84.1184C77.4448 84.6866 78.8969 85.7957 80.2752 87.0177C83.6441 90.001 86.3856 93.548 89.0397 97.1683C89.4664 97.7488 89.9052 98.3232 90.2898 98.9296C90.6924 99.5666 91.0996 99.7087 91.8641 99.4291C96.7213 97.6602 101.672 96.2121 106.769 95.3536C107.92 95.1596 108.063 94.3591 108.286 93.5007C109.438 89.0723 110.747 84.6912 112.353 80.4095C113.65 76.9511 115.08 73.5538 117.031 70.4086C118.052 68.768 119.178 67.2175 120.638 65.945C123.963 63.0442 127.394 63.3986 130.089 66.9379C131.361 68.6091 132.203 70.5109 132.913 72.483C134.637 77.2673 135.534 82.2395 136.178 87.2667C136.413 89.0998 136.621 90.9389 136.749 92.7827C136.819 93.768 137.232 94.2171 138.183 94.3194C143.246 94.8632 148.211 95.9173 153.099 97.3455C154.099 97.6373 154.676 97.4021 155.275 96.5374C157.192 93.7726 159.265 91.1268 161.503 88.6171C163.208 86.703 164.983 84.8547 167.107 83.4096C171.644 80.3224 175.004 81.9706 175.372 87.4637C175.682 92.1014 174.666 96.5756 173.695 101.054C173.377 102.521 172.274 104.155 172.858 105.376C173.386 106.479 175.132 106.977 176.332 107.754C183.217 112.209 189.279 117.592 194.277 124.163C209.404 144.058 209.511 169.165 194.52 189.164C186.185 200.286 175.271 207.95 162.638 213.225C150.6 218.252 138.033 220.58 122.147 220.571Z" fill="#040505"/>
<path fill-rule="evenodd" clip-rule="evenodd" d="M125.81 217.412C108.12 217.195 92.1471 213.396 77.5318 204.515C69.6782 199.741 62.9073 193.729 57.5781 186.133C44.9231 168.092 45.0271 145.97 57.8948 128.063C65.9851 116.806 76.8079 109.139 89.4041 103.924C103.629 98.0354 118.446 95.9549 133.74 97.183C148.476 98.3669 162.241 102.629 174.794 110.63C182.062 115.262 188.337 121.018 193.306 128.148C206.107 146.517 205.717 168.995 192.285 187.014C184.263 197.777 173.696 205.137 161.513 210.226C151.592 214.369 141.243 216.68 130.51 217.172C128.686 217.255 126.862 217.359 125.81 217.412Z" fill="#7D72B4"/>
<path fill-rule="evenodd" clip-rule="evenodd" d="M133.082 86.6962C126.432 84.8157 119.955 85.1823 113.278 87.0979C113.72 84.4002 114.726 82.1654 115.632 79.9046C115.863 79.3287 116.409 79.147 116.947 78.9698C121.641 77.4269 126.304 77.5812 130.94 79.2249C131.458 79.4097 132.028 79.6266 132.147 80.2682C132.535 82.3564 133.152 84.417 133.082 86.6962Z" fill="#EC2E83"/>
<path fill-rule="evenodd" clip-rule="evenodd" d="M111.18 94.2951C112.217 88.7791 111.859 89.6269 116.295 88.495C121.36 87.2012 126.487 87.0912 131.58 88.4874C132.323 88.692 133.353 88.7257 133.56 89.5979C133.849 90.8276 133.895 92.1321 133.92 93.4061C133.928 93.8812 133.367 93.8735 132.969 93.846C131.86 93.7712 130.757 93.6627 129.648 93.6138C124.168 93.371 118.709 93.6551 113.268 94.3455C112.582 94.4341 111.866 94.6847 111.18 94.2951Z" fill="#EC2E83"/>
<path fill-rule="evenodd" clip-rule="evenodd" d="M117.006 76.6492C118.419 73.5391 119.817 70.8475 121.946 68.6402C124.33 66.1671 126.221 66.3443 128.162 69.1748C128.702 69.9615 129.142 70.8261 129.547 71.6953C130.29 73.2931 130.881 74.9505 131.336 77.0784C126.594 75.6028 121.942 75.4653 117.006 76.6492Z" fill="#EC2E83"/>
<path fill-rule="evenodd" clip-rule="evenodd" d="M84.5847 96.1389C82.4902 96.8828 80.572 97.5962 78.7835 98.6334C77.0674 99.6278 75.5383 100.883 73.9157 102.254C73.0879 100.679 73.0064 99.0901 72.741 97.5519C72.6189 96.8293 73.0351 96.3436 73.5101 95.8945C75.4675 94.0446 77.7566 92.8699 80.3895 92.3521C80.9852 92.2329 81.4813 92.2436 81.899 92.7202C82.834 93.7849 83.8338 94.8038 84.5847 96.1389Z" fill="#EC2E83"/>
<path fill-rule="evenodd" clip-rule="evenodd" d="M157.556 98.7643C157.628 98.3335 157.619 98.2404 157.658 98.1777C159.457 95.2815 159.573 95.2143 162.817 95.9628C165.159 96.505 167.326 97.4812 169.306 98.8667C171.036 100.076 171.037 100.08 170.503 102.188C170.387 102.652 170.233 103.106 170.135 103.434C169.985 103.597 169.938 103.668 169.876 103.712C169.819 103.752 169.727 103.802 169.68 103.781C165.708 101.977 161.731 100.19 157.556 98.7643Z" fill="#EC2E83"/>
<path fill-rule="evenodd" clip-rule="evenodd" d="M87.9968 100.96C83.5528 102.911 79.3802 105.019 75.4127 107.523C74.1385 105.236 74.155 104.941 75.856 103.342C77.9733 101.347 80.4177 99.8696 83.126 98.8553C86.1616 97.7188 86.2566 97.7692 87.9968 100.96Z" fill="#EC2E83"/>
<path fill-rule="evenodd" clip-rule="evenodd" d="M161.471 93.4076C161.508 93.2319 161.502 93.1341 161.545 93.0776C163.96 89.8606 163.645 89.5704 167.92 91.2491C168.576 91.5073 169.193 91.8846 169.795 92.2634C172.401 93.9025 172.547 94.4158 171.316 97.6099C169.728 96.7468 168.269 95.6378 166.569 95.0375C164.883 94.4433 163.166 93.9453 161.471 93.4076Z" fill="#EC2E83"/>
<path fill-rule="evenodd" clip-rule="evenodd" d="M79.6197 90.306C76.7938 91.1156 74.5951 92.3132 72.3799 93.966C72.0526 92.0963 72.0994 90.5091 72.3603 88.951C72.7343 86.7162 73.7371 86.235 75.6929 87.2661C76.3233 87.5976 76.9174 88.0116 77.4829 88.4485C78.1057 88.9296 78.6757 89.478 79.6197 90.306Z" fill="#EC2E83"/>
<path fill-rule="evenodd" clip-rule="evenodd" d="M165.889 88.316C167.253 86.7167 168.55 85.7008 170.081 85.0425C171.351 84.4971 172.038 84.8378 172.332 86.2141C172.678 87.8348 172.925 89.4923 172.373 91.3284C170.298 90.2071 168.412 88.9729 165.889 88.316Z" fill="#EC2E83"/>
</svg>
