<svg width="160" height="85" viewBox="0 0 160 85" fill="none" xmlns="http://www.w3.org/2000/svg">
<mask id="path-1-outside-1_16_524" maskUnits="userSpaceOnUse" x="0" y="0" width="160" height="35" fill="black">
<rect fill="white" width="160" height="35"/>
<path d="M13.176 31.8C11.384 31.8 9.69867 31.3947 8.12 30.584C6.584 29.7733 5.34667 28.6 4.408 27.064C3.46933 25.528 3 23.6933 3 21.56C3.04267 18.616 4.00267 16.2907 5.88 14.584C7.75733 12.8347 10.1893 11.96 13.176 11.96C14.328 11.96 15.4587 12.088 16.568 12.344C17.6773 12.6 18.6373 13.0693 19.448 13.752C20.088 14.264 20.408 14.9253 20.408 15.736C20.408 16.4187 20.152 17.0373 19.64 17.592C19.1707 18.1467 18.5733 18.424 17.848 18.424C17.3787 18.424 16.952 18.296 16.568 18.04C15.928 17.6987 15.352 17.464 14.84 17.336C14.3707 17.208 13.8373 17.144 13.24 17.144C11.832 17.144 10.68 17.5493 9.784 18.36C8.888 19.1707 8.44 20.2587 8.44 21.624C8.44 23.2027 8.93067 24.44 9.912 25.336C10.8933 26.1893 12.0453 26.616 13.368 26.616C14.8613 26.616 16.2693 26.0613 17.592 24.952C18.104 24.568 18.5947 24.376 19.064 24.376C19.7467 24.376 20.3227 24.6533 20.792 25.208C21.304 25.7627 21.56 26.4027 21.56 27.128C21.56 27.4267 21.496 27.768 21.368 28.152C21.24 28.4933 21.0053 28.8347 20.664 29.176C19.512 30.1147 18.2747 30.776 16.952 31.16C15.672 31.5867 14.4133 31.8 13.176 31.8Z"/>
<path d="M28.9565 31.8C28.1458 31.8 27.4632 31.5653 26.9085 31.096C26.3538 30.6267 26.0765 30.0293 26.0765 29.304V5.496C26.0765 4.81333 26.3325 4.23733 26.8445 3.768C27.3992 3.256 28.1032 3 28.9565 3C29.7672 3 30.4285 3.256 30.9405 3.768C31.4525 4.23733 31.7085 4.83467 31.7085 5.56V29.24C31.7085 29.9653 31.4312 30.584 30.8765 31.096C30.3645 31.5653 29.7245 31.8 28.9565 31.8Z"/>
<path d="M46.1275 31.8C43.2688 31.8 40.9435 30.904 39.1515 29.112C37.4022 27.2773 36.5275 24.8453 36.5275 21.816C36.5275 18.7867 37.3808 16.3973 39.0875 14.648C40.8368 12.856 43.1195 11.96 45.9355 11.96C47.9408 11.96 49.6902 12.664 51.1835 14.072C51.3542 13.56 51.6742 13.1333 52.1435 12.792C52.6128 12.4507 53.1675 12.28 53.8075 12.28C54.6608 12.28 55.3435 12.536 55.8555 13.048C56.4102 13.5173 56.6875 14.0933 56.6875 14.776V29.304C56.6875 30.0293 56.4102 30.6267 55.8555 31.096C55.3435 31.5653 54.6608 31.8 53.8075 31.8C52.3995 31.8 51.5248 31.1813 51.1835 29.944C49.8182 31.1813 48.1328 31.8 46.1275 31.8ZM46.5755 26.616C47.9408 26.616 49.0288 26.168 49.8395 25.272C50.6502 24.3333 51.0555 23.1813 51.0555 21.816C51.0555 20.408 50.6502 19.2773 49.8395 18.424C49.0288 17.5707 47.9408 17.144 46.5755 17.144C45.2528 17.144 44.1648 17.5707 43.3115 18.424C42.5008 19.2773 42.0955 20.408 42.0955 21.816C42.0955 23.1813 42.5008 24.3333 43.3115 25.272C44.1648 26.168 45.2528 26.616 46.5755 26.616Z"/>
<path d="M69.071 31.8C66.1697 31.8 63.7803 31.2027 61.903 30.008C61.519 29.752 61.2417 29.4533 61.071 29.112C60.9003 28.728 60.815 28.3653 60.815 28.024C60.815 27.2987 61.0497 26.6373 61.519 26.04C62.031 25.4427 62.6497 25.144 63.375 25.144C63.7163 25.144 64.0577 25.2293 64.399 25.4C65.167 25.7413 66.0417 26.04 67.023 26.296C68.0043 26.5093 68.9003 26.616 69.711 26.616C71.2897 26.616 72.079 26.2533 72.079 25.528C72.079 25.1013 71.887 24.7387 71.503 24.44C71.119 24.0987 70.223 23.864 68.815 23.736C68.2603 23.6933 67.535 23.608 66.639 23.48C65.7857 23.352 64.9323 23.1173 64.079 22.776C63.2257 22.392 62.5003 21.8373 61.903 21.112C61.3483 20.3867 61.071 19.4053 61.071 18.168C61.071 16.248 61.7963 14.7333 63.247 13.624C64.6977 12.5147 66.639 11.96 69.071 11.96C70.479 11.96 71.8017 12.1093 73.039 12.408C74.319 12.7067 75.279 13.1547 75.919 13.752C76.5163 14.3067 76.815 14.9467 76.815 15.672C76.815 16.312 76.5803 16.888 76.111 17.4C75.6417 17.912 75.0443 18.168 74.319 18.168C73.935 18.168 73.5723 18.0827 73.231 17.912C72.719 17.5707 72.0577 17.3147 71.247 17.144C70.479 16.9733 69.6897 16.888 68.879 16.888C67.2577 16.888 66.447 17.2293 66.447 17.912C66.447 18.2107 66.5963 18.488 66.895 18.744C67.2363 18.9573 67.983 19.1493 69.135 19.32C69.8603 19.4053 70.6923 19.5333 71.631 19.704C72.5697 19.832 73.4657 20.088 74.319 20.472C75.215 20.8133 75.9617 21.3893 76.559 22.2C77.1563 23.0107 77.455 24.12 77.455 25.528C77.455 27.448 76.687 28.984 75.151 30.136C73.615 31.2453 71.5883 31.8 69.071 31.8Z"/>
<path d="M84.7775 31.8C83.9668 31.8 83.2842 31.5653 82.7295 31.096C82.1748 30.6267 81.8975 30.0293 81.8975 29.304V5.496C81.8975 4.81333 82.1535 4.23733 82.6655 3.768C83.2202 3.256 83.9242 3 84.7775 3C85.5882 3 86.2495 3.256 86.7615 3.768C87.2735 4.23733 87.5295 4.83467 87.5295 5.56V14.072C88.0842 13.432 88.8308 12.92 89.7695 12.536C90.7082 12.152 91.7108 11.96 92.7775 11.96C95.1668 11.96 97.0868 12.664 98.5375 14.072C100.031 15.48 100.778 17.72 100.778 20.792V29.432C100.778 30.1147 100.5 30.6907 99.9455 31.16C99.4335 31.5867 98.7722 31.8 97.9615 31.8C97.1508 31.8 96.4682 31.5653 95.9135 31.096C95.4015 30.6267 95.1455 30.0293 95.1455 29.304V21.496C95.1455 19.9173 94.7828 18.7867 94.0575 18.104C93.3748 17.4213 92.5215 17.08 91.4975 17.08C90.4308 17.08 89.5562 17.4427 88.8735 18.168C88.1908 18.8507 87.7428 19.6187 87.5295 20.472V29.24C87.5295 29.9653 87.2522 30.584 86.6975 31.096C86.1855 31.5653 85.5455 31.8 84.7775 31.8Z"/>
<path d="M129.07 31.8C127.235 31.8 125.55 31.3733 124.014 30.52C122.478 29.6667 121.24 28.4933 120.301 27C119.405 25.464 118.957 23.736 118.957 21.816C118.957 19.8533 119.405 18.1467 120.301 16.696C121.24 15.2027 122.478 14.0507 124.014 13.24C125.55 12.3867 127.235 11.96 129.07 11.96C130.947 11.96 132.632 12.3867 134.126 13.24C135.661 14.0507 136.878 15.2027 137.773 16.696C138.669 18.1467 139.117 19.8533 139.117 21.816C139.117 23.736 138.669 25.464 137.773 27C136.878 28.4933 135.661 29.6667 134.126 30.52C132.632 31.3733 130.947 31.8 129.07 31.8ZM129.07 26.616C130.392 26.616 131.459 26.168 132.27 25.272C133.123 24.3333 133.549 23.1813 133.549 21.816C133.549 20.408 133.123 19.2773 132.27 18.424C131.459 17.5707 130.392 17.144 129.07 17.144C127.79 17.144 126.701 17.5707 125.805 18.424C124.952 19.2773 124.525 20.408 124.525 21.816C124.525 23.1813 124.952 24.3333 125.805 25.272C126.701 26.168 127.79 26.616 129.07 26.616Z"/>
<path d="M148.26 31.8C147.449 31.8 146.787 31.5653 146.275 31.096C145.764 30.584 145.508 29.9227 145.508 29.112V18.36C145.508 17.9333 145.294 17.72 144.868 17.72H143.971C143.203 17.72 142.628 17.4853 142.243 17.016C141.859 16.5467 141.668 15.9493 141.668 15.224C141.668 14.456 141.859 13.8373 142.243 13.368C142.628 12.856 143.203 12.6 143.971 12.6H144.868C145.294 12.6 145.508 12.3867 145.508 11.96V10.616C145.508 8.26933 146.126 6.47733 147.364 5.24C148.644 3.96 150.307 3.32 152.355 3.32C152.825 3.32 153.337 3.36267 153.892 3.448C154.489 3.49067 154.958 3.576 155.299 3.704C155.897 3.91733 156.324 4.25867 156.579 4.728C156.878 5.19733 157.027 5.688 157.027 6.2C157.027 6.88267 156.814 7.52267 156.388 8.12C155.961 8.67467 155.364 8.952 154.596 8.952C154.254 8.952 153.934 8.90933 153.635 8.824C153.337 8.73867 153.017 8.696 152.676 8.696C151.652 8.696 151.14 9.42133 151.14 10.872V11.96C151.14 12.3867 151.353 12.6 151.78 12.6H154.148C154.873 12.6 155.47 12.856 155.939 13.368C156.451 13.88 156.708 14.4987 156.708 15.224C156.708 15.9493 156.451 16.5467 155.939 17.016C155.47 17.4853 154.852 17.72 154.084 17.72H151.78C151.353 17.72 151.14 17.9333 151.14 18.36V29.112C151.14 29.88 150.862 30.52 150.308 31.032C149.796 31.544 149.113 31.8 148.26 31.8Z"/>
</mask>
<path d="M13.176 31.8C11.384 31.8 9.69867 31.3947 8.12 30.584C6.584 29.7733 5.34667 28.6 4.408 27.064C3.46933 25.528 3 23.6933 3 21.56C3.04267 18.616 4.00267 16.2907 5.88 14.584C7.75733 12.8347 10.1893 11.96 13.176 11.96C14.328 11.96 15.4587 12.088 16.568 12.344C17.6773 12.6 18.6373 13.0693 19.448 13.752C20.088 14.264 20.408 14.9253 20.408 15.736C20.408 16.4187 20.152 17.0373 19.64 17.592C19.1707 18.1467 18.5733 18.424 17.848 18.424C17.3787 18.424 16.952 18.296 16.568 18.04C15.928 17.6987 15.352 17.464 14.84 17.336C14.3707 17.208 13.8373 17.144 13.24 17.144C11.832 17.144 10.68 17.5493 9.784 18.36C8.888 19.1707 8.44 20.2587 8.44 21.624C8.44 23.2027 8.93067 24.44 9.912 25.336C10.8933 26.1893 12.0453 26.616 13.368 26.616C14.8613 26.616 16.2693 26.0613 17.592 24.952C18.104 24.568 18.5947 24.376 19.064 24.376C19.7467 24.376 20.3227 24.6533 20.792 25.208C21.304 25.7627 21.56 26.4027 21.56 27.128C21.56 27.4267 21.496 27.768 21.368 28.152C21.24 28.4933 21.0053 28.8347 20.664 29.176C19.512 30.1147 18.2747 30.776 16.952 31.16C15.672 31.5867 14.4133 31.8 13.176 31.8Z" fill="#FFC80D"/>
<path d="M28.9565 31.8C28.1458 31.8 27.4632 31.5653 26.9085 31.096C26.3538 30.6267 26.0765 30.0293 26.0765 29.304V5.496C26.0765 4.81333 26.3325 4.23733 26.8445 3.768C27.3992 3.256 28.1032 3 28.9565 3C29.7672 3 30.4285 3.256 30.9405 3.768C31.4525 4.23733 31.7085 4.83467 31.7085 5.56V29.24C31.7085 29.9653 31.4312 30.584 30.8765 31.096C30.3645 31.5653 29.7245 31.8 28.9565 31.8Z" fill="#FFC80D"/>
<path d="M46.1275 31.8C43.2688 31.8 40.9435 30.904 39.1515 29.112C37.4022 27.2773 36.5275 24.8453 36.5275 21.816C36.5275 18.7867 37.3808 16.3973 39.0875 14.648C40.8368 12.856 43.1195 11.96 45.9355 11.96C47.9408 11.96 49.6902 12.664 51.1835 14.072C51.3542 13.56 51.6742 13.1333 52.1435 12.792C52.6128 12.4507 53.1675 12.28 53.8075 12.28C54.6608 12.28 55.3435 12.536 55.8555 13.048C56.4102 13.5173 56.6875 14.0933 56.6875 14.776V29.304C56.6875 30.0293 56.4102 30.6267 55.8555 31.096C55.3435 31.5653 54.6608 31.8 53.8075 31.8C52.3995 31.8 51.5248 31.1813 51.1835 29.944C49.8182 31.1813 48.1328 31.8 46.1275 31.8ZM46.5755 26.616C47.9408 26.616 49.0288 26.168 49.8395 25.272C50.6502 24.3333 51.0555 23.1813 51.0555 21.816C51.0555 20.408 50.6502 19.2773 49.8395 18.424C49.0288 17.5707 47.9408 17.144 46.5755 17.144C45.2528 17.144 44.1648 17.5707 43.3115 18.424C42.5008 19.2773 42.0955 20.408 42.0955 21.816C42.0955 23.1813 42.5008 24.3333 43.3115 25.272C44.1648 26.168 45.2528 26.616 46.5755 26.616Z" fill="#FFC80D"/>
<path d="M69.071 31.8C66.1697 31.8 63.7803 31.2027 61.903 30.008C61.519 29.752 61.2417 29.4533 61.071 29.112C60.9003 28.728 60.815 28.3653 60.815 28.024C60.815 27.2987 61.0497 26.6373 61.519 26.04C62.031 25.4427 62.6497 25.144 63.375 25.144C63.7163 25.144 64.0577 25.2293 64.399 25.4C65.167 25.7413 66.0417 26.04 67.023 26.296C68.0043 26.5093 68.9003 26.616 69.711 26.616C71.2897 26.616 72.079 26.2533 72.079 25.528C72.079 25.1013 71.887 24.7387 71.503 24.44C71.119 24.0987 70.223 23.864 68.815 23.736C68.2603 23.6933 67.535 23.608 66.639 23.48C65.7857 23.352 64.9323 23.1173 64.079 22.776C63.2257 22.392 62.5003 21.8373 61.903 21.112C61.3483 20.3867 61.071 19.4053 61.071 18.168C61.071 16.248 61.7963 14.7333 63.247 13.624C64.6977 12.5147 66.639 11.96 69.071 11.96C70.479 11.96 71.8017 12.1093 73.039 12.408C74.319 12.7067 75.279 13.1547 75.919 13.752C76.5163 14.3067 76.815 14.9467 76.815 15.672C76.815 16.312 76.5803 16.888 76.111 17.4C75.6417 17.912 75.0443 18.168 74.319 18.168C73.935 18.168 73.5723 18.0827 73.231 17.912C72.719 17.5707 72.0577 17.3147 71.247 17.144C70.479 16.9733 69.6897 16.888 68.879 16.888C67.2577 16.888 66.447 17.2293 66.447 17.912C66.447 18.2107 66.5963 18.488 66.895 18.744C67.2363 18.9573 67.983 19.1493 69.135 19.32C69.8603 19.4053 70.6923 19.5333 71.631 19.704C72.5697 19.832 73.4657 20.088 74.319 20.472C75.215 20.8133 75.9617 21.3893 76.559 22.2C77.1563 23.0107 77.455 24.12 77.455 25.528C77.455 27.448 76.687 28.984 75.151 30.136C73.615 31.2453 71.5883 31.8 69.071 31.8Z" fill="#FFC80D"/>
<path d="M84.7775 31.8C83.9668 31.8 83.2842 31.5653 82.7295 31.096C82.1748 30.6267 81.8975 30.0293 81.8975 29.304V5.496C81.8975 4.81333 82.1535 4.23733 82.6655 3.768C83.2202 3.256 83.9242 3 84.7775 3C85.5882 3 86.2495 3.256 86.7615 3.768C87.2735 4.23733 87.5295 4.83467 87.5295 5.56V14.072C88.0842 13.432 88.8308 12.92 89.7695 12.536C90.7082 12.152 91.7108 11.96 92.7775 11.96C95.1668 11.96 97.0868 12.664 98.5375 14.072C100.031 15.48 100.778 17.72 100.778 20.792V29.432C100.778 30.1147 100.5 30.6907 99.9455 31.16C99.4335 31.5867 98.7722 31.8 97.9615 31.8C97.1508 31.8 96.4682 31.5653 95.9135 31.096C95.4015 30.6267 95.1455 30.0293 95.1455 29.304V21.496C95.1455 19.9173 94.7828 18.7867 94.0575 18.104C93.3748 17.4213 92.5215 17.08 91.4975 17.08C90.4308 17.08 89.5562 17.4427 88.8735 18.168C88.1908 18.8507 87.7428 19.6187 87.5295 20.472V29.24C87.5295 29.9653 87.2522 30.584 86.6975 31.096C86.1855 31.5653 85.5455 31.8 84.7775 31.8Z" fill="#FFC80D"/>
<path d="M129.07 31.8C127.235 31.8 125.55 31.3733 124.014 30.52C122.478 29.6667 121.24 28.4933 120.301 27C119.405 25.464 118.957 23.736 118.957 21.816C118.957 19.8533 119.405 18.1467 120.301 16.696C121.24 15.2027 122.478 14.0507 124.014 13.24C125.55 12.3867 127.235 11.96 129.07 11.96C130.947 11.96 132.632 12.3867 134.126 13.24C135.661 14.0507 136.878 15.2027 137.773 16.696C138.669 18.1467 139.117 19.8533 139.117 21.816C139.117 23.736 138.669 25.464 137.773 27C136.878 28.4933 135.661 29.6667 134.126 30.52C132.632 31.3733 130.947 31.8 129.07 31.8ZM129.07 26.616C130.392 26.616 131.459 26.168 132.27 25.272C133.123 24.3333 133.549 23.1813 133.549 21.816C133.549 20.408 133.123 19.2773 132.27 18.424C131.459 17.5707 130.392 17.144 129.07 17.144C127.79 17.144 126.701 17.5707 125.805 18.424C124.952 19.2773 124.525 20.408 124.525 21.816C124.525 23.1813 124.952 24.3333 125.805 25.272C126.701 26.168 127.79 26.616 129.07 26.616Z" fill="#FFC80D"/>
<path d="M148.26 31.8C147.449 31.8 146.787 31.5653 146.275 31.096C145.764 30.584 145.508 29.9227 145.508 29.112V18.36C145.508 17.9333 145.294 17.72 144.868 17.72H143.971C143.203 17.72 142.628 17.4853 142.243 17.016C141.859 16.5467 141.668 15.9493 141.668 15.224C141.668 14.456 141.859 13.8373 142.243 13.368C142.628 12.856 143.203 12.6 143.971 12.6H144.868C145.294 12.6 145.508 12.3867 145.508 11.96V10.616C145.508 8.26933 146.126 6.47733 147.364 5.24C148.644 3.96 150.307 3.32 152.355 3.32C152.825 3.32 153.337 3.36267 153.892 3.448C154.489 3.49067 154.958 3.576 155.299 3.704C155.897 3.91733 156.324 4.25867 156.579 4.728C156.878 5.19733 157.027 5.688 157.027 6.2C157.027 6.88267 156.814 7.52267 156.388 8.12C155.961 8.67467 155.364 8.952 154.596 8.952C154.254 8.952 153.934 8.90933 153.635 8.824C153.337 8.73867 153.017 8.696 152.676 8.696C151.652 8.696 151.14 9.42133 151.14 10.872V11.96C151.14 12.3867 151.353 12.6 151.78 12.6H154.148C154.873 12.6 155.47 12.856 155.939 13.368C156.451 13.88 156.708 14.4987 156.708 15.224C156.708 15.9493 156.451 16.5467 155.939 17.016C155.47 17.4853 154.852 17.72 154.084 17.72H151.78C151.353 17.72 151.14 17.9333 151.14 18.36V29.112C151.14 29.88 150.862 30.52 150.308 31.032C149.796 31.544 149.113 31.8 148.26 31.8Z" fill="#FFC80D"/>
<path d="M13.176 31.8C11.384 31.8 9.69867 31.3947 8.12 30.584C6.584 29.7733 5.34667 28.6 4.408 27.064C3.46933 25.528 3 23.6933 3 21.56C3.04267 18.616 4.00267 16.2907 5.88 14.584C7.75733 12.8347 10.1893 11.96 13.176 11.96C14.328 11.96 15.4587 12.088 16.568 12.344C17.6773 12.6 18.6373 13.0693 19.448 13.752C20.088 14.264 20.408 14.9253 20.408 15.736C20.408 16.4187 20.152 17.0373 19.64 17.592C19.1707 18.1467 18.5733 18.424 17.848 18.424C17.3787 18.424 16.952 18.296 16.568 18.04C15.928 17.6987 15.352 17.464 14.84 17.336C14.3707 17.208 13.8373 17.144 13.24 17.144C11.832 17.144 10.68 17.5493 9.784 18.36C8.888 19.1707 8.44 20.2587 8.44 21.624C8.44 23.2027 8.93067 24.44 9.912 25.336C10.8933 26.1893 12.0453 26.616 13.368 26.616C14.8613 26.616 16.2693 26.0613 17.592 24.952C18.104 24.568 18.5947 24.376 19.064 24.376C19.7467 24.376 20.3227 24.6533 20.792 25.208C21.304 25.7627 21.56 26.4027 21.56 27.128C21.56 27.4267 21.496 27.768 21.368 28.152C21.24 28.4933 21.0053 28.8347 20.664 29.176C19.512 30.1147 18.2747 30.776 16.952 31.16C15.672 31.5867 14.4133 31.8 13.176 31.8Z" stroke="black" stroke-width="5" mask="url(#path-1-outside-1_16_524)"/>
<path d="M28.9565 31.8C28.1458 31.8 27.4632 31.5653 26.9085 31.096C26.3538 30.6267 26.0765 30.0293 26.0765 29.304V5.496C26.0765 4.81333 26.3325 4.23733 26.8445 3.768C27.3992 3.256 28.1032 3 28.9565 3C29.7672 3 30.4285 3.256 30.9405 3.768C31.4525 4.23733 31.7085 4.83467 31.7085 5.56V29.24C31.7085 29.9653 31.4312 30.584 30.8765 31.096C30.3645 31.5653 29.7245 31.8 28.9565 31.8Z" stroke="black" stroke-width="5" mask="url(#path-1-outside-1_16_524)"/>
<path d="M46.1275 31.8C43.2688 31.8 40.9435 30.904 39.1515 29.112C37.4022 27.2773 36.5275 24.8453 36.5275 21.816C36.5275 18.7867 37.3808 16.3973 39.0875 14.648C40.8368 12.856 43.1195 11.96 45.9355 11.96C47.9408 11.96 49.6902 12.664 51.1835 14.072C51.3542 13.56 51.6742 13.1333 52.1435 12.792C52.6128 12.4507 53.1675 12.28 53.8075 12.28C54.6608 12.28 55.3435 12.536 55.8555 13.048C56.4102 13.5173 56.6875 14.0933 56.6875 14.776V29.304C56.6875 30.0293 56.4102 30.6267 55.8555 31.096C55.3435 31.5653 54.6608 31.8 53.8075 31.8C52.3995 31.8 51.5248 31.1813 51.1835 29.944C49.8182 31.1813 48.1328 31.8 46.1275 31.8ZM46.5755 26.616C47.9408 26.616 49.0288 26.168 49.8395 25.272C50.6502 24.3333 51.0555 23.1813 51.0555 21.816C51.0555 20.408 50.6502 19.2773 49.8395 18.424C49.0288 17.5707 47.9408 17.144 46.5755 17.144C45.2528 17.144 44.1648 17.5707 43.3115 18.424C42.5008 19.2773 42.0955 20.408 42.0955 21.816C42.0955 23.1813 42.5008 24.3333 43.3115 25.272C44.1648 26.168 45.2528 26.616 46.5755 26.616Z" stroke="black" stroke-width="5" mask="url(#path-1-outside-1_16_524)"/>
<path d="M69.071 31.8C66.1697 31.8 63.7803 31.2027 61.903 30.008C61.519 29.752 61.2417 29.4533 61.071 29.112C60.9003 28.728 60.815 28.3653 60.815 28.024C60.815 27.2987 61.0497 26.6373 61.519 26.04C62.031 25.4427 62.6497 25.144 63.375 25.144C63.7163 25.144 64.0577 25.2293 64.399 25.4C65.167 25.7413 66.0417 26.04 67.023 26.296C68.0043 26.5093 68.9003 26.616 69.711 26.616C71.2897 26.616 72.079 26.2533 72.079 25.528C72.079 25.1013 71.887 24.7387 71.503 24.44C71.119 24.0987 70.223 23.864 68.815 23.736C68.2603 23.6933 67.535 23.608 66.639 23.48C65.7857 23.352 64.9323 23.1173 64.079 22.776C63.2257 22.392 62.5003 21.8373 61.903 21.112C61.3483 20.3867 61.071 19.4053 61.071 18.168C61.071 16.248 61.7963 14.7333 63.247 13.624C64.6977 12.5147 66.639 11.96 69.071 11.96C70.479 11.96 71.8017 12.1093 73.039 12.408C74.319 12.7067 75.279 13.1547 75.919 13.752C76.5163 14.3067 76.815 14.9467 76.815 15.672C76.815 16.312 76.5803 16.888 76.111 17.4C75.6417 17.912 75.0443 18.168 74.319 18.168C73.935 18.168 73.5723 18.0827 73.231 17.912C72.719 17.5707 72.0577 17.3147 71.247 17.144C70.479 16.9733 69.6897 16.888 68.879 16.888C67.2577 16.888 66.447 17.2293 66.447 17.912C66.447 18.2107 66.5963 18.488 66.895 18.744C67.2363 18.9573 67.983 19.1493 69.135 19.32C69.8603 19.4053 70.6923 19.5333 71.631 19.704C72.5697 19.832 73.4657 20.088 74.319 20.472C75.215 20.8133 75.9617 21.3893 76.559 22.2C77.1563 23.0107 77.455 24.12 77.455 25.528C77.455 27.448 76.687 28.984 75.151 30.136C73.615 31.2453 71.5883 31.8 69.071 31.8Z" stroke="black" stroke-width="5" mask="url(#path-1-outside-1_16_524)"/>
<path d="M84.7775 31.8C83.9668 31.8 83.2842 31.5653 82.7295 31.096C82.1748 30.6267 81.8975 30.0293 81.8975 29.304V5.496C81.8975 4.81333 82.1535 4.23733 82.6655 3.768C83.2202 3.256 83.9242 3 84.7775 3C85.5882 3 86.2495 3.256 86.7615 3.768C87.2735 4.23733 87.5295 4.83467 87.5295 5.56V14.072C88.0842 13.432 88.8308 12.92 89.7695 12.536C90.7082 12.152 91.7108 11.96 92.7775 11.96C95.1668 11.96 97.0868 12.664 98.5375 14.072C100.031 15.48 100.778 17.72 100.778 20.792V29.432C100.778 30.1147 100.5 30.6907 99.9455 31.16C99.4335 31.5867 98.7722 31.8 97.9615 31.8C97.1508 31.8 96.4682 31.5653 95.9135 31.096C95.4015 30.6267 95.1455 30.0293 95.1455 29.304V21.496C95.1455 19.9173 94.7828 18.7867 94.0575 18.104C93.3748 17.4213 92.5215 17.08 91.4975 17.08C90.4308 17.08 89.5562 17.4427 88.8735 18.168C88.1908 18.8507 87.7428 19.6187 87.5295 20.472V29.24C87.5295 29.9653 87.2522 30.584 86.6975 31.096C86.1855 31.5653 85.5455 31.8 84.7775 31.8Z" stroke="black" stroke-width="5" mask="url(#path-1-outside-1_16_524)"/>
<path d="M129.07 31.8C127.235 31.8 125.55 31.3733 124.014 30.52C122.478 29.6667 121.24 28.4933 120.301 27C119.405 25.464 118.957 23.736 118.957 21.816C118.957 19.8533 119.405 18.1467 120.301 16.696C121.24 15.2027 122.478 14.0507 124.014 13.24C125.55 12.3867 127.235 11.96 129.07 11.96C130.947 11.96 132.632 12.3867 134.126 13.24C135.661 14.0507 136.878 15.2027 137.773 16.696C138.669 18.1467 139.117 19.8533 139.117 21.816C139.117 23.736 138.669 25.464 137.773 27C136.878 28.4933 135.661 29.6667 134.126 30.52C132.632 31.3733 130.947 31.8 129.07 31.8ZM129.07 26.616C130.392 26.616 131.459 26.168 132.27 25.272C133.123 24.3333 133.549 23.1813 133.549 21.816C133.549 20.408 133.123 19.2773 132.27 18.424C131.459 17.5707 130.392 17.144 129.07 17.144C127.79 17.144 126.701 17.5707 125.805 18.424C124.952 19.2773 124.525 20.408 124.525 21.816C124.525 23.1813 124.952 24.3333 125.805 25.272C126.701 26.168 127.79 26.616 129.07 26.616Z" stroke="black" stroke-width="5" mask="url(#path-1-outside-1_16_524)"/>
<path d="M148.26 31.8C147.449 31.8 146.787 31.5653 146.275 31.096C145.764 30.584 145.508 29.9227 145.508 29.112V18.36C145.508 17.9333 145.294 17.72 144.868 17.72H143.971C143.203 17.72 142.628 17.4853 142.243 17.016C141.859 16.5467 141.668 15.9493 141.668 15.224C141.668 14.456 141.859 13.8373 142.243 13.368C142.628 12.856 143.203 12.6 143.971 12.6H144.868C145.294 12.6 145.508 12.3867 145.508 11.96V10.616C145.508 8.26933 146.126 6.47733 147.364 5.24C148.644 3.96 150.307 3.32 152.355 3.32C152.825 3.32 153.337 3.36267 153.892 3.448C154.489 3.49067 154.958 3.576 155.299 3.704C155.897 3.91733 156.324 4.25867 156.579 4.728C156.878 5.19733 157.027 5.688 157.027 6.2C157.027 6.88267 156.814 7.52267 156.388 8.12C155.961 8.67467 155.364 8.952 154.596 8.952C154.254 8.952 153.934 8.90933 153.635 8.824C153.337 8.73867 153.017 8.696 152.676 8.696C151.652 8.696 151.14 9.42133 151.14 10.872V11.96C151.14 12.3867 151.353 12.6 151.78 12.6H154.148C154.873 12.6 155.47 12.856 155.939 13.368C156.451 13.88 156.708 14.4987 156.708 15.224C156.708 15.9493 156.451 16.5467 155.939 17.016C155.47 17.4853 154.852 17.72 154.084 17.72H151.78C151.353 17.72 151.14 17.9333 151.14 18.36V29.112C151.14 29.88 150.862 30.52 150.308 31.032C149.796 31.544 149.113 31.8 148.26 31.8Z" stroke="black" stroke-width="5" mask="url(#path-1-outside-1_16_524)"/>
<mask id="path-2-outside-2_16_524" maskUnits="userSpaceOnUse" x="0" y="34" width="160" height="51" fill="black">
<rect fill="white" y="34" width="160" height="51"/>
<path d="M18.9765 82C16.163 82 13.517 81.3667 11.0385 80.1C8.62693 78.8333 6.6843 77 5.21058 74.6C3.73686 72.2 3 69.3333 3 66C3.06699 61.4 4.5742 57.7667 7.52164 55.1C10.4691 52.3667 14.2874 51 18.9765 51C20.7851 51 22.5603 51.2 24.3019 51.6C26.0436 52 27.5508 52.7333 28.8236 53.8C29.8284 54.6 30.3308 55.6333 30.3308 56.9C30.3308 57.9667 29.9289 58.9333 29.125 59.8C28.3882 60.6667 27.4503 61.1 26.3116 61.1C25.5747 61.1 24.9048 60.9 24.3019 60.5C23.2971 59.9667 22.3928 59.6 21.589 59.4C20.8521 59.2 20.0148 59.1 19.0769 59.1C16.8664 59.1 15.0577 59.7333 13.651 61C12.2442 62.2667 11.5409 63.9667 11.5409 66.1C11.5409 68.5667 12.3112 70.5 13.8519 71.9C15.3926 73.2333 17.2013 73.9 19.2779 73.9C21.6225 73.9 23.833 73.0333 25.9096 71.3C26.7135 70.7 27.4838 70.4 28.2207 70.4C29.2925 70.4 30.1968 70.8333 30.9337 71.7C31.7375 72.5667 32.1395 73.5667 32.1395 74.7C32.1395 75.1667 32.039 75.7 31.838 76.3C31.637 76.8333 31.2686 77.3667 30.7327 77.9C28.9241 79.3667 26.9814 80.4 24.9048 81C22.8952 81.6667 20.9191 82 18.9765 82Z"/>
<path d="M50.7062 82C46.218 82 42.5672 80.6 39.7537 77.8C37.0073 74.9333 35.634 71.1333 35.634 66.4C35.634 61.6667 36.9738 57.9333 39.6533 55.2C42.3998 52.4 45.9836 51 50.4047 51C53.5531 51 56.2996 52.1 58.6442 54.3C58.9121 53.5 59.4145 52.8333 60.1514 52.3C60.8882 51.7667 61.7591 51.5 62.7639 51.5C64.1036 51.5 65.1754 51.9 65.9793 52.7C66.8501 53.4333 67.2855 54.3333 67.2855 55.4V78.1C67.2855 79.2333 66.8501 80.1667 65.9793 80.9C65.1754 81.6333 64.1036 82 62.7639 82C60.5533 82 59.1801 81.0333 58.6442 79.1C56.5006 81.0333 53.8546 82 50.7062 82ZM51.4095 73.9C53.5531 73.9 55.2613 73.2 56.5341 71.8C57.8068 70.3333 58.4432 68.5333 58.4432 66.4C58.4432 64.2 57.8068 62.4333 56.5341 61.1C55.2613 59.7667 53.5531 59.1 51.4095 59.1C49.3329 59.1 47.6248 59.7667 46.285 61.1C45.0123 62.4333 44.3759 64.2 44.3759 66.4C44.3759 68.5333 45.0123 70.3333 46.285 71.8C47.6248 73.2 49.3329 73.9 51.4095 73.9Z"/>
<path d="M76.1731 81.7C74.9003 81.7 73.8285 81.3333 72.9577 80.6C72.0869 79.8667 71.6515 78.9333 71.6515 77.8V55.4C71.6515 54.3333 72.0534 53.4333 72.8572 52.7C73.7281 51.9 74.8334 51.5 76.1731 51.5C77.3789 51.5 78.3502 51.8667 79.087 52.6C79.8909 53.2667 80.3598 54.1 80.4938 55.1C81.2306 53.9667 82.2354 53 83.5082 52.2C84.781 51.4 86.1207 51 87.5274 51C88.3983 51 89.2356 51.1 90.0395 51.3C90.9773 51.5667 91.7476 52.1 92.3505 52.9C92.9534 53.6333 93.2548 54.5 93.2548 55.5C93.2548 56.9 92.7859 58.0667 91.8481 59C90.9773 59.8667 89.939 60.1667 88.7332 59.9C87.8624 59.7 86.9915 59.6 86.1207 59.6C84.58 59.6 83.3072 60.1333 82.3024 61.2C81.2976 62.2667 80.6947 64.4333 80.4938 67.7V77.7C80.4938 78.8333 80.0584 79.8 79.1875 80.6C78.3837 81.3333 77.3789 81.7 76.1731 81.7Z"/>
<path d="M109.591 82C105.103 82 101.486 80.6 98.7394 77.8C96.0599 74.9333 94.7202 71.1333 94.7202 66.4C94.7202 61.6667 96.0264 57.9333 98.6389 55.2C101.318 52.4 104.869 51 109.29 51C112.17 51 114.749 52.0333 117.027 54.1V41C117.027 39.8667 117.429 38.9333 118.233 38.2C119.037 37.4 120.075 37 121.348 37C122.687 37 123.759 37.4 124.563 38.2C125.434 38.9333 125.869 39.8333 125.869 40.9V78.1C125.869 79.2333 125.434 80.1667 124.563 80.9C123.759 81.6333 122.687 82 121.348 82C119.204 82 117.831 81.0667 117.228 79.2C115.151 81.0667 112.606 82 109.591 82ZM110.295 73.9C112.304 73.9 113.912 73.2 115.118 71.8C116.391 70.3333 117.027 68.5333 117.027 66.4C117.027 64.2 116.391 62.4333 115.118 61.1C113.912 59.7667 112.304 59.1 110.295 59.1C108.218 59.1 106.543 59.7667 105.271 61.1C104.065 62.4333 103.462 64.2 103.462 66.4C103.462 68.5333 104.065 70.3333 105.271 71.8C106.543 73.2 108.218 73.9 110.295 73.9Z"/>
<path d="M143.837 82C139.282 82 135.531 81.0667 132.583 79.2C131.98 78.8 131.545 78.3333 131.277 77.8C131.009 77.2 130.875 76.6333 130.875 76.1C130.875 74.9667 131.243 73.9333 131.98 73C132.784 72.0667 133.755 71.6 134.894 71.6C135.43 71.6 135.966 71.7333 136.502 72C137.708 72.5333 139.081 73 140.622 73.4C142.162 73.7333 143.569 73.9 144.842 73.9C147.32 73.9 148.56 73.3333 148.56 72.2C148.56 71.5333 148.258 70.9667 147.655 70.5C147.052 69.9667 145.646 69.6 143.435 69.4C142.564 69.3333 141.425 69.2 140.019 69C138.679 68.8 137.339 68.4333 136 67.9C134.66 67.3 133.521 66.4333 132.583 65.3C131.712 64.1667 131.277 62.6333 131.277 60.7C131.277 57.7 132.416 55.3333 134.693 53.6C136.971 51.8667 140.019 51 143.837 51C146.048 51 148.124 51.2333 150.067 51.7C152.076 52.1667 153.584 52.8667 154.588 53.8C155.526 54.6667 155.995 55.6667 155.995 56.8C155.995 57.8 155.627 58.7 154.89 59.5C154.153 60.3 153.215 60.7 152.076 60.7C151.474 60.7 150.904 60.5667 150.368 60.3C149.564 59.7667 148.526 59.3667 147.253 59.1C146.048 58.8333 144.808 58.7 143.536 58.7C140.99 58.7 139.717 59.2333 139.717 60.3C139.717 60.7667 139.952 61.2 140.421 61.6C140.957 61.9333 142.129 62.2333 143.938 62.5C145.076 62.6333 146.383 62.8333 147.856 63.1C149.33 63.3 150.737 63.7 152.076 64.3C153.483 64.8333 154.655 65.7333 155.593 67C156.531 68.2667 157 70 157 72.2C157 75.2 155.794 77.6 153.383 79.4C150.971 81.1333 147.789 82 143.837 82Z"/>
</mask>
<path d="M18.9765 82C16.163 82 13.517 81.3667 11.0385 80.1C8.62693 78.8333 6.6843 77 5.21058 74.6C3.73686 72.2 3 69.3333 3 66C3.06699 61.4 4.5742 57.7667 7.52164 55.1C10.4691 52.3667 14.2874 51 18.9765 51C20.7851 51 22.5603 51.2 24.3019 51.6C26.0436 52 27.5508 52.7333 28.8236 53.8C29.8284 54.6 30.3308 55.6333 30.3308 56.9C30.3308 57.9667 29.9289 58.9333 29.125 59.8C28.3882 60.6667 27.4503 61.1 26.3116 61.1C25.5747 61.1 24.9048 60.9 24.3019 60.5C23.2971 59.9667 22.3928 59.6 21.589 59.4C20.8521 59.2 20.0148 59.1 19.0769 59.1C16.8664 59.1 15.0577 59.7333 13.651 61C12.2442 62.2667 11.5409 63.9667 11.5409 66.1C11.5409 68.5667 12.3112 70.5 13.8519 71.9C15.3926 73.2333 17.2013 73.9 19.2779 73.9C21.6225 73.9 23.833 73.0333 25.9096 71.3C26.7135 70.7 27.4838 70.4 28.2207 70.4C29.2925 70.4 30.1968 70.8333 30.9337 71.7C31.7375 72.5667 32.1395 73.5667 32.1395 74.7C32.1395 75.1667 32.039 75.7 31.838 76.3C31.637 76.8333 31.2686 77.3667 30.7327 77.9C28.9241 79.3667 26.9814 80.4 24.9048 81C22.8952 81.6667 20.9191 82 18.9765 82Z" fill="#7D72B4"/>
<path d="M50.7062 82C46.218 82 42.5672 80.6 39.7537 77.8C37.0073 74.9333 35.634 71.1333 35.634 66.4C35.634 61.6667 36.9738 57.9333 39.6533 55.2C42.3998 52.4 45.9836 51 50.4047 51C53.5531 51 56.2996 52.1 58.6442 54.3C58.9121 53.5 59.4145 52.8333 60.1514 52.3C60.8882 51.7667 61.7591 51.5 62.7639 51.5C64.1036 51.5 65.1754 51.9 65.9793 52.7C66.8501 53.4333 67.2855 54.3333 67.2855 55.4V78.1C67.2855 79.2333 66.8501 80.1667 65.9793 80.9C65.1754 81.6333 64.1036 82 62.7639 82C60.5533 82 59.1801 81.0333 58.6442 79.1C56.5006 81.0333 53.8546 82 50.7062 82ZM51.4095 73.9C53.5531 73.9 55.2613 73.2 56.5341 71.8C57.8068 70.3333 58.4432 68.5333 58.4432 66.4C58.4432 64.2 57.8068 62.4333 56.5341 61.1C55.2613 59.7667 53.5531 59.1 51.4095 59.1C49.3329 59.1 47.6248 59.7667 46.285 61.1C45.0123 62.4333 44.3759 64.2 44.3759 66.4C44.3759 68.5333 45.0123 70.3333 46.285 71.8C47.6248 73.2 49.3329 73.9 51.4095 73.9Z" fill="#7D72B4"/>
<path d="M76.1731 81.7C74.9003 81.7 73.8285 81.3333 72.9577 80.6C72.0869 79.8667 71.6515 78.9333 71.6515 77.8V55.4C71.6515 54.3333 72.0534 53.4333 72.8572 52.7C73.7281 51.9 74.8334 51.5 76.1731 51.5C77.3789 51.5 78.3502 51.8667 79.087 52.6C79.8909 53.2667 80.3598 54.1 80.4938 55.1C81.2306 53.9667 82.2354 53 83.5082 52.2C84.781 51.4 86.1207 51 87.5274 51C88.3983 51 89.2356 51.1 90.0395 51.3C90.9773 51.5667 91.7476 52.1 92.3505 52.9C92.9534 53.6333 93.2548 54.5 93.2548 55.5C93.2548 56.9 92.7859 58.0667 91.8481 59C90.9773 59.8667 89.939 60.1667 88.7332 59.9C87.8624 59.7 86.9915 59.6 86.1207 59.6C84.58 59.6 83.3072 60.1333 82.3024 61.2C81.2976 62.2667 80.6947 64.4333 80.4938 67.7V77.7C80.4938 78.8333 80.0584 79.8 79.1875 80.6C78.3837 81.3333 77.3789 81.7 76.1731 81.7Z" fill="#7D72B4"/>
<path d="M109.591 82C105.103 82 101.486 80.6 98.7394 77.8C96.0599 74.9333 94.7202 71.1333 94.7202 66.4C94.7202 61.6667 96.0264 57.9333 98.6389 55.2C101.318 52.4 104.869 51 109.29 51C112.17 51 114.749 52.0333 117.027 54.1V41C117.027 39.8667 117.429 38.9333 118.233 38.2C119.037 37.4 120.075 37 121.348 37C122.687 37 123.759 37.4 124.563 38.2C125.434 38.9333 125.869 39.8333 125.869 40.9V78.1C125.869 79.2333 125.434 80.1667 124.563 80.9C123.759 81.6333 122.687 82 121.348 82C119.204 82 117.831 81.0667 117.228 79.2C115.151 81.0667 112.606 82 109.591 82ZM110.295 73.9C112.304 73.9 113.912 73.2 115.118 71.8C116.391 70.3333 117.027 68.5333 117.027 66.4C117.027 64.2 116.391 62.4333 115.118 61.1C113.912 59.7667 112.304 59.1 110.295 59.1C108.218 59.1 106.543 59.7667 105.271 61.1C104.065 62.4333 103.462 64.2 103.462 66.4C103.462 68.5333 104.065 70.3333 105.271 71.8C106.543 73.2 108.218 73.9 110.295 73.9Z" fill="#7D72B4"/>
<path d="M143.837 82C139.282 82 135.531 81.0667 132.583 79.2C131.98 78.8 131.545 78.3333 131.277 77.8C131.009 77.2 130.875 76.6333 130.875 76.1C130.875 74.9667 131.243 73.9333 131.98 73C132.784 72.0667 133.755 71.6 134.894 71.6C135.43 71.6 135.966 71.7333 136.502 72C137.708 72.5333 139.081 73 140.622 73.4C142.162 73.7333 143.569 73.9 144.842 73.9C147.32 73.9 148.56 73.3333 148.56 72.2C148.56 71.5333 148.258 70.9667 147.655 70.5C147.052 69.9667 145.646 69.6 143.435 69.4C142.564 69.3333 141.425 69.2 140.019 69C138.679 68.8 137.339 68.4333 136 67.9C134.66 67.3 133.521 66.4333 132.583 65.3C131.712 64.1667 131.277 62.6333 131.277 60.7C131.277 57.7 132.416 55.3333 134.693 53.6C136.971 51.8667 140.019 51 143.837 51C146.048 51 148.124 51.2333 150.067 51.7C152.076 52.1667 153.584 52.8667 154.588 53.8C155.526 54.6667 155.995 55.6667 155.995 56.8C155.995 57.8 155.627 58.7 154.89 59.5C154.153 60.3 153.215 60.7 152.076 60.7C151.474 60.7 150.904 60.5667 150.368 60.3C149.564 59.7667 148.526 59.3667 147.253 59.1C146.048 58.8333 144.808 58.7 143.536 58.7C140.99 58.7 139.717 59.2333 139.717 60.3C139.717 60.7667 139.952 61.2 140.421 61.6C140.957 61.9333 142.129 62.2333 143.938 62.5C145.076 62.6333 146.383 62.8333 147.856 63.1C149.33 63.3 150.737 63.7 152.076 64.3C153.483 64.8333 154.655 65.7333 155.593 67C156.531 68.2667 157 70 157 72.2C157 75.2 155.794 77.6 153.383 79.4C150.971 81.1333 147.789 82 143.837 82Z" fill="#7D72B4"/>
<path d="M18.9765 82C16.163 82 13.517 81.3667 11.0385 80.1C8.62693 78.8333 6.6843 77 5.21058 74.6C3.73686 72.2 3 69.3333 3 66C3.06699 61.4 4.5742 57.7667 7.52164 55.1C10.4691 52.3667 14.2874 51 18.9765 51C20.7851 51 22.5603 51.2 24.3019 51.6C26.0436 52 27.5508 52.7333 28.8236 53.8C29.8284 54.6 30.3308 55.6333 30.3308 56.9C30.3308 57.9667 29.9289 58.9333 29.125 59.8C28.3882 60.6667 27.4503 61.1 26.3116 61.1C25.5747 61.1 24.9048 60.9 24.3019 60.5C23.2971 59.9667 22.3928 59.6 21.589 59.4C20.8521 59.2 20.0148 59.1 19.0769 59.1C16.8664 59.1 15.0577 59.7333 13.651 61C12.2442 62.2667 11.5409 63.9667 11.5409 66.1C11.5409 68.5667 12.3112 70.5 13.8519 71.9C15.3926 73.2333 17.2013 73.9 19.2779 73.9C21.6225 73.9 23.833 73.0333 25.9096 71.3C26.7135 70.7 27.4838 70.4 28.2207 70.4C29.2925 70.4 30.1968 70.8333 30.9337 71.7C31.7375 72.5667 32.1395 73.5667 32.1395 74.7C32.1395 75.1667 32.039 75.7 31.838 76.3C31.637 76.8333 31.2686 77.3667 30.7327 77.9C28.9241 79.3667 26.9814 80.4 24.9048 81C22.8952 81.6667 20.9191 82 18.9765 82Z" stroke="black" stroke-width="6" mask="url(#path-2-outside-2_16_524)"/>
<path d="M50.7062 82C46.218 82 42.5672 80.6 39.7537 77.8C37.0073 74.9333 35.634 71.1333 35.634 66.4C35.634 61.6667 36.9738 57.9333 39.6533 55.2C42.3998 52.4 45.9836 51 50.4047 51C53.5531 51 56.2996 52.1 58.6442 54.3C58.9121 53.5 59.4145 52.8333 60.1514 52.3C60.8882 51.7667 61.7591 51.5 62.7639 51.5C64.1036 51.5 65.1754 51.9 65.9793 52.7C66.8501 53.4333 67.2855 54.3333 67.2855 55.4V78.1C67.2855 79.2333 66.8501 80.1667 65.9793 80.9C65.1754 81.6333 64.1036 82 62.7639 82C60.5533 82 59.1801 81.0333 58.6442 79.1C56.5006 81.0333 53.8546 82 50.7062 82ZM51.4095 73.9C53.5531 73.9 55.2613 73.2 56.5341 71.8C57.8068 70.3333 58.4432 68.5333 58.4432 66.4C58.4432 64.2 57.8068 62.4333 56.5341 61.1C55.2613 59.7667 53.5531 59.1 51.4095 59.1C49.3329 59.1 47.6248 59.7667 46.285 61.1C45.0123 62.4333 44.3759 64.2 44.3759 66.4C44.3759 68.5333 45.0123 70.3333 46.285 71.8C47.6248 73.2 49.3329 73.9 51.4095 73.9Z" stroke="black" stroke-width="6" mask="url(#path-2-outside-2_16_524)"/>
<path d="M76.1731 81.7C74.9003 81.7 73.8285 81.3333 72.9577 80.6C72.0869 79.8667 71.6515 78.9333 71.6515 77.8V55.4C71.6515 54.3333 72.0534 53.4333 72.8572 52.7C73.7281 51.9 74.8334 51.5 76.1731 51.5C77.3789 51.5 78.3502 51.8667 79.087 52.6C79.8909 53.2667 80.3598 54.1 80.4938 55.1C81.2306 53.9667 82.2354 53 83.5082 52.2C84.781 51.4 86.1207 51 87.5274 51C88.3983 51 89.2356 51.1 90.0395 51.3C90.9773 51.5667 91.7476 52.1 92.3505 52.9C92.9534 53.6333 93.2548 54.5 93.2548 55.5C93.2548 56.9 92.7859 58.0667 91.8481 59C90.9773 59.8667 89.939 60.1667 88.7332 59.9C87.8624 59.7 86.9915 59.6 86.1207 59.6C84.58 59.6 83.3072 60.1333 82.3024 61.2C81.2976 62.2667 80.6947 64.4333 80.4938 67.7V77.7C80.4938 78.8333 80.0584 79.8 79.1875 80.6C78.3837 81.3333 77.3789 81.7 76.1731 81.7Z" stroke="black" stroke-width="6" mask="url(#path-2-outside-2_16_524)"/>
<path d="M109.591 82C105.103 82 101.486 80.6 98.7394 77.8C96.0599 74.9333 94.7202 71.1333 94.7202 66.4C94.7202 61.6667 96.0264 57.9333 98.6389 55.2C101.318 52.4 104.869 51 109.29 51C112.17 51 114.749 52.0333 117.027 54.1V41C117.027 39.8667 117.429 38.9333 118.233 38.2C119.037 37.4 120.075 37 121.348 37C122.687 37 123.759 37.4 124.563 38.2C125.434 38.9333 125.869 39.8333 125.869 40.9V78.1C125.869 79.2333 125.434 80.1667 124.563 80.9C123.759 81.6333 122.687 82 121.348 82C119.204 82 117.831 81.0667 117.228 79.2C115.151 81.0667 112.606 82 109.591 82ZM110.295 73.9C112.304 73.9 113.912 73.2 115.118 71.8C116.391 70.3333 117.027 68.5333 117.027 66.4C117.027 64.2 116.391 62.4333 115.118 61.1C113.912 59.7667 112.304 59.1 110.295 59.1C108.218 59.1 106.543 59.7667 105.271 61.1C104.065 62.4333 103.462 64.2 103.462 66.4C103.462 68.5333 104.065 70.3333 105.271 71.8C106.543 73.2 108.218 73.9 110.295 73.9Z" stroke="black" stroke-width="6" mask="url(#path-2-outside-2_16_524)"/>
<path d="M143.837 82C139.282 82 135.531 81.0667 132.583 79.2C131.98 78.8 131.545 78.3333 131.277 77.8C131.009 77.2 130.875 76.6333 130.875 76.1C130.875 74.9667 131.243 73.9333 131.98 73C132.784 72.0667 133.755 71.6 134.894 71.6C135.43 71.6 135.966 71.7333 136.502 72C137.708 72.5333 139.081 73 140.622 73.4C142.162 73.7333 143.569 73.9 144.842 73.9C147.32 73.9 148.56 73.3333 148.56 72.2C148.56 71.5333 148.258 70.9667 147.655 70.5C147.052 69.9667 145.646 69.6 143.435 69.4C142.564 69.3333 141.425 69.2 140.019 69C138.679 68.8 137.339 68.4333 136 67.9C134.66 67.3 133.521 66.4333 132.583 65.3C131.712 64.1667 131.277 62.6333 131.277 60.7C131.277 57.7 132.416 55.3333 134.693 53.6C136.971 51.8667 140.019 51 143.837 51C146.048 51 148.124 51.2333 150.067 51.7C152.076 52.1667 153.584 52.8667 154.588 53.8C155.526 54.6667 155.995 55.6667 155.995 56.8C155.995 57.8 155.627 58.7 154.89 59.5C154.153 60.3 153.215 60.7 152.076 60.7C151.474 60.7 150.904 60.5667 150.368 60.3C149.564 59.7667 148.526 59.3667 147.253 59.1C146.048 58.8333 144.808 58.7 143.536 58.7C140.99 58.7 139.717 59.2333 139.717 60.3C139.717 60.7667 139.952 61.2 140.421 61.6C140.957 61.9333 142.129 62.2333 143.938 62.5C145.076 62.6333 146.383 62.8333 147.856 63.1C149.33 63.3 150.737 63.7 152.076 64.3C153.483 64.8333 154.655 65.7333 155.593 67C156.531 68.2667 157 70 157 72.2C157 75.2 155.794 77.6 153.383 79.4C150.971 81.1333 147.789 82 143.837 82Z" stroke="black" stroke-width="6" mask="url(#path-2-outside-2_16_524)"/>
</svg>
