<svg width="78" height="81" viewBox="0 0 78 81" fill="none" xmlns="http://www.w3.org/2000/svg">
<path d="M74.8349 45.3496C73.7548 41.9985 73.8239 38.6843 74.8349 35.324C76.3228 30.3976 74.9616 26.3994 70.8229 23.2994C68.0729 21.2404 66.2005 18.5711 65.0489 15.3513C63.2548 10.3212 59.9152 7.93519 54.5835 7.85227C52.4792 7.78907 50.4037 7.34588 48.4572 6.54409C46.6147 5.82552 45.1775 4.44133 43.3765 3.6813C43.2966 3.59114 43.1966 3.52117 43.0845 3.47713C42.9724 3.4331 42.8514 3.41625 42.7316 3.42796C42.4897 3.15158 42.1374 3.11934 41.8103 3.02952C38.6665 2.16123 35.7393 2.66792 33.0768 4.52655C30.062 6.64313 26.7617 7.82924 23.0306 7.85458C18.194 7.89143 14.6172 10.54 13.0327 15.1601C11.9364 18.3569 10.1952 21.1483 7.41535 23.0737C3.1845 26.024 1.26139 31.0748 3.6267 36.6184C3.61797 36.6269 3.61134 36.6373 3.60733 36.6488C3.60333 36.6603 3.60206 36.6725 3.60362 36.6846C3.60519 36.6967 3.60954 36.7082 3.61635 36.7183C3.62315 36.7284 3.63222 36.7368 3.64282 36.7428C4.26006 40.0754 3.85932 43.309 2.8874 46.5403C2.19646 48.8434 2.51199 51.1327 3.65204 53.2792C4.24739 54.74 5.24786 56.0002 6.53556 56.9113C9.69916 59.1127 12.0388 62.3057 13.1847 65.9856C13.7835 67.8281 14.8291 69.4196 16.4713 70.5458C17.9035 71.9468 19.8182 72.7455 21.8214 72.7776C24.956 72.8236 27.9317 73.3718 30.7783 74.6592L33.0538 76.0849C36.2229 78.7404 41.2829 78.7979 44.9979 76.1424C47.952 73.9867 51.5161 72.8283 55.1731 72.8351C59.6389 72.8144 63.4482 70.1681 64.8578 65.9419C66.0339 62.3192 68.335 59.1662 71.4263 56.9412C72.4734 56.1966 73.3541 55.2422 74.0123 54.1387C74.6705 53.0352 75.0919 51.8068 75.2495 50.5316C75.6479 48.7674 75.3808 47.0378 74.8349 45.3496ZM74.8349 45.3496C73.7548 41.9985 73.8239 38.6843 74.8349 35.324C76.3228 30.3976 74.9616 26.3994 70.8229 23.2994C68.0729 21.2404 66.2005 18.5711 65.0489 15.3513C63.2548 10.3212 59.9152 7.93519 54.5835 7.85227C52.4792 7.78907 50.4037 7.34588 48.4572 6.54409C46.6147 5.82552 45.1775 4.44133 43.3765 3.6813C43.2966 3.59114 43.1966 3.52117 43.0845 3.47713C42.9724 3.4331 42.8514 3.41625 42.7316 3.42796C42.4897 3.15158 42.1374 3.11934 41.8103 3.02952C38.6665 2.16123 35.7393 2.66792 33.0768 4.52655C30.062 6.64313 26.7617 7.82924 23.0306 7.85458C18.194 7.89143 14.6172 10.54 13.0327 15.1601C11.9364 18.3569 10.1952 21.1483 7.41535 23.0737C3.1845 26.024 1.26139 31.0748 3.6267 36.6184C3.61797 36.6269 3.61134 36.6373 3.60733 36.6488C3.60333 36.6603 3.60206 36.6725 3.60362 36.6846C3.60519 36.6967 3.60954 36.7082 3.61635 36.7183C3.62315 36.7284 3.63222 36.7368 3.64282 36.7428C4.26006 40.0754 3.85932 43.309 2.8874 46.5403C2.19646 48.8434 2.51199 51.1327 3.65204 53.2792C4.24739 54.74 5.24786 56.0002 6.53556 56.9113C9.69916 59.1127 12.0388 62.3057 13.1847 65.9856C13.7835 67.8281 14.8291 69.4196 16.4713 70.5458C17.9035 71.9468 19.8182 72.7455 21.8214 72.7776C24.956 72.8236 27.9317 73.3718 30.7783 74.6592L33.0538 76.0849C36.2229 78.7404 41.2829 78.7979 44.9979 76.1424C47.952 73.9867 51.5161 72.8283 55.1731 72.8351C59.6389 72.8144 63.4482 70.1681 64.8578 65.9419C66.0339 62.3192 68.335 59.1662 71.4263 56.9412C72.4734 56.1966 73.3541 55.2422 74.0123 54.1387C74.6705 53.0352 75.0919 51.8068 75.2495 50.5316C75.6479 48.7674 75.3808 47.0378 74.8349 45.3496ZM50.1776 76.3129L50.3181 76.2944C50.5185 76.2023 50.7211 76.1217 50.9261 76.0503C50.7119 76.1217 50.4586 76.2092 50.1776 76.3129ZM29.4909 77.0775L29.6406 77.165H29.659H29.6866L29.4909 77.0775Z" fill="#4E3D93"/>
<path d="M77.4146 35.5681C79.0153 30.0659 77.2948 24.9737 72.7277 21.519C70.1922 19.6381 68.3034 17.0161 67.3222 14.0154C66.4973 11.4832 64.8932 9.2764 62.739 7.7104C60.5848 6.1444 57.9908 5.29928 55.3275 5.29576C52.2859 5.31143 49.3122 4.39603 46.8059 2.6725C41.617 -0.888145 36.3889 -0.895055 31.193 2.6771C28.7235 4.39046 25.7876 5.30451 22.782 5.29576C17.1854 5.35334 12.5492 8.65603 10.7343 13.9325C9.71 16.9961 7.77218 19.6725 5.18144 21.6019C0.665 25.0221 -1.03701 30.3055 0.623544 35.6971C1.57311 38.7071 1.57874 41.9355 0.639665 44.9488C-1.05314 50.5707 0.768641 55.8795 5.47624 59.3572C6.96204 60.4512 8.22921 61.8145 9.21192 63.3761C9.23956 63.4199 9.2649 63.4637 9.28793 63.5051C9.38086 63.6619 9.45361 63.8298 9.50442 64.0049L11.6878 69.0442C13.7952 72.3077 16.651 74.5279 20.5664 75.205C21.7015 75.366 22.845 75.4614 23.9911 75.4906C25.9222 75.5711 27.8066 76.1094 29.4887 77.0614L29.6845 77.1627L30.4353 77.5473L35.5874 80.189C38.6552 81.0573 41.6953 80.7671 44.7009 79.3484C44.9807 79.1932 45.2452 79.012 45.4909 78.8071L45.5346 78.7726C45.991 78.3817 46.4785 78.029 46.9925 77.7178C47.781 77.2578 48.6106 76.8723 49.4707 76.5662C49.7171 76.4695 49.952 76.3796 50.1616 76.3013C50.4426 76.1977 50.6959 76.1102 50.9101 76.0388L51.0944 75.9789H51.1105H51.1312C52.5131 75.5321 53.9917 75.4906 55.4404 75.4123C61.0485 75.106 64.8602 72.4021 67.0182 67.4343V67.4135C67.1472 66.9759 67.3222 66.4462 67.5572 65.8474C67.5562 65.8429 67.5562 65.8381 67.5572 65.8336C67.5687 65.806 67.5779 65.7783 67.5894 65.753C67.6009 65.7276 67.5894 65.753 67.5894 65.753C67.9395 64.8617 68.2619 64.2214 68.3563 64.0394C68.7032 63.2958 69.1278 62.5909 69.6231 61.9367C69.9789 61.4869 70.376 61.0713 70.8092 60.6953L70.9635 60.5617C71.0211 60.511 71.081 60.4627 71.1408 60.4143C71.4932 60.1264 71.917 59.804 72.4168 59.4286L72.5066 59.3572C77.1727 55.8841 79.0014 50.7688 77.3846 45.163C76.4575 42.0304 76.4679 38.6949 77.4146 35.5681ZM75.2496 50.5385C75.092 51.8137 74.6707 53.0421 74.0125 54.1456C73.3543 55.2491 72.4736 56.2035 71.4264 56.9481C68.3351 59.1731 66.034 62.3261 64.8579 65.9487C63.4484 70.175 59.639 72.8213 55.1732 72.842C51.5162 72.8351 47.9521 73.9936 44.998 76.1493C41.283 78.8048 36.2231 78.7473 33.0539 76.0917L30.7785 74.6661C27.9318 73.3786 24.9561 72.8236 21.8216 72.7844C19.818 72.7517 17.9033 71.9522 16.4714 70.5504C14.8293 69.4242 13.7836 67.8327 13.1848 65.9902C12.0389 62.3103 9.69929 59.1173 6.53568 56.9159C5.24798 56.0048 4.24752 54.7446 3.65216 53.2838C2.51211 51.1373 2.19658 48.8411 2.88752 46.5449C3.85944 43.3205 4.2694 40.08 3.64295 36.7473C3.63234 36.7414 3.62328 36.733 3.61648 36.7229C3.60967 36.7128 3.60531 36.7013 3.60375 36.6892C3.60218 36.6771 3.60345 36.6648 3.60746 36.6533C3.61147 36.6418 3.6181 36.6315 3.62683 36.623C1.26151 31.0747 3.18463 26.024 7.41548 23.0736C10.1954 21.1436 11.9365 18.3568 13.0328 15.1601C14.6174 10.54 18.1941 7.89139 23.0307 7.85454C26.7618 7.8246 30.0622 6.6431 33.0931 4.52652C35.7555 2.66789 38.6828 2.1612 41.8266 3.02948C42.1467 3.1193 42.4991 3.15155 42.7478 3.42792C42.8677 3.41621 42.9886 3.43307 43.1007 3.4771C43.2128 3.52114 43.3129 3.5911 43.3927 3.68127C45.1938 4.4413 46.6332 5.82548 48.4734 6.54406C50.4149 7.34395 52.4848 7.7871 54.5836 7.85224C59.9062 7.93515 63.2457 10.3212 65.0444 15.3512C66.196 18.5756 68.0685 21.2403 70.8184 23.2993C74.964 26.3994 76.3183 30.3976 74.8305 35.324C73.8148 38.6843 73.7457 42.0031 74.8305 45.3495C75.3809 47.0377 75.6481 48.7674 75.2496 50.5408V50.5385Z" fill="#4E3D93"/>
<path d="M33.054 76.0919L30.7762 74.6686C30.7755 74.5356 30.7396 74.4052 30.672 74.2907C30.6044 74.1762 30.5076 74.0816 30.3916 74.0168C29.0788 73.1577 27.6278 72.6073 26.1492 72.1305C24.2053 71.5087 22.1694 71.7712 20.1864 71.488C18.8989 71.3037 17.7589 70.6519 16.4691 70.5529C14.8293 69.4244 13.7837 67.8352 13.1849 65.9927C12.0396 62.3125 9.69982 59.1193 6.53572 56.9183C5.24739 56.0079 4.24677 54.7475 3.6522 53.2863C3.10636 50.7298 3.85257 48.3346 4.44448 45.8863C5.1976 42.784 4.99493 39.6978 3.64068 36.7475C3.63024 36.7413 3.62138 36.7328 3.6148 36.7226C3.60821 36.7124 3.60409 36.7008 3.60275 36.6888C3.60141 36.6767 3.60289 36.6645 3.60707 36.6531C3.61126 36.6417 3.61803 36.6315 3.62687 36.6231C3.63842 36.2797 3.62919 35.9359 3.59923 35.5936C2.9935 31.2822 4.48593 27.7469 7.80705 25.0729C10.6422 22.7997 12.9891 20.2525 14.0255 16.6619C14.3168 15.7082 14.7584 14.8071 15.3337 13.9926C17.6299 10.6761 20.8013 8.81282 24.8733 8.75064C28.0101 8.70458 30.9835 8.08503 33.533 6.25174C36.3221 4.24571 39.3277 3.23003 42.7456 3.43501H42.7271C42.8699 3.71369 43.1325 3.68145 43.3812 3.68836C45.1823 4.44839 46.6217 5.83257 48.4596 6.54885C50.438 7.31349 52.4579 7.82939 54.5837 7.85242C59.9062 7.93303 63.2457 10.3214 65.0445 15.3514C66.196 18.5758 68.0662 21.2382 70.8184 23.2972C74.9641 26.3995 76.316 30.3955 74.8282 35.3242C73.8148 38.6844 73.7457 42.0033 74.8282 45.3474C75.3717 47.0356 75.6412 48.7676 75.2404 50.541C74.8443 50.6515 74.7798 51.0315 74.637 51.3263C73.7826 52.9685 72.7139 54.4033 71.2007 55.5342C68.3541 57.6576 66.249 60.3039 65.1919 63.8024C64.5355 65.9766 63.1191 67.7615 61.2927 69.1986C58.9504 71.0412 56.2672 71.6308 53.3883 71.6814C50.5484 71.7248 47.7895 72.6353 45.4817 74.2909C41.9418 76.7713 38.1646 77.7893 33.966 76.085C33.7058 75.9814 33.3488 75.6359 33.054 76.0919ZM33.5699 64.5279L33.5445 64.5141C33.6597 64.6039 33.761 64.7444 33.8923 64.7812C37.5773 65.9512 41.3522 66.3289 45.1638 65.6058C50.7858 64.5417 55.5279 61.9207 59.183 57.4319C63.7064 51.8768 65.3301 45.5455 64.2499 38.5094C64.1002 37.5329 64.0887 36.455 63.3655 35.6282L63.3862 35.6489C63.43 35.3748 63.4645 35.1054 63.1881 34.9188C63.1052 34.6678 63.0108 34.419 62.9394 34.1634C60.5396 25.6418 55.1088 19.9208 46.8175 16.9268C43.1325 15.5932 39.2747 15.462 35.3963 15.8673C34.7399 15.3906 33.9614 15.5426 33.2981 15.6623C27.5403 16.6872 22.6047 19.2092 18.8529 23.7717C13.5142 30.2642 12.0909 37.5905 14.3618 45.6514C14.569 46.3907 14.6266 47.289 15.4166 47.7749C16.4046 50.4696 17.57 53.0721 19.3642 55.3476C22.934 59.8871 27.5288 62.8627 33.0931 64.3667C33.1484 64.4369 33.2229 64.4895 33.3075 64.5182C33.3922 64.5468 33.4833 64.5502 33.5699 64.5279ZM23.7862 15.1649C23.8092 14.8217 23.6894 14.7296 23.5559 14.6651C22.6236 14.2274 21.8693 13.4837 21.4186 12.5577C21.0892 11.9197 20.8704 12.4518 20.7576 12.7212C20.6017 13.1318 20.3612 13.5049 20.0517 13.8164C19.7422 14.1278 19.3706 14.3707 18.9611 14.5292C18.4153 14.7457 18.3024 15.0267 18.8897 15.3445C19.7373 15.8051 20.5019 16.3164 20.8451 17.3045C20.9787 17.7075 21.331 17.7398 21.4969 17.3551C21.9091 16.4016 22.5033 15.6716 23.5167 15.3353C23.615 15.2931 23.706 15.2356 23.7862 15.1649ZM65.4084 59.7305C65.36 59.6706 65.307 59.5416 65.2218 59.5002C64.22 59.157 63.6465 58.3923 63.149 57.5172C62.9026 57.0888 62.5962 57.2477 62.3982 57.6461C62.0205 58.4108 61.5437 59.051 60.6939 59.3804C60.0536 59.6314 60.0743 60.0391 60.6939 60.3016C61.0832 60.4524 61.4365 60.6835 61.7306 60.98C62.0246 61.2764 62.2529 61.6315 62.4005 62.0221C62.6769 62.6992 63.1375 62.409 63.2688 61.9921C63.552 61.0916 64.2706 60.6955 64.9593 60.2349C65.1389 60.1105 65.3669 60.0414 65.4084 59.7305ZM18.1942 17.7835C17.7681 18.0829 17.5677 18.4422 17.2729 18.7439C16.7893 19.2621 17.6046 19.322 17.7635 19.6352C18.0307 20.1558 18.284 19.7942 18.6156 19.5408C19.9123 18.5505 18.0629 18.4399 18.1942 17.7835ZM58.6993 63.7517C59.2843 64.035 59.5492 65.3064 60.5303 64.1985C60.991 63.6873 60.5994 63.6343 60.3806 63.3418C59.4525 62.1027 59.2774 63.655 58.6993 63.7517Z" fill="#FCD22C"/>
<path d="M42.7499 3.43725C39.3275 3.23227 36.3219 4.24795 33.5374 6.25398C30.9878 8.09648 28.0099 8.70681 24.8776 8.75287C20.8057 8.81276 17.6343 10.676 15.338 13.9925C14.7611 14.8067 14.3179 15.7078 14.0253 16.6618C12.9888 20.2524 10.642 22.7882 7.8068 25.0729C4.48568 27.7468 2.99095 31.2913 3.59898 35.5936C3.62894 35.9359 3.63817 36.2797 3.62661 36.6231C1.2613 31.0748 3.18441 26.0102 7.41527 23.0738C10.1928 21.1414 11.9363 18.3546 13.0303 15.1602C14.6149 10.5378 18.1939 7.8892 23.0305 7.85235C26.7616 7.82471 30.062 6.64321 33.0929 4.52432C35.753 2.668 38.6826 2.16131 41.8264 3.02729C42.1465 3.11711 42.5081 3.15166 42.7499 3.43725Z" fill="#F8D860"/>
<path d="M33.0537 76.0919C33.3485 75.6313 33.7055 75.9813 33.9634 76.0919C38.1713 77.7962 41.9484 76.7828 45.4791 74.2978C47.787 72.6422 50.5458 71.7317 53.3858 71.6883C56.2647 71.6376 58.9478 71.0388 61.2901 69.2055C63.1326 67.7684 64.5329 65.9811 65.1893 63.8093C66.2464 60.3108 68.3515 57.6645 71.1982 55.541C72.7113 54.4102 73.78 52.9754 74.6345 51.3332C74.7865 51.0384 74.8417 50.6584 75.2379 50.5479C75.0812 51.823 74.6605 53.0516 74.0027 54.1552C73.3448 55.2588 72.4642 56.2131 71.417 56.9575C68.3263 59.1821 66.0253 62.3342 64.8484 65.9558C63.4389 70.1844 59.6295 72.8284 55.1615 72.8514C51.5051 72.8439 47.9415 74.0024 44.9885 76.1587C41.2805 78.8073 36.2205 78.7497 33.0537 76.0919Z" fill="#F7C527"/>
<path d="M3.64052 36.7472C4.99476 39.6975 5.19744 42.7837 4.44431 45.886C3.85241 48.3343 3.10619 50.7226 3.65204 53.286C2.51199 51.1395 2.19646 48.8432 2.8874 46.547C3.85932 43.3134 4.25776 40.0729 3.64052 36.7472Z" fill="#F8D860"/>
<path d="M16.4692 70.5526C17.759 70.6516 18.899 71.3034 20.1865 71.4877C22.1695 71.771 24.2055 71.5084 26.1493 72.1303C27.6325 72.607 29.0789 73.1575 30.3917 74.0165C30.5078 74.0814 30.6045 74.1759 30.6721 74.2904C30.7397 74.4049 30.7756 74.5353 30.7763 74.6683C27.9296 73.3809 24.954 72.8258 21.8194 72.7867C19.8163 72.7521 17.9022 71.9528 16.4692 70.5526Z" fill="#F7C527"/>
<path d="M33.561 64.5161H33.5449L33.5702 64.5299L33.561 64.5161ZM63.3612 35.6325C63.1424 35.4391 63.1746 35.1719 63.1839 34.9186C63.0986 34.6675 63.0042 34.4188 62.9328 34.1654C60.5353 25.6439 55.1022 19.9229 46.8109 16.9265C43.1259 15.593 39.2681 15.4617 35.392 15.8694C32.9691 16.3991 30.5554 16.961 28.3283 18.1057C20.1521 22.2943 15.5152 28.9435 14.4173 38.0531C14.0143 41.3812 14.5463 44.5917 15.41 47.7793C16.398 50.4762 17.5634 53.0765 19.3576 55.352C22.9297 59.8914 27.5222 62.8694 33.0865 64.3733C33.1723 64.3475 33.2637 64.3473 33.3496 64.3727C33.4355 64.398 33.5122 64.4479 33.5702 64.5161C36.4076 64.9307 39.2382 65.2508 42.1125 64.8593C52.7599 63.4152 60.9683 55.808 63.2161 45.3149C63.8955 42.0882 63.7781 38.8684 63.3612 35.6325ZM40.5855 62.4134C28.2338 63.2402 17.7016 53.9747 16.9278 41.9454C16.1009 29.1262 26.1748 18.1679 39.153 18.2508C49.4365 18.1264 60.2174 26.1022 61.0604 38.8938C61.9102 51.8051 52.1726 61.6326 40.5855 62.4134Z" fill="#4F3E92"/>
<path d="M33.5449 64.5141C36.3847 64.9286 39.2244 65.2488 42.1011 64.8595C52.7507 63.4132 60.9591 55.8059 63.2047 45.3128C63.8956 42.0885 63.7781 38.8641 63.359 35.6282C64.0822 36.455 64.0937 37.5329 64.2434 38.5094C65.3305 45.5455 63.7067 51.8676 59.1765 57.4319C55.5237 61.9184 50.7793 64.5417 45.1573 65.6057C41.3456 66.3289 37.5754 65.9512 33.8858 64.7812C33.7614 64.7398 33.6601 64.6039 33.5449 64.5141Z" fill="#F8D860"/>
<path d="M35.3798 15.8671C32.9592 16.3991 30.5432 16.9611 28.3161 18.1058C20.1415 22.2944 15.5046 28.9435 14.4052 38.0532C14.0021 41.3812 14.5342 44.5918 15.4001 47.7793C14.6102 47.2934 14.5526 46.3974 14.3453 45.6558C12.0744 37.5949 13.4978 30.264 18.8364 23.7761C22.5882 19.209 27.533 16.687 33.2817 15.6598C33.945 15.5424 34.7234 15.3904 35.3798 15.8671Z" fill="#F7C527"/>
<path d="M23.7862 15.1647C23.7025 15.2365 23.6076 15.2941 23.5053 15.3352C22.4919 15.6714 21.8931 16.4015 21.4854 17.355C21.3196 17.7396 20.9672 17.7074 20.8336 17.3043C20.4974 16.3163 19.7258 15.8027 18.8852 15.3444C18.2979 15.0265 18.4107 14.7456 18.9566 14.5291C19.3661 14.3706 19.7377 14.1277 20.0472 13.8162C20.3567 13.5047 20.5972 13.1316 20.753 12.7211C20.8659 12.4516 21.0847 11.9196 21.414 12.5576C21.8659 13.4843 22.6219 14.2282 23.5559 14.6649C23.6895 14.7386 23.8093 14.8216 23.7862 15.1647Z" fill="#FDDD5E"/>
<path d="M65.4087 59.7302C65.3742 60.0411 65.1462 60.1148 64.9481 60.2392C64.2572 60.6998 63.5409 61.0959 63.2576 61.9965C63.1263 62.4133 62.6657 62.7035 62.3893 62.0264C62.2417 61.6358 62.0135 61.2807 61.7194 60.9843C61.4254 60.6878 61.0721 60.4567 60.6827 60.306C60.0563 60.0503 60.0355 59.6427 60.6827 59.3847C61.5326 59.0554 62.0093 58.4151 62.387 57.6505C62.5851 57.252 62.8914 57.0931 63.1379 57.5215C63.6446 58.3967 64.218 59.1613 65.2107 59.5045C65.3005 59.5413 65.3535 59.6703 65.4087 59.7302Z" fill="#FDDD5E"/>
<path d="M18.194 17.7834C18.0673 18.4398 19.9168 18.5504 18.627 19.5407C18.2954 19.7941 18.042 20.1557 17.7748 19.6352C17.6159 19.3219 16.8006 19.2621 17.2843 18.7439C17.563 18.4421 17.7633 18.0829 18.194 17.7834Z" fill="#FDDD5E"/>
<path d="M58.6992 63.7514C59.2773 63.6547 59.4523 62.1024 60.3805 63.3415C60.5993 63.634 60.9839 63.6869 60.5302 64.1982C59.5491 65.306 59.2842 64.0255 58.6992 63.7514Z" fill="#FDDD5E"/>
<path d="M63.3792 35.6488C63.1489 35.453 63.1742 35.1882 63.1811 34.9187C63.4575 35.1053 63.423 35.3747 63.3792 35.6488Z" fill="#F8D860"/>
<path d="M33.0771 64.3711C33.1655 64.3449 33.2598 64.3458 33.3476 64.3737C33.4355 64.4016 33.513 64.4552 33.57 64.5277C33.4816 64.5539 33.3874 64.553 33.2995 64.5251C33.2117 64.4972 33.1342 64.4435 33.0771 64.3711Z" fill="#F8D860"/>
<path d="M25.1956 54.2743C25.5986 51.8099 26.0109 49.0093 26.5337 46.2317C26.741 45.1262 26.4899 44.3547 25.6562 43.6016C23.8137 41.9318 22.0587 40.1676 20.2461 38.4656C18.9932 37.291 18.4036 35.8999 18.9449 34.2301C19.4585 32.6179 20.6814 31.8003 22.3443 31.5585C24.956 31.1831 27.5563 30.7271 30.1749 30.3862C31.0547 30.2733 31.5407 29.8588 31.9 29.1103C33.1091 26.5952 34.2929 24.0664 35.585 21.5951C36.7366 19.4164 39.3138 18.8913 41.2622 20.3261C41.9716 20.8489 42.3286 21.6159 42.7063 22.3644C43.8095 24.5478 44.9173 26.7403 45.9744 28.9352C46.4028 29.8288 47.027 30.225 48.0104 30.3332C50.5577 30.6119 53.098 30.9643 55.6338 31.3236C57.315 31.5539 58.5587 32.3807 59.0885 34.0873C59.5975 35.7156 59.0148 36.9916 57.8678 38.1178C56.0391 39.9142 54.2473 41.7498 52.3933 43.5163C51.6539 44.2211 51.3937 44.8982 51.6171 45.9485C52.1629 48.4819 52.5591 51.0568 53.0151 53.6156C53.2915 55.1702 52.9276 56.5406 51.6516 57.5148C50.3757 58.489 49.0053 58.6387 47.5567 57.8902C45.1453 56.6442 42.7201 55.4397 40.3248 54.1453C39.4773 53.6847 38.7887 53.7307 37.971 54.1798C35.5251 55.5249 33.0792 56.8745 30.5711 58.0952C28.0307 59.332 25.1034 57.3881 25.1956 54.2743ZM39.1525 51.2226C39.8849 51.1121 40.5851 51.4023 41.276 51.7616C43.6882 53.0129 46.1034 54.2574 48.5217 55.4949C49.0123 55.746 49.5259 55.9141 50.0233 55.4949C50.484 55.1103 50.5853 54.6336 50.484 54.0509C50.0095 51.4598 49.6157 48.8527 49.0767 46.2755C48.7036 44.486 49.1343 43.0649 50.4471 41.8097C52.2735 40.0663 54.0515 38.2675 55.8295 36.4734C56.2648 36.0358 56.9235 35.6857 56.6402 34.8612C56.3569 34.0367 55.6614 33.9399 54.9843 33.8501C52.5268 33.4977 50.0717 33.1223 47.6027 32.8598C45.7602 32.6617 44.4774 31.8256 43.6713 30.1421C42.5681 27.8389 41.3682 25.5542 40.2373 23.258C39.9586 22.696 39.6869 22.1064 38.9545 22.1064C38.2221 22.1064 37.925 22.6385 37.644 23.2234C36.5063 25.6049 35.3409 27.9725 34.1893 30.347C33.4984 31.745 32.4597 32.6502 30.8774 32.8805C28.2703 33.2651 25.6631 33.6589 23.0629 34.0827C22.4065 34.191 21.6395 34.2163 21.4023 35.0685C21.1651 35.9206 21.7985 36.3375 22.2752 36.8027C24.0509 38.5439 25.8059 40.3104 27.6576 41.9663C29.0395 43.2054 29.4126 44.6886 29.1362 46.4183C28.7508 48.8304 28.3486 51.2403 27.9294 53.6478C27.8027 54.3733 27.5517 55.1149 28.3025 55.6331C29.0533 56.1513 29.6844 55.6976 30.3339 55.3567C32.637 54.1284 34.9324 52.9001 37.2202 51.6717C37.8025 51.326 38.4775 51.1691 39.1525 51.2226Z" fill="#4E3C94"/>
<path d="M39.1524 51.2227C38.4753 51.1721 37.7993 51.3331 37.2177 51.6833C34.9238 52.9116 32.6284 54.14 30.3314 55.3683C29.6888 55.7092 29.0324 56.1514 28.3 55.6447C27.5676 55.138 27.8002 54.3849 27.9269 53.6594C28.3461 51.2518 28.7484 48.842 29.1337 46.4298C29.4101 44.7002 29.0416 43.217 27.6551 41.9779C25.8126 40.3219 24.0484 38.5554 22.2727 36.8143C21.796 36.3536 21.1649 35.916 21.3998 35.08C21.6347 34.244 22.404 34.2025 23.0604 34.0943C25.6606 33.6705 28.2678 33.2767 30.8749 32.892C32.4572 32.6617 33.5051 31.7566 34.1868 30.3586C35.3384 27.9841 36.49 25.6164 37.6415 23.235C37.9179 22.6362 38.2311 22.1088 38.9474 22.1088C39.6637 22.1088 39.9516 22.6938 40.2302 23.2603C41.3818 25.5635 42.561 27.8297 43.6642 30.1444C44.4703 31.828 45.7508 32.664 47.5957 32.8621C50.0646 33.1246 52.5198 33.5001 54.9772 33.8524C55.6543 33.9492 56.3591 34.0551 56.6331 34.8635C56.9072 35.6719 56.2577 36.0427 55.8224 36.4757C54.0444 38.2698 52.2664 40.0686 50.44 41.8121C49.1272 43.0673 48.6965 44.4883 49.0697 46.2778C49.6086 48.855 50.0024 51.4622 50.4769 54.0532C50.5828 54.6359 50.4769 55.1126 50.0162 55.4973C49.5188 55.9187 49.0052 55.7506 48.5146 55.4973C46.0963 54.2597 43.6811 53.0153 41.2689 51.7639C40.5826 51.4023 39.8825 51.1121 39.1524 51.2227Z" fill="#DE6EA8"/>
<path d="M9.54394 64.1844C9.43109 63.885 9.33666 63.6455 9.28369 63.5073L9.50019 64.0071C9.51806 64.0654 9.53266 64.1246 9.54394 64.1844Z" fill="#4E3D93"/>
<path d="M50.9267 76.0503C50.7218 76.1217 50.5191 76.2023 50.3187 76.2944L50.1782 76.3129C50.4592 76.2092 50.7125 76.1217 50.9267 76.0503Z" fill="#4E3D93"/>
</svg>
