<svg width="73" height="81" viewBox="0 0 73 81" fill="none" xmlns="http://www.w3.org/2000/svg">
<path d="M32.0024 80.4081C28.6478 77.3212 27.5333 73.3384 27.5989 68.9677C27.5989 67.4434 27.3421 66.5365 25.6539 66.0229C11.3726 61.6522 9.41123 50.5561 12.8149 39.4654C16.541 27.3093 28.025 18.8356 40.6782 18.5461C54.5443 18.2292 66.2633 25.8069 70.8526 38.1214C71.9438 41.1001 72.5381 44.2378 72.6118 47.4092C72.8522 55.6043 69.1808 61.4501 61.603 64.6735C59.8547 65.4165 59.3029 66.2633 59.3576 68.252C59.4778 72.8303 58.6528 77.2338 54.812 80.419H52.0803C50.3985 79.2557 49.1089 77.6099 48.3816 75.6986C47.7069 77.7004 46.3155 79.3817 44.4753 80.419H42.2899C40.6509 79.4028 39.5582 77.8184 38.2962 75.8571C37.657 78.1954 36.2037 79.3372 34.6849 80.419L32.0024 80.4081ZM24.3208 27.1782C19.7143 30.1522 16.419 34.7747 15.1096 40.0991C11.318 54.5225 16.0329 60.4667 26.7193 63.9086C29.3308 64.75 30.0629 66.0011 29.8935 68.5306C29.7069 71.2569 30.3162 73.9786 31.6472 76.3651C32.8547 78.5505 34.1003 78.5505 35.4716 76.54C36.1653 75.478 36.6373 74.2868 36.8593 73.0379C37.0396 72.1474 37.4603 71.4809 38.4218 71.4536C39.5145 71.4262 39.9953 72.06 40.2029 73.0926C40.4066 73.972 40.7033 74.8273 41.088 75.644C41.5578 76.7367 42.137 77.9659 43.4646 77.955C44.7922 77.9441 45.3167 76.6383 45.8357 75.6003C46.1932 74.8802 46.4663 74.1212 46.6497 73.3384C46.8901 72.2895 47.2671 71.3771 48.5018 71.3716C49.7365 71.3661 49.8677 72.3004 50.0971 73.2182C50.3023 74.0039 50.5765 74.77 50.9166 75.5074C51.4029 76.5673 51.8345 77.8621 53.2167 77.9113C54.7683 77.9714 55.2272 76.5345 55.7408 75.4309C56.9578 72.6888 57.3799 69.6599 56.9591 66.6895C56.7297 64.6735 57.5055 63.8376 59.2811 63.0946C68.6344 59.1773 71.8469 52.8452 69.7435 42.951C68.4236 36.6495 64.9584 31.001 59.939 26.9689C54.9196 22.9368 48.6568 20.771 42.2189 20.8407C35.5863 20.8789 29.3581 22.4797 24.3099 27.1892L24.3208 27.1782Z" fill="#554392"/>
<path d="M7.0461 15.2571C5.45625 12.4326 3.73528 9.99588 2.98133 7.09482C2.65353 5.82732 2.35304 4.53796 3.45665 3.56547C4.56026 2.59299 5.84962 3.16118 6.99147 3.72937C9.17682 4.82205 10.9634 6.46107 12.8755 8.28584C13.3126 6.28624 13.5038 4.49971 14.1157 2.86069C14.968 0.571532 16.5032 0.128997 18.6503 1.32002C21.6279 2.97542 22.9391 5.82732 23.9498 8.87043C24.5974 10.917 25.0116 13.0301 25.1846 15.1697C23.2341 14.984 21.9557 13.7929 20.497 13.0718C18.7979 12.2304 17.8636 12.1048 18.0111 14.5633C18.2679 19.0323 17.8472 19.5732 13.4273 20.6659C11.3021 21.2122 11.4605 22.7037 11.4223 24.228C11.3239 28.2436 11.1273 28.3365 7.49956 26.4134C5.08474 25.1186 2.79012 23.6817 1.26037 21.3597C0.38076 20.0212 -0.55348 18.5242 0.402614 16.8251C1.30407 15.2517 2.92124 15.279 4.46738 15.2571C5.18855 15.2462 5.90971 15.2571 7.0461 15.2571Z" fill="#4D3D95"/>
<path d="M24.3108 27.1891C29.359 22.4852 35.5873 20.8899 42.2198 20.8407C48.654 20.7697 54.9137 22.9317 59.9326 26.9583C64.9514 30.985 68.419 36.6272 69.7444 42.9237C71.8642 52.8179 68.6517 59.15 59.282 63.0672C57.5173 63.8103 56.7306 64.6462 56.9601 66.6622C57.3808 69.6326 56.9587 72.6614 55.7417 75.4036C55.2282 76.4963 54.7693 77.9441 53.2177 77.884C51.8354 77.8348 51.4038 76.54 50.9176 75.4801C50.5775 74.7427 50.3032 73.9766 50.0981 73.1909C49.8686 72.2731 49.6719 71.3388 48.5027 71.3443C47.3336 71.3498 46.8637 72.2621 46.6507 73.3111C46.4728 74.1028 46.2032 74.871 45.8475 75.6003C45.3012 76.6383 44.804 77.9386 43.4764 77.955C42.1488 77.9714 41.5697 76.7312 41.0998 75.644C40.7152 74.8273 40.4185 73.972 40.2148 73.0926C40.0072 72.0491 39.5045 71.4153 38.4337 71.4536C37.4722 71.4536 37.0515 72.1474 36.8712 73.0379C36.6558 74.2852 36.1913 75.4763 35.5053 76.54C34.1231 78.5669 32.8774 78.5505 31.681 76.3651C30.3499 73.9786 29.7406 71.2569 29.9272 68.5306C30.0966 66.0011 29.3809 64.75 26.753 63.9086C16.0666 60.4667 11.3517 54.5225 15.1433 40.0991C16.4446 34.78 19.7276 30.1583 24.3218 27.1782C24.3873 27.5333 24.3218 27.9704 24.5294 28.2272C25.3871 29.3745 26.4142 29.0139 27.3266 28.3365C27.873 27.9322 28.8509 27.364 28.4576 26.6974C27.7801 25.5556 26.9005 26.6701 26.152 26.9324C25.5733 27.1847 24.9365 27.2735 24.3108 27.1891ZM42.9465 45.1582C43.0503 43.3335 42.3728 40.722 41.2037 38.2471C37.718 30.866 29.4956 29.2926 23.8191 35.0947C18.689 40.3177 17.427 46.6771 19.5249 53.5992C20.9181 58.1775 23.6771 61.7342 28.758 62.428C33.839 63.1219 37.3738 60.4011 40.0236 56.3855C42.0614 53.2714 42.8918 49.7912 42.9465 45.1582ZM64.5378 51.4849C64.3575 48.5018 63.6418 45.7428 61.7351 43.41C59.0416 40.1319 54.7092 39.9298 51.7917 42.9838C47.6614 47.3108 47.7106 55.8119 51.8955 60.117C54.6982 62.9962 58.7466 62.9088 61.451 59.9094C63.6254 57.4946 64.3794 54.5717 64.5378 51.4849ZM41.2801 65.4711C41.8265 66.0448 41.679 68.0171 43.5037 66.4108C43.9681 66.0011 44.0501 65.7826 44.6674 66.4108C46.1753 67.8914 46.6561 66.6348 46.6944 65.3182C46.7545 63.5098 45.6454 61.7233 44.1375 61.6686C42.5258 61.5921 41.7008 63.5043 41.2801 65.4711Z" fill="#F9CF2D"/>
<path d="M42.9457 45.1583C42.8911 49.7912 42.0716 53.2714 40.0228 56.3691C37.3731 60.3847 33.8656 63.1055 28.7573 62.4116C23.649 61.7178 20.9173 58.1611 19.5242 53.5828C17.4262 46.6607 18.6883 40.3013 23.8184 35.0947C29.5003 29.309 37.7173 30.8824 41.2029 38.2635C42.3721 40.722 43.0495 43.3335 42.9457 45.1583Z" fill="#4C3A91"/>
<path d="M64.5373 51.4848C64.3789 54.588 63.6249 57.4946 61.4505 59.9094C58.7461 62.9088 54.6977 62.9962 51.895 60.117C47.71 55.8118 47.6609 47.3108 51.7912 42.9838C54.7087 39.9298 59.0411 40.11 61.7346 43.4099C63.6413 45.7264 64.357 48.4854 64.5373 51.4848Z" fill="#4C3B91"/>
<path d="M41.2803 65.4713C41.701 63.5099 42.5259 61.5923 44.1376 61.6469C45.6455 61.7015 46.7546 63.4881 46.6945 65.2964C46.6563 66.6077 46.1482 67.8642 44.6676 66.3891C44.0502 65.7881 43.9683 66.0067 43.5039 66.3891C41.6791 68.0172 41.8375 66.0449 41.2803 65.4713Z" fill="#57448B"/>
<path d="M24.3105 27.1892C24.9362 27.2736 25.573 27.1848 26.1517 26.9325C26.9002 26.6702 27.7907 25.5557 28.4573 26.6975C28.8506 27.3641 27.8672 27.9323 27.3263 28.3366C26.414 29.014 25.3868 29.3746 24.5291 28.2273C24.3379 27.9705 24.387 27.5334 24.3215 27.1783L24.3105 27.1892Z" fill="#FDDC5C"/>
</svg>
