<svg width="60" height="69" viewBox="0 0 60 69" fill="none" xmlns="http://www.w3.org/2000/svg">
<path d="M0 42.8635C0.559756 41.1732 0.945336 40.8935 2.75623 40.8935H18.6927V40.1633C18.6927 38.4375 18.6847 36.7131 18.6927 34.9873C18.7006 33.7068 19.5117 32.9017 20.8094 32.9004C26.9095 32.8952 33.0101 32.8952 39.1111 32.9004C40.4527 32.9004 41.2637 33.6884 41.2664 35.0136C41.2744 38.0278 41.2664 41.0419 41.2664 44.0548V44.8257H57.4873C59.1374 44.8257 59.8806 45.5507 59.8806 47.1727C59.8806 53.4619 59.8806 59.7515 59.8806 66.0416C59.8806 67.7056 59.144 68.4188 57.4448 68.4188H2.75623C0.946666 68.4241 0.562415 68.1496 0 66.454V42.8635ZM22.7213 36.8563V64.4472H37.243V36.8563H22.7213ZM4.06721 64.4367H18.6528V44.8848H4.06721V64.4367ZM41.3209 48.7855V64.4525H55.8639V48.7855H41.3209Z" fill="#4E3D93"/>
<path d="M30.2939 0.423018C30.813 0.744735 31.2659 1.15061 31.4158 1.95559C31.511 2.45251 31.4603 2.97903 31.274 3.42793C31.0877 3.87684 30.7799 4.21439 30.4132 4.37186C30.056 4.5339 29.6661 4.51086 29.3211 4.30733C28.9761 4.1038 28.7014 3.73473 28.5518 3.27368C28.3931 2.80592 28.3749 2.2751 28.5008 1.79002C28.6267 1.30493 28.8872 0.902307 29.229 0.664645C29.3453 0.580483 29.4646 0.500393 29.5819 0.418945L30.2939 0.423018Z" fill="#4E3D93"/>
<path d="M23.6691 11.9839L28.0568 7.57674C29.4862 6.14495 30.3979 6.15168 31.8434 7.60099C33.1397 8.89764 34.436 10.1956 35.7323 11.495C35.8882 11.6499 36.0523 11.798 36.2365 11.9718C37.9994 10.7717 39.7327 9.57964 41.47 8.41319C42.6493 7.62389 44.1486 8.0576 44.552 9.33045C44.6712 9.78295 44.6891 10.2562 44.6045 10.7165C44.2105 13.3255 43.7802 15.9304 43.3647 18.5368C42.933 21.2306 42.4933 23.9245 42.0778 26.6184C41.8277 28.2347 41.1688 28.8368 39.5391 28.8368H20.2993C18.7435 28.8368 18.0537 28.2347 17.8117 26.714C16.9726 21.4354 16.1214 16.1581 15.2958 10.8767C15.2178 10.3797 15.1775 9.82747 15.3133 9.35604C15.6817 8.0778 17.1958 7.61446 18.3791 8.39568C20.1232 9.55809 21.8551 10.7515 23.6691 11.9839ZM21.5849 24.7515H38.2952C38.8479 21.2872 39.3911 17.8754 39.9586 14.3222C38.9851 14.9835 38.1433 15.5654 37.2908 16.1311C36.215 16.8477 35.3194 16.7628 34.401 15.851C33.0832 14.5417 31.7749 13.2231 30.4625 11.9085C30.2957 11.7415 30.1209 11.5839 29.9246 11.398C28.4387 12.8877 27.0039 14.3303 25.5651 15.7688C24.5324 16.7979 23.6826 16.8733 22.4643 16.049C21.6575 15.5008 20.8507 14.9472 19.9175 14.3141C20.4863 17.8714 21.0309 21.2859 21.5849 24.7515Z" fill="#4E3D93"/>
<path d="M18.2687 4.48416C18.2676 4.88533 18.1477 5.27719 17.924 5.61025C17.7004 5.94331 17.3831 6.20263 17.0122 6.35547C16.6412 6.50831 16.2334 6.54781 15.84 6.46898C15.4466 6.39016 15.0855 6.19654 14.8021 5.91258C14.5187 5.62862 14.3258 5.26705 14.2478 4.87354C14.1697 4.48003 14.21 4.07222 14.3636 3.7016C14.5172 3.33099 14.7772 3.0142 15.1107 2.79123C15.4442 2.56826 15.8363 2.44912 16.2375 2.44885C16.7758 2.45244 17.291 2.66815 17.6712 3.04918C18.0515 3.43022 18.2662 3.94584 18.2687 4.48416Z" fill="#4E3D93"/>
<path d="M43.6268 2.44891C44.0289 2.44596 44.4228 2.5625 44.7585 2.78374C45.0943 3.00498 45.3568 3.32096 45.5127 3.6916C45.6686 4.06223 45.7109 4.47083 45.6343 4.86556C45.5577 5.26029 45.3655 5.62336 45.0823 5.90873C44.799 6.1941 44.4373 6.38891 44.0432 6.46845C43.649 6.54798 43.2401 6.50866 42.8684 6.35548C42.4966 6.20229 42.1787 5.94214 41.955 5.60801C41.7313 5.27389 41.6118 4.88086 41.6118 4.47876C41.6118 3.94298 41.8236 3.42892 42.2011 3.04867C42.5785 2.66843 43.091 2.45284 43.6268 2.44891Z" fill="#4E3D93"/>
<path d="M37.552 35.9414H22.3281V64.3593H37.552V35.9414Z" fill="#DE6EA8"/>
<path d="M4.05957 64.3593V45.0757H18.2685V64.3593H4.05957Z" fill="#DE6EA8"/>
<path d="M41.6118 48.1204H55.8208V64.3592H41.6118V48.1204Z" fill="#DE6EA8"/>
<path d="M21.9014 24.7772C21.3684 21.3529 20.8443 17.9792 20.2983 14.4644C21.1924 15.0899 21.9687 15.6369 22.7489 16.1785C23.9134 16.993 24.7388 16.9185 25.7325 15.9017C27.1169 14.4804 28.4975 13.055 29.9272 11.5831C30.1148 11.7668 30.283 11.9225 30.4447 12.0875C31.7075 13.3864 32.9665 14.6893 34.2344 15.9829C35.1181 16.8839 35.9785 16.9677 37.0149 16.2597C37.8352 15.7008 38.6452 15.1258 39.5819 14.4724C39.0359 17.9832 38.5132 21.3542 37.9814 24.7772H21.9014Z" fill="#FCD22C"/>
</svg>
