<svg width="46" height="58" viewBox="0 0 46 58" fill="none" xmlns="http://www.w3.org/2000/svg">
<path d="M23.7762 57.3211C9.58947 57.517 -0.655816 47.6694 0.0327432 34.4621C0.278595 29.7202 2.27529 25.2382 5.63619 21.8841C6.88866 20.5841 7.9393 20.3526 8.50914 22.4776C8.58631 22.7626 8.68722 23.0356 8.78813 23.3146C9.92781 26.3597 11.946 27.8377 14.1304 27.2204C16.4632 26.5556 17.8225 23.5817 16.9677 20.6316C16.5641 19.2367 15.7806 17.9605 15.2226 16.6071C12.8779 10.9265 15.466 3.86873 20.9151 1.01358C22.3397 0.265667 23.5981 -0.173587 23.5862 2.20076C23.5506 6.75949 25.9606 9.61464 29.896 11.5616C35.9447 14.5295 39.9336 19.575 43.0677 25.3328C51.461 40.7957 40.8477 57.9147 23.7762 57.3211ZM10.557 51.5752C10.6638 51.6761 10.8479 51.8779 10.8775 51.8601C11.1684 51.6583 11.0022 51.4802 10.8123 51.32C10.5095 50.6077 10.2187 49.8775 9.90407 49.1831C7.52973 44.1969 8.87123 36.4388 12.8126 32.5211C13.7268 31.6129 14.4272 31.0134 15.7509 32.1115C19.0928 34.8776 22.2803 33.6667 23.5922 29.4701C24.5241 26.4606 23.4616 23.6945 23.0282 20.8334C22.7255 18.8033 22.9748 17.7052 25.6578 18.4591C31.38 20.0202 35.357 22.911 35.452 29.3276C35.6866 29.3442 35.9185 29.2684 36.0981 29.1165C36.2778 28.9646 36.391 28.7486 36.4136 28.5144C36.6035 27.6774 36.4967 26.5912 37.5414 26.3241C38.7286 26.0095 39.2331 27.0957 39.7555 27.8852C40.9426 29.7253 42.1298 31.607 43.3704 33.5955C43.6683 32.5838 43.5838 31.4979 43.133 30.5445C40.5212 23.2137 36.1999 17.165 29.2787 13.3958C25.0761 11.1223 21.9064 8.31469 21.7342 3.11488C16.4454 6.47457 14.8961 11.5557 17.3892 16.8148C18.054 18.2216 18.8078 19.575 19.0393 21.1717C19.5439 24.6561 17.9828 27.8733 15.1692 28.8884C12.3556 29.9034 9.6132 28.7222 7.62469 25.4456C7.33977 24.9707 7.06079 24.4958 6.75806 23.9794C-1.08914 31.7613 0.976533 46.1914 10.557 51.5989V51.5752ZM36.3958 51.225C43.5604 46.1854 44.1955 37.4479 38.509 29.5057C37.4702 30.3961 36.8172 32.0937 34.9474 31.3221C33.3982 30.681 33.3448 29.2564 33.1667 27.8971C32.5731 23.3443 30.1987 21.237 24.9693 20.6969C25.2186 21.9731 25.456 23.1899 25.6816 24.4127C26.2477 27.1372 25.798 29.9746 24.4172 32.3905C22.7433 35.3584 19.0334 36.8543 16.4276 35.0795C13.982 33.4174 13.3469 34.6758 12.3912 36.4506C11.6407 37.8209 11.0985 39.2953 10.7826 40.8254C9.447 47.4201 13.9464 54.0208 20.0663 54.2345C18.796 52.3172 17.2348 50.673 17.0152 48.2986C16.8193 46.2033 17.0805 44.6718 19.811 45.4316C21.479 45.9005 22.1853 44.9033 22.4109 43.4906C22.5307 42.6212 22.5526 41.7412 22.4762 40.8669C22.3575 39.0209 23.0698 38.0177 24.8506 39.0446C27.3495 40.4811 27.0884 38.8369 27.0765 37.3232C27.0846 36.6411 27.0509 35.9592 26.9756 35.2813C26.845 34.2662 26.0437 33.174 27.1715 32.3134C28.4002 31.3577 29.623 32.07 30.733 32.628C31.6228 33.047 32.4277 33.6266 33.1073 34.3375C37.3871 39.0743 38.9541 44.4878 36.3958 51.2487V51.225ZM24.5241 41.134C24.1442 44.3216 24.1679 47.6041 19.6626 47.3786C18.2261 47.3014 18.8791 48.4767 19.0334 49.0762C19.7279 51.7355 22.8027 54.1989 25.6875 54.5253C27.9839 54.7748 30.2909 54.1587 32.1571 52.7975C34.0233 51.4362 35.3146 49.4278 35.7785 47.1649C36.7935 42.2559 33.232 35.3584 28.8632 34.0526C28.7801 36.6762 29.1481 39.3117 28.2696 41.8345C27.8007 43.1641 27.1477 43.7043 26.0615 42.3568C25.9047 42.0595 25.6865 41.7989 25.4215 41.5922C25.1565 41.3855 24.8506 41.2374 24.5241 41.1578V41.134Z" fill="#564394"/>
<path d="M34.1269 7.57278C34.13 7.40674 34.1658 7.24293 34.2322 7.09071C34.2986 6.93849 34.3943 6.80085 34.5139 6.68565C34.6336 6.57044 34.7747 6.47993 34.9293 6.41928C35.0839 6.35863 35.2489 6.32904 35.415 6.33219C35.5845 6.3101 35.7568 6.32642 35.9191 6.37994C36.0814 6.43346 36.2296 6.52282 36.3528 6.64138C36.4759 6.75994 36.5708 6.90468 36.6304 7.06488C36.69 7.22508 36.7128 7.39664 36.6971 7.56684C36.7216 7.73677 36.7069 7.91003 36.6542 8.07343C36.6015 8.23682 36.5123 8.38604 36.3932 8.5097C36.2741 8.63336 36.1284 8.7282 35.9671 8.787C35.8058 8.8458 35.6332 8.867 35.4625 8.84899C35.2889 8.86148 35.1147 8.83749 34.9509 8.77858C34.7872 8.71966 34.6376 8.62712 34.5118 8.5069C34.386 8.38669 34.2868 8.24147 34.2205 8.08059C34.1542 7.91971 34.1223 7.74673 34.1269 7.57278Z" fill="#57479A"/>
<path d="M2.36503 17.5508C2.20167 17.5405 2.0424 17.4953 1.89798 17.4183C1.75355 17.3413 1.62732 17.2342 1.52776 17.1043C1.42821 16.9743 1.35765 16.8246 1.32084 16.6651C1.28403 16.5056 1.28184 16.3401 1.31439 16.1796C1.31969 16.0072 1.36249 15.838 1.43984 15.6838C1.51718 15.5296 1.62719 15.3942 1.76222 15.2868C1.89726 15.1795 2.05406 15.1028 2.22172 15.0622C2.38939 15.0217 2.56387 15.0181 2.73305 15.0518C2.9063 15.0496 3.07795 15.0853 3.23594 15.1565C3.39392 15.2276 3.53441 15.3325 3.64754 15.4638C3.76067 15.595 3.84371 15.7494 3.89082 15.9161C3.93793 16.0829 3.94796 16.2579 3.92022 16.429C3.81931 17.2006 3.29696 17.628 2.36503 17.5508Z" fill="#5A4B9C"/>
<path d="M10.556 51.599C0.975492 46.1914 -1.09018 31.7613 6.75702 24.015C7.05975 24.5315 7.3506 25.0063 7.62365 25.4812C9.61216 28.7578 12.3071 29.9865 15.1681 28.924C18.0292 27.8615 19.5429 24.6621 19.0383 21.2074C18.8068 19.6106 18.053 18.2395 17.3881 16.8505C14.8951 11.5913 16.4443 6.51021 21.7332 3.15051C21.9053 8.35032 25.0751 11.158 29.2777 13.4314C36.2226 17.1947 40.5202 23.2434 43.1319 30.5742C43.5828 31.5276 43.6673 32.6135 43.3694 33.6252C42.1347 31.607 40.9475 29.7253 39.7604 27.8852C39.238 27.0958 38.7572 26.0095 37.5463 26.3241C36.5016 26.5912 36.6084 27.6775 36.4185 28.5144C36.3959 28.7486 36.2827 28.9646 36.103 29.1166C35.9234 29.2685 35.6916 29.3442 35.4569 29.3276C35.3619 22.911 31.3849 20.0202 25.6627 18.4591C22.9797 17.729 22.7304 18.8271 23.0331 20.8334C23.4665 23.6945 24.529 26.4606 23.597 29.4701C22.303 33.6667 19.0977 34.8777 15.7558 32.1116C14.4321 31.0134 13.7316 31.6129 12.8175 32.5211C8.87611 36.4388 7.51087 44.197 9.90896 49.1831C10.2414 49.8776 10.5025 50.6077 10.8171 51.32C10.7222 51.4268 10.6391 51.5159 10.556 51.599Z" fill="#DB6DA8"/>
<path d="M36.396 51.2488C38.9543 44.4878 37.3813 39.0743 33.0779 34.3019C32.3982 33.591 31.5933 33.0114 30.7035 32.5924C29.5994 32.0344 28.3767 31.3221 27.142 32.2778C26.0142 33.1503 26.8155 34.2425 26.9461 35.2457C27.0215 35.9236 27.0552 36.6056 27.047 37.2876C27.047 38.8013 27.3201 40.4455 24.8211 39.009C23.0403 37.9821 22.328 39.009 22.4467 40.8313C22.5231 41.7056 22.5012 42.5856 22.3814 43.455C22.15 44.8677 21.4495 45.8649 19.7815 45.396C17.051 44.6362 16.8136 46.1677 16.9858 48.263C17.2054 50.6018 18.7665 52.2757 20.0368 54.1989C13.9169 53.9852 9.41754 47.3845 10.7531 40.7898C11.0691 39.2598 11.6112 37.7853 12.3617 36.4151C13.3174 34.6343 13.9525 33.3818 16.3981 35.0439C19.004 36.8246 22.7139 35.3407 24.3878 32.3549C25.7575 29.9547 26.2089 27.1387 25.658 24.4306C25.4325 23.2078 25.195 21.9909 24.9457 20.7147C30.193 21.2549 32.5436 23.3621 33.1432 27.9149C33.3212 29.2742 33.3747 30.6988 34.9239 31.3399C36.7878 32.1116 37.4407 30.4139 38.4854 29.5235C44.1957 37.4716 43.5606 46.2092 36.396 51.2488Z" fill="#F7CE2F"/>
<path d="M24.5231 41.1579C24.8464 41.2377 25.1493 41.3846 25.4121 41.5892C25.6749 41.7937 25.8918 42.0512 26.0486 42.345C27.1348 43.6925 27.7878 43.1523 28.2567 41.8227C29.1471 39.2999 28.7791 36.6644 28.8503 34.0408C33.231 35.3585 36.7925 42.256 35.7834 47.1887C35.3195 49.4516 34.0282 51.4601 32.162 52.8213C30.2958 54.1826 27.9888 54.7987 25.6924 54.5492C22.8076 54.2227 19.7566 51.7593 19.0383 49.1C18.884 48.5065 18.2311 47.3193 19.6675 47.4024C24.1669 47.6279 24.1432 44.3454 24.5231 41.1579Z" fill="#FAF9FB"/>
<path d="M10.8132 51.3438C11.0035 51.5043 11.1699 51.6826 10.8786 51.8847C10.8786 51.8847 10.6646 51.7004 10.5576 51.5994C10.6408 51.5161 10.7241 51.427 10.8132 51.3438Z" fill="#DB6DA8"/>
</svg>
