<svg width="89" height="93" viewBox="0 0 89 93" fill="none" xmlns="http://www.w3.org/2000/svg">
<path d="M85.3886 51.745C84.1561 47.9214 84.2349 44.1398 85.3886 40.3056C87.0862 34.6845 85.5331 30.1224 80.8107 26.5852C77.673 24.2358 75.5365 21.19 74.2225 17.5162C72.1754 11.7768 68.3649 9.05425 62.2812 8.95964C59.8802 8.88752 57.512 8.38183 55.2909 7.46698C53.1885 6.64706 51.5487 5.06768 49.4937 4.20046C49.4026 4.09758 49.2884 4.01774 49.1605 3.9675C49.0326 3.91725 48.8946 3.89802 48.7578 3.91139C48.4819 3.59603 48.0798 3.55924 47.7067 3.45675C44.1195 2.46602 40.7794 3.04417 37.7416 5.16491C34.3016 7.57998 30.5358 8.93336 26.2785 8.96227C20.7599 9.00432 16.6787 12.0264 14.8707 17.2981C13.6198 20.9456 11.633 24.1307 8.46113 26.3277C3.63362 29.694 1.43929 35.4571 4.13818 41.7825C4.12822 41.7922 4.12065 41.8041 4.11608 41.8172C4.11151 41.8303 4.11006 41.8443 4.11184 41.8581C4.11363 41.8719 4.1186 41.885 4.12637 41.8965C4.13413 41.9081 4.14447 41.9176 4.15657 41.9244C4.86086 45.727 4.4036 49.4167 3.29461 53.1037C2.50623 55.7316 2.86626 58.3438 4.16709 60.793C4.8464 62.4598 5.98796 63.8976 7.45726 64.9372C11.067 67.4491 13.7366 71.0924 15.0441 75.2913C15.7274 77.3936 16.9204 79.2095 18.7942 80.4946C20.4284 82.0931 22.6131 83.0044 24.8988 83.0411C28.4755 83.0936 31.8708 83.7191 35.1189 85.1881L37.7153 86.8148C41.3313 89.8448 47.1049 89.9105 51.3437 86.8805C54.7144 84.4207 58.7812 83.0989 62.9539 83.1068C68.0495 83.0831 72.3961 80.0636 74.0044 75.2414C75.3464 71.1078 77.972 67.5101 81.4993 64.9714C82.6941 64.1218 83.699 63.0328 84.45 61.7737C85.201 60.5145 85.6818 59.1129 85.8616 57.6579C86.3163 55.6449 86.0114 53.6713 85.3886 51.745ZM85.3886 51.745C84.1561 47.9214 84.2349 44.1398 85.3886 40.3056C87.0862 34.6845 85.5331 30.1224 80.8107 26.5852C77.673 24.2358 75.5365 21.19 74.2225 17.5162C72.1754 11.7768 68.3649 9.05425 62.2812 8.95964C59.8802 8.88752 57.512 8.38183 55.2909 7.46698C53.1885 6.64706 51.5487 5.06768 49.4937 4.20046C49.4026 4.09758 49.2884 4.01774 49.1605 3.9675C49.0326 3.91725 48.8946 3.89802 48.7578 3.91139C48.4819 3.59603 48.0798 3.55924 47.7067 3.45675C44.1195 2.46602 40.7794 3.04417 37.7416 5.16491C34.3016 7.57998 30.5358 8.93336 26.2785 8.96227C20.7599 9.00432 16.6787 12.0264 14.8707 17.2981C13.6198 20.9456 11.633 24.1307 8.46113 26.3277C3.63362 29.694 1.43929 35.4571 4.13818 41.7825C4.12822 41.7922 4.12065 41.8041 4.11608 41.8172C4.11151 41.8303 4.11006 41.8443 4.11184 41.8581C4.11363 41.8719 4.1186 41.885 4.12637 41.8965C4.13413 41.9081 4.14447 41.9176 4.15657 41.9244C4.86086 45.727 4.4036 49.4167 3.29461 53.1037C2.50623 55.7316 2.86626 58.3438 4.16709 60.793C4.8464 62.4598 5.98796 63.8976 7.45726 64.9372C11.067 67.4491 13.7366 71.0924 15.0441 75.2913C15.7274 77.3936 16.9204 79.2095 18.7942 80.4946C20.4284 82.0931 22.6131 83.0044 24.8988 83.0411C28.4755 83.0936 31.8708 83.7191 35.1189 85.1881L37.7153 86.8148C41.3313 89.8448 47.1049 89.9105 51.3437 86.8805C54.7144 84.4207 58.7812 83.0989 62.9539 83.1068C68.0495 83.0831 72.3961 80.0636 74.0044 75.2414C75.3464 71.1078 77.972 67.5101 81.4993 64.9714C82.6941 64.1218 83.699 63.0328 84.45 61.7737C85.201 60.5145 85.6818 59.1129 85.8616 57.6579C86.3163 55.6449 86.0114 53.6713 85.3886 51.745ZM57.254 87.0749L57.4143 87.0539C57.6429 86.9488 57.8741 86.8568 58.108 86.7753C57.8636 86.8568 57.5746 86.9567 57.254 87.0749ZM33.6499 87.9474L33.8207 88.0473H33.8417H33.8732L33.6499 87.9474Z" fill="#4E3D93"/>
<path d="M88.332 40.5841C90.1584 34.306 88.1954 28.4957 82.9842 24.5538C80.0911 22.4076 77.9359 19.4158 76.8164 15.992C75.8751 13.1026 74.0447 10.5846 71.5868 8.79777C69.1288 7.01092 66.169 6.04661 63.1301 6.0426C59.6595 6.06047 56.2665 5.01598 53.4068 3.04939C47.4861 -1.0134 41.5206 -1.02128 35.592 3.05464C32.7743 5.00962 29.4243 6.05258 25.9948 6.0426C19.6089 6.1083 14.3189 9.87676 12.2481 15.8973C11.0794 19.3929 8.86826 22.4469 5.91216 24.6484C0.758782 28.5508 -1.18326 34.5793 0.711479 40.7313C1.79496 44.1657 1.80138 47.8495 0.729875 51.2877C-1.20166 57.7025 0.877039 63.7599 6.24853 67.7281C7.94386 68.9764 9.38974 70.5319 10.511 72.3138C10.5426 72.3637 10.5715 72.4137 10.5978 72.461C10.7038 72.6399 10.7868 72.8315 10.8448 73.0312L13.3361 78.7811C15.7406 82.5049 18.9993 85.0383 23.4668 85.8109C24.762 85.9945 26.0667 86.1033 27.3745 86.1367C29.5779 86.2285 31.728 86.8428 33.6474 87.929L33.8707 88.0446L34.7274 88.4835L40.6061 91.4977C44.1065 92.4884 47.5754 92.1573 51.0049 90.5385C51.3241 90.3615 51.6259 90.1547 51.9062 89.9209L51.9562 89.8815C52.4769 89.4356 53.0332 89.033 53.6196 88.6779C54.5194 88.1531 55.466 87.7132 56.4473 87.364C56.7285 87.2536 56.9965 87.1511 57.2357 87.0618C57.5563 86.9435 57.8454 86.8436 58.0898 86.7622L58.3 86.6938H58.3184H58.342C59.9188 86.184 61.6059 86.1367 63.2589 86.0474C69.6579 85.6979 74.0071 82.6127 76.4695 76.9442V76.9206C76.6167 76.4213 76.8164 75.8168 77.0845 75.1336C77.0833 75.1284 77.0833 75.123 77.0845 75.1178C77.0976 75.0863 77.1081 75.0547 77.1213 75.0258C77.1344 74.9969 77.1213 75.0258 77.1213 75.0258C77.5207 74.0088 77.8886 73.2783 77.9964 73.0706C78.3921 72.2221 78.8766 71.4178 79.4417 70.6713C79.8478 70.1581 80.3009 69.6839 80.7951 69.2549L80.9712 69.1025C81.0369 69.0446 81.1052 68.9895 81.1735 68.9343C81.5756 68.6058 82.0591 68.2379 82.6294 67.8095L82.7319 67.7281C88.0561 63.7651 90.1427 57.9285 88.2979 51.5321C87.2399 47.9578 87.2518 44.1518 88.332 40.5841ZM85.8618 57.6657C85.6819 59.1207 85.2012 60.5224 84.4501 61.7815C83.6991 63.0406 82.6942 64.1296 81.4994 64.9792C77.9721 67.518 75.3465 71.1157 74.0045 75.2492C72.3962 80.0715 68.0496 83.091 62.9541 83.1146C58.7813 83.1068 54.7146 84.4286 51.3439 86.8883C47.105 89.9183 41.3314 89.8526 37.7154 86.8226L35.119 85.1959C31.8709 83.7269 28.4756 83.0936 24.899 83.0489C22.6129 83.0116 20.4281 82.0993 18.7943 80.4998C16.9206 79.2147 15.7275 77.3988 15.0442 75.2965C13.7368 71.0976 11.0671 67.4543 7.45738 64.9425C5.98808 63.9029 4.84652 62.465 4.16721 60.7982C2.86638 58.349 2.50636 55.7289 3.29474 53.1089C4.40372 49.4298 4.8715 45.7323 4.1567 41.9296C4.1446 41.9228 4.13426 41.9133 4.12649 41.9018C4.11873 41.8902 4.11375 41.8771 4.11197 41.8633C4.11018 41.8495 4.11163 41.8355 4.1162 41.8224C4.12078 41.8093 4.12834 41.7974 4.1383 41.7877C1.43942 35.4571 3.63374 29.694 8.46125 26.3276C11.6332 24.1254 13.6199 20.9456 14.8708 17.298C16.6788 12.0264 20.76 9.00428 26.2786 8.96224C30.5359 8.92807 34.3017 7.57994 37.7601 5.16487C40.798 3.04413 44.1381 2.46599 47.7252 3.45672C48.0905 3.55921 48.4926 3.596 48.7764 3.91135C48.9131 3.89799 49.0511 3.91722 49.179 3.96746C49.3069 4.01771 49.4211 4.09754 49.5122 4.20042C51.5672 5.06764 53.2097 6.64703 55.3094 7.46694C57.5247 8.37963 59.8865 8.88528 62.2813 8.95961C68.3545 9.05421 72.165 11.7768 74.2174 17.5162C75.5314 21.1953 77.6679 24.2358 80.8056 26.5851C85.5359 30.1223 87.0811 34.6844 85.3835 40.3056C84.2246 44.1397 84.1457 47.9266 85.3835 51.745C86.0116 53.6712 86.3164 55.6448 85.8618 57.6683V57.6657Z" fill="#4E3D93"/>
<path d="M37.7154 86.8228L35.1164 85.1987C35.1157 85.047 35.0746 84.8982 34.9975 84.7675C34.9204 84.6368 34.81 84.529 34.6775 84.455C33.1796 83.4748 31.524 82.8467 29.8369 82.3027C27.6189 81.5932 25.2958 81.8928 23.0332 81.5695C21.5642 81.3593 20.2633 80.6156 18.7917 80.5026C16.9206 79.2149 15.7275 77.4016 15.0443 75.2993C13.7375 71.1001 11.0677 67.4565 7.45742 64.9452C5.98741 63.9064 4.84567 62.4683 4.16725 60.801C3.54443 57.884 4.39588 55.1509 5.07126 52.3574C5.93059 48.8176 5.69933 45.2962 4.15411 41.9298C4.14219 41.9227 4.13208 41.913 4.12457 41.9014C4.11706 41.8898 4.11235 41.8765 4.11082 41.8628C4.10929 41.849 4.11098 41.8351 4.11576 41.8221C4.12053 41.8091 4.12826 41.7974 4.13834 41.7879C4.15152 41.3961 4.14099 41.0038 4.10681 40.6132C3.41566 35.6937 5.11856 31.6598 8.90804 28.6088C12.143 26.015 14.8209 23.1085 16.0035 19.0116C16.3358 17.9234 16.8397 16.8952 17.4961 15.9658C20.1162 12.1816 23.7348 10.0556 28.381 9.98465C31.9603 9.93209 35.3529 9.22518 38.262 7.13335C41.4445 4.84442 44.8739 3.6855 48.7738 3.91938H48.7528C48.9157 4.23736 49.2153 4.20057 49.4991 4.20846C51.5541 5.07567 53.1966 6.65506 55.2937 7.47235C57.5511 8.34482 59.8558 8.93348 62.2813 8.95976C68.3545 9.05174 72.165 11.7769 74.2174 17.5163C75.5314 21.1954 77.6653 24.2333 80.8056 26.5827C85.5359 30.1225 87.0785 34.682 85.3809 40.3057C84.2246 44.1399 84.1457 47.9267 85.3809 51.7425C86.0011 53.6688 86.3085 55.645 85.8513 57.6685C85.3993 57.7946 85.3257 58.2282 85.1628 58.5646C84.1878 60.4383 82.9684 62.0755 81.2419 63.3659C77.9938 65.7888 75.5918 68.8083 74.3856 72.8001C73.6366 75.2809 72.0205 77.3175 69.9365 78.9574C67.2639 81.0597 64.2024 81.7325 60.9174 81.7903C57.677 81.8398 54.5291 82.8787 51.8958 84.7677C47.8566 87.598 43.5468 88.7596 38.7561 86.8149C38.4591 86.6966 38.0518 86.3025 37.7154 86.8228ZM38.3041 73.6279L38.2752 73.6122C38.4066 73.7146 38.5222 73.875 38.672 73.917C42.8767 75.252 47.1839 75.683 51.5331 74.8578C57.9479 73.6437 63.3588 70.6531 67.5293 65.5313C72.6906 59.1927 74.5433 51.9685 73.3108 43.9402C73.14 42.8259 73.1268 41.5961 72.3017 40.6526L72.3253 40.6763C72.3752 40.3636 72.4146 40.0561 72.0993 39.8432C72.0047 39.5568 71.8969 39.273 71.8155 38.9813C69.0772 29.2579 62.8805 22.7301 53.42 19.3138C49.2153 17.7922 44.8135 17.6424 40.388 18.105C39.6391 17.561 38.7508 17.7344 37.994 17.8711C31.4242 19.0405 25.7925 21.9181 21.5116 27.124C15.4201 34.5322 13.796 42.8916 16.3871 52.0894C16.6236 52.933 16.6893 53.9579 17.5907 54.5123C18.7181 57.587 20.0478 60.5566 22.095 63.153C26.1683 68.3326 31.411 71.7279 37.7601 73.444C37.8232 73.5241 37.9082 73.5841 38.0048 73.6168C38.1013 73.6495 38.2053 73.6533 38.3041 73.6279ZM27.1406 17.3034C27.1669 16.9119 27.0303 16.8068 26.8778 16.7332C25.8141 16.2338 24.9534 15.3852 24.4391 14.3286C24.0633 13.6007 23.8137 14.2077 23.6849 14.5152C23.5071 14.9836 23.2326 15.4094 22.8795 15.7648C22.5264 16.1202 22.1024 16.3973 21.6351 16.5781C21.0123 16.8252 20.8835 17.1458 21.5536 17.5084C22.5207 18.034 23.3932 18.6174 23.7848 19.7448C23.9372 20.2047 24.3393 20.2415 24.5285 19.8026C24.9989 18.7146 25.6769 17.8816 26.8332 17.4979C26.9453 17.4498 27.0491 17.3842 27.1406 17.3034ZM74.6326 68.1539C74.5774 68.0856 74.517 67.9385 74.4198 67.8912C73.2766 67.4996 72.6223 66.6271 72.0546 65.6285C71.7734 65.1397 71.4239 65.321 71.1979 65.7757C70.7669 66.6481 70.223 67.3787 69.2533 67.7545C68.5227 68.0409 68.5463 68.5061 69.2533 68.8057C69.6975 68.9777 70.1006 69.2414 70.4361 69.5796C70.7717 69.9179 71.0321 70.3231 71.2005 70.7687C71.5159 71.5413 72.0415 71.2102 72.1913 70.7346C72.5145 69.7071 73.3344 69.2551 74.1202 68.7295C74.3252 68.5876 74.5853 68.5087 74.6326 68.1539ZM20.76 20.2914C20.2738 20.633 20.0452 21.043 19.7088 21.3873C19.157 21.9785 20.0873 22.0469 20.2686 22.4043C20.5734 22.9982 20.8625 22.5856 21.2409 22.2965C22.7205 21.1665 20.6102 21.0404 20.76 20.2914ZM66.9775 72.7423C67.645 73.0656 67.9472 74.5162 69.0667 73.2521C69.5923 72.6687 69.1455 72.6083 68.8959 72.2745C67.8368 70.8607 67.6371 72.6319 66.9775 72.7423Z" fill="#FCD22C"/>
<path d="M48.779 3.92197C44.8739 3.68808 41.4444 4.847 38.2673 7.13593C35.3581 9.23827 31.9602 9.93468 28.3862 9.98723C23.74 10.0556 20.1214 12.1816 17.5013 15.9658C16.843 16.8948 16.3374 17.923 16.0034 19.0116C14.8208 23.1085 12.143 26.0019 8.90799 28.6088C5.11851 31.6598 3.41298 35.7042 4.10676 40.6132C4.14094 41.0037 4.15147 41.396 4.13829 41.7879C1.4394 35.4572 3.63373 29.6783 8.46124 26.3277C11.6305 24.1229 13.6199 20.9431 14.8681 17.2981C16.6762 12.0239 20.76 9.00176 26.2786 8.95971C30.5359 8.92818 34.3017 7.58005 37.7601 5.16235C40.7953 3.04424 44.1381 2.46609 47.7252 3.45419C48.0905 3.55668 48.503 3.5961 48.779 3.92197Z" fill="#F8D860"/>
<path d="M37.7153 86.8228C38.0517 86.2972 38.459 86.6967 38.7534 86.8228C43.5546 88.7675 47.8644 87.6112 51.893 84.7756C54.5264 82.8866 57.6743 81.8477 60.9147 81.7982C64.1996 81.7404 67.2612 81.0571 69.9338 78.9653C72.0361 77.3254 73.6339 75.2862 74.3829 72.808C75.5891 68.8162 77.991 65.7967 81.2392 63.3738C82.9657 62.0834 84.1851 60.4462 85.16 58.5725C85.3335 58.2361 85.3965 57.8025 85.8485 57.6764C85.6698 59.1314 85.1898 60.5332 84.4391 61.7925C83.6885 63.0517 82.6837 64.1406 81.4888 64.9899C77.9622 67.5283 75.3368 71.1249 73.9939 75.2573C72.3856 80.0821 68.039 83.099 62.9409 83.1253C58.7688 83.1167 54.7027 84.4386 51.3333 86.899C47.1023 89.9211 41.3287 89.8554 37.7153 86.8228Z" fill="#F7C527"/>
<path d="M4.15395 41.9294C5.69917 45.2958 5.93043 48.8173 5.07109 52.3571C4.39572 55.1506 3.54427 57.8757 4.16709 60.8006C2.86626 58.3514 2.50623 55.7313 3.29461 53.1113C4.4036 49.4217 4.85823 45.7242 4.15395 41.9294Z" fill="#F8D860"/>
<path d="M18.792 80.5023C20.2636 80.6153 21.5645 81.359 23.0335 81.5693C25.2961 81.8925 27.6192 81.5929 29.8372 82.3025C31.5296 82.8464 33.1799 83.4745 34.6778 84.4547C34.8103 84.5287 34.9207 84.6366 34.9978 84.7672C35.0749 84.8979 35.116 85.0467 35.1167 85.1984C31.8686 83.7294 28.4733 83.0961 24.8967 83.0514C22.611 83.012 20.427 82.1 18.792 80.5023Z" fill="#F7C527"/>
<path d="M38.2937 73.6146H38.2753L38.3042 73.6303L38.2937 73.6146ZM72.2965 40.6577C72.0469 40.4369 72.0837 40.1321 72.0942 39.843C71.997 39.5566 71.8892 39.2727 71.8078 38.9837C69.0721 29.2603 62.8728 22.7325 53.4122 19.3136C49.2075 17.792 44.8057 17.6422 40.3829 18.1074C37.6183 18.7118 34.8643 19.353 32.3231 20.6591C22.9939 25.4384 17.703 33.0253 16.4503 43.4196C15.9905 47.217 16.5975 50.8803 17.583 54.5174C18.7104 57.5947 20.0401 60.5616 22.0873 63.158C26.1632 68.3377 31.4033 71.7356 37.7524 73.4516C37.8502 73.4222 37.9546 73.4219 38.0526 73.4509C38.1506 73.4798 38.238 73.5367 38.3042 73.6146C41.5418 74.0876 44.7716 74.4529 48.0512 74.0061C60.2002 72.3584 69.5661 63.6783 72.131 51.7055C72.9062 48.0238 72.7722 44.3499 72.2965 40.6577ZM46.3089 71.2153C32.2153 72.1587 20.1978 61.5865 19.3148 47.8608C18.3714 33.2338 29.8659 20.73 44.6743 20.8247C56.4081 20.6827 68.7094 29.7833 69.6712 44.3788C70.6409 59.111 59.53 70.3244 46.3089 71.2153Z" fill="#4F3E92"/>
<path d="M38.2754 73.6121C41.5156 74.0852 44.7559 74.4504 48.0382 74.0063C60.1897 72.356 69.5557 63.6759 72.1179 51.703C72.9063 48.0239 72.7723 44.3448 72.294 40.6526C73.1192 41.596 73.1323 42.8259 73.3031 43.9401C74.5435 51.9685 72.6908 59.1821 67.5217 65.5312C63.3538 70.6504 57.9402 73.6437 51.5254 74.8578C47.1762 75.6829 42.8743 75.252 38.6643 73.917C38.5224 73.8697 38.4068 73.7146 38.2754 73.6121Z" fill="#F8D860"/>
<path d="M40.3694 18.1048C37.6075 18.7118 34.8508 19.353 32.3096 20.6591C22.9822 25.4384 17.6913 33.0253 16.4369 43.4196C15.977 47.217 16.584 50.8803 17.5721 54.5174C16.6707 53.9629 16.605 52.9406 16.3685 52.0944C13.7774 42.8967 15.4015 34.532 21.493 27.1291C25.7739 21.9179 31.4161 19.0403 37.9754 17.8682C38.7322 17.7342 39.6205 17.5608 40.3694 18.1048Z" fill="#F7C527"/>
<path d="M27.1406 17.3034C27.0451 17.3853 26.9368 17.451 26.82 17.4979C25.6637 17.8816 24.9805 18.7146 24.5153 19.8026C24.3261 20.2414 23.924 20.2046 23.7716 19.7448C23.3879 18.6174 22.5076 18.0313 21.5484 17.5084C20.8783 17.1457 21.007 16.8251 21.6298 16.5781C22.0971 16.3973 22.5211 16.1201 22.8742 15.7647C23.2274 15.4093 23.5018 14.9836 23.6796 14.5152C23.8084 14.2077 24.0581 13.6007 24.4339 14.3286C24.9495 15.3861 25.8121 16.2348 26.8778 16.7331C27.0302 16.8172 27.1669 16.9118 27.1406 17.3034Z" fill="#FDDD5E"/>
<path d="M74.6328 68.1536C74.5934 68.5084 74.3332 68.5925 74.1072 68.7344C73.3189 69.26 72.5016 69.712 72.1783 70.7395C72.0286 71.2152 71.503 71.5463 71.1876 70.7737C71.0192 70.328 70.7587 69.9228 70.4232 69.5846C70.0877 69.2463 69.6846 68.9826 69.2403 68.8106C68.5255 68.5189 68.5019 68.0538 69.2403 67.7595C70.21 67.3837 70.754 66.6531 71.185 65.7806C71.411 65.326 71.7605 65.1447 72.0417 65.6335C72.6198 66.6321 73.2742 67.5045 74.4068 67.8961C74.5093 67.9381 74.5698 68.0853 74.6328 68.1536Z" fill="#FDDD5E"/>
<path d="M20.7597 20.2914C20.6151 21.0403 22.7254 21.1665 21.2537 22.2965C20.8753 22.5856 20.5862 22.9982 20.2814 22.4042C20.1001 22.0468 19.1698 21.9785 19.7217 21.3872C20.0396 21.043 20.2683 20.633 20.7597 20.2914Z" fill="#FDDD5E"/>
<path d="M66.9771 72.7419C67.6367 72.6316 67.8364 70.8603 68.8954 72.2742C69.1451 72.6079 69.584 72.6683 69.0663 73.2517C67.9468 74.5158 67.6445 73.0547 66.9771 72.7419Z" fill="#FDDD5E"/>
<path d="M72.3174 40.6762C72.0546 40.4528 72.0835 40.1506 72.0914 39.8431C72.4068 40.056 72.3673 40.3635 72.3174 40.6762Z" fill="#F8D860"/>
<path d="M37.7417 73.4491C37.8426 73.4192 37.9501 73.4202 38.0503 73.452C38.1506 73.4839 38.239 73.5451 38.3041 73.6278C38.2032 73.6577 38.0957 73.6567 37.9954 73.6248C37.8952 73.5929 37.8068 73.5317 37.7417 73.4491Z" fill="#F8D860"/>
<path d="M28.749 61.9283C29.2089 59.1164 29.6793 55.9209 30.2758 52.7516C30.5124 51.4902 30.2259 50.6098 29.2746 49.7505C27.1723 47.8452 25.1698 45.8322 23.1016 43.8902C21.672 42.55 20.9992 40.9627 21.6168 39.0574C22.2028 37.2179 23.5983 36.285 25.4956 36.009C28.4757 35.5807 31.4426 35.0603 34.4306 34.6714C35.4345 34.5426 35.989 34.0696 36.3989 33.2155C37.7786 30.3458 39.1293 27.4604 40.6036 24.6406C41.9176 22.1546 44.8582 21.5554 47.0815 23.1926C47.8909 23.7891 48.2982 24.6642 48.7292 25.5183C49.988 28.0096 51.252 30.5114 52.4582 33.0158C52.947 34.0355 53.6592 34.4875 54.7813 34.611C57.6878 34.9289 60.5864 35.331 63.4798 35.741C65.3982 36.0038 66.8172 36.9472 67.4217 38.8945C68.0024 40.7524 67.3376 42.2083 66.0289 43.4934C63.9423 45.5432 61.8978 47.6376 59.7823 49.6533C58.9387 50.4574 58.6417 51.23 58.8967 52.4284C59.5195 55.3191 59.9715 58.2571 60.4918 61.1767C60.8072 62.9506 60.3919 64.5142 58.9361 65.6258C57.4802 66.7374 55.9166 66.9083 54.2636 66.0542C51.5122 64.6325 48.7449 63.2581 46.0119 61.7812C45.0448 61.2556 44.2591 61.3081 43.3262 61.8206C40.5353 63.3553 37.7444 64.8953 34.8826 66.2881C31.984 67.6993 28.6439 65.4813 28.749 61.9283ZM44.6743 58.4463C45.51 58.3202 46.3089 58.6513 47.0972 59.0613C49.8496 60.4891 52.6054 61.9091 55.3647 63.3211C55.9245 63.6076 56.5105 63.7994 57.0781 63.3211C57.6037 62.8823 57.7193 62.3383 57.6037 61.6734C57.0624 58.717 56.613 55.7422 55.998 52.8015C55.5723 50.7596 56.0637 49.1382 57.5617 47.706C59.6456 45.7166 61.6744 43.6642 63.7031 41.617C64.1998 41.1177 64.9514 40.7183 64.6282 39.7775C64.3049 38.8367 63.5113 38.7263 62.7387 38.6238C59.9347 38.2217 57.1333 37.7934 54.3162 37.4938C52.2138 37.2678 50.7501 36.3139 49.8303 34.3929C48.5715 31.7649 47.2024 29.158 45.912 26.538C45.5941 25.8967 45.284 25.224 44.4483 25.224C43.6126 25.224 43.2736 25.831 42.953 26.4985C41.6548 29.2158 40.3251 31.9173 39.0111 34.6267C38.2227 36.2219 37.0375 37.2547 35.2321 37.5175C32.2573 37.9563 29.2825 38.4057 26.3155 38.8892C25.5666 39.0128 24.6915 39.0417 24.4208 40.014C24.1501 40.9863 24.8728 41.462 25.4168 41.9928C27.4429 43.9795 29.4454 45.9952 31.5583 47.8847C33.135 49.2985 33.5608 50.9909 33.2454 52.9645C32.8057 55.7168 32.3467 58.4665 31.8684 61.2135C31.7238 62.0413 31.4374 62.8875 32.2941 63.4788C33.1508 64.0701 33.8709 63.5524 34.6119 63.1635C37.2399 61.7619 39.859 60.3603 42.4694 58.9588C43.1338 58.5643 43.904 58.3853 44.6743 58.4463Z" fill="#4E3C94"/>
<path d="M44.6738 58.4463C43.9013 58.3886 43.13 58.5722 42.4664 58.9718C39.8489 60.3734 37.2298 61.775 34.6088 63.1765C33.8757 63.5655 33.1267 64.07 32.291 63.4919C31.4553 62.9137 31.7207 62.0544 31.8653 61.2266C32.3436 58.4795 32.8026 55.7299 33.2423 52.9775C33.5577 51.004 33.1372 49.3116 31.5552 47.8977C29.4528 46.0083 27.4398 43.9926 25.4137 42.0059C24.8697 41.4803 24.1497 40.981 24.4177 40.0271C24.6858 39.0731 25.5635 39.0258 26.3125 38.9023C29.2794 38.4188 32.2542 37.9694 35.229 37.5305C37.0344 37.2678 38.2301 36.235 39.008 34.6398C40.322 31.9304 41.6359 29.2289 42.9499 26.5116C43.2653 25.8284 43.6227 25.2266 44.4399 25.2266C45.2572 25.2266 45.5857 25.8941 45.9037 26.5405C47.2177 29.1685 48.5632 31.7543 49.8219 34.3954C50.7417 36.3164 52.2029 37.2704 54.3078 37.4964C57.125 37.796 59.9263 38.2243 62.7304 38.6264C63.503 38.7368 64.3071 38.8576 64.6198 39.7801C64.9326 40.7025 64.1915 41.1256 63.6948 41.6196C61.666 43.6668 59.6373 45.7192 57.5533 47.7085C56.0554 49.1407 55.564 50.7622 55.9897 52.8041C56.6046 55.7447 57.054 58.7196 57.5954 61.676C57.7163 62.3409 57.5954 62.8848 57.0698 63.3237C56.5022 63.8046 55.9161 63.6128 55.3564 63.3237C52.597 61.9116 49.8412 60.4917 47.0889 59.0638C46.3058 58.6512 45.5069 58.3201 44.6738 58.4463Z" fill="#DE6EA8"/>
<path d="M10.8897 73.2361C10.761 72.8945 10.6532 72.6212 10.5928 72.4635L10.8398 73.0338C10.8602 73.1002 10.8769 73.1678 10.8897 73.2361Z" fill="#4E3D93"/>
<path d="M58.1085 86.7753C57.8746 86.8567 57.6433 86.9487 57.4147 87.0538L57.2544 87.0749C57.575 86.9566 57.8641 86.8567 58.1085 86.7753Z" fill="#4E3D93"/>
</svg>
