<svg width="76" height="94" viewBox="0 0 76 94" fill="none" xmlns="http://www.w3.org/2000/svg">
<path d="M39.084 93.5375C15.7635 93.8595 -1.07805 77.6718 0.0538243 55.9612C0.457963 48.1663 3.7402 40.7987 9.26495 35.285C11.3238 33.1481 13.0509 32.7676 13.9876 36.2608C14.1144 36.7291 14.2803 37.178 14.4462 37.6366C16.3196 42.6422 19.6372 45.0718 23.228 44.057C27.0627 42.9642 29.2972 38.0757 27.8921 33.2262C27.2286 30.9331 25.9406 28.8353 25.0234 26.6105C21.1691 17.2726 25.4234 5.67086 34.3808 0.977486C36.7227 -0.251964 38.7913 -0.974022 38.7717 2.92899C38.7132 10.4228 42.6748 15.1162 49.144 18.3166C59.0869 23.1954 65.644 31.4893 70.796 40.9541C84.5932 66.3725 67.1467 94.5133 39.084 93.5375ZM17.3539 84.0922C17.5296 84.2581 17.8321 84.5899 17.8808 84.5606C18.359 84.2288 18.0858 83.9361 17.7735 83.6727C17.2759 82.5018 16.7978 81.3016 16.2806 80.1599C12.3776 71.9636 14.5828 59.2105 21.0618 52.7705C22.5645 51.2776 23.7158 50.2921 25.8918 52.0972C31.3853 56.6443 36.6251 54.6537 38.7815 47.7551C40.3134 42.8081 38.5668 38.2611 37.8545 33.5579C37.3569 30.2208 37.7667 28.4157 42.1771 29.6549C51.5834 32.2211 58.1209 36.9731 58.2771 47.521C58.6628 47.5482 59.0439 47.4237 59.3392 47.174C59.6345 46.9243 59.8206 46.5691 59.8578 46.1842C60.17 44.8084 59.9944 43.0227 61.7117 42.5836C63.6632 42.0665 64.4926 43.8521 65.3513 45.1499C67.3028 48.1747 69.2543 51.2679 71.2936 54.5366C71.7833 52.8736 71.6444 51.0885 70.9033 49.5213C66.61 37.4707 59.5065 27.5278 48.1292 21.3317C41.2209 17.5946 36.0104 12.9793 35.7274 4.43166C27.0334 9.95443 24.4867 18.3069 28.5849 26.9521C29.6777 29.2646 30.9169 31.4893 31.2975 34.1141C32.1269 39.8418 29.5606 45.1304 24.9356 46.7989C20.3105 48.4674 15.8025 46.5257 12.5337 41.1395C12.0653 40.3589 11.6067 39.5783 11.1091 38.7294C-1.79036 51.5216 1.60526 75.2421 17.3539 84.1313V84.0922ZM59.8285 83.5165C71.6059 75.2324 72.6499 60.8693 63.3022 47.8137C61.5946 49.2773 60.5213 52.068 57.4477 50.7995C54.901 49.7457 54.8132 47.4039 54.5204 45.1694C53.5447 37.6854 49.6416 34.2214 41.0452 33.3335C41.4551 35.4314 41.8454 37.4317 42.2162 39.4417C43.1467 43.9203 42.4075 48.5845 40.1378 52.5559C37.3862 57.4346 31.2877 59.8935 27.0042 56.976C22.984 54.2439 21.94 56.3125 20.369 59.23C19.1354 61.4825 18.2441 63.9062 17.7247 66.4213C15.5293 77.262 22.9255 88.1123 32.9855 88.4636C30.8974 85.3119 28.3312 82.6091 27.9701 78.7061C27.6481 75.2617 28.0775 72.7442 32.566 73.9932C35.3078 74.764 36.4689 73.1248 36.8397 70.8025C37.0367 69.3734 37.0727 67.9267 36.9471 66.4896C36.7519 63.455 37.9228 61.806 40.8501 63.4941C44.958 65.8554 44.5287 63.1525 44.5092 60.6644C44.5225 59.5432 44.4671 58.4222 44.3433 57.3078C44.1286 55.6392 42.8114 53.8438 44.6653 52.429C46.6851 50.858 48.6952 52.0289 50.5198 52.9462C51.9825 53.635 53.3056 54.5877 54.4228 55.7563C61.458 63.5428 64.034 72.4417 59.8285 83.5556V83.5165ZM40.3134 66.9287C39.6889 72.1685 39.728 77.5644 32.322 77.1936C29.9607 77.0668 31.034 78.9988 31.2877 79.9843C32.4293 84.3557 37.4838 88.4051 42.2259 88.9417C46.0009 89.3519 49.793 88.3391 52.8608 86.1014C55.9286 83.8638 58.0513 80.5622 58.8137 76.8424C60.4823 68.7729 54.6278 57.4346 47.4462 55.288C47.3096 59.6008 47.9146 63.9332 46.4705 68.0801C45.6996 70.2658 44.6263 71.1537 42.8406 68.9388C42.5829 68.4501 42.2243 68.0217 41.7887 67.6819C41.353 67.3421 40.8502 67.0987 40.3134 66.9677V66.9287Z" fill="#564394"/>
<path d="M56.0989 11.7596C56.1039 11.4866 56.1627 11.2173 56.2719 10.9671C56.3811 10.7169 56.5385 10.4906 56.7351 10.3013C56.9317 10.1119 57.1637 9.9631 57.4179 9.8634C57.672 9.76371 57.9433 9.71506 58.2162 9.72023C58.4949 9.68393 58.7781 9.71076 59.0449 9.79874C59.3118 9.88672 59.5554 10.0336 59.7578 10.2285C59.9602 10.4234 60.1162 10.6613 60.2142 10.9247C60.3121 11.188 60.3496 11.47 60.3239 11.7498C60.364 12.0291 60.3399 12.3139 60.2533 12.5825C60.1667 12.8511 60.02 13.0964 59.8243 13.2997C59.6285 13.503 59.3889 13.6589 59.1238 13.7555C58.8587 13.8522 58.575 13.887 58.2943 13.8574C58.009 13.878 57.7226 13.8385 57.4534 13.7417C57.1843 13.6448 56.9384 13.4927 56.7316 13.2951C56.5248 13.0975 56.3617 12.8588 56.2527 12.5943C56.1437 12.3298 56.0913 12.0455 56.0989 11.7596Z" fill="#57479A"/>
<path d="M3.88774 28.1619C3.6192 28.145 3.3574 28.0707 3.11998 27.9441C2.88257 27.8175 2.67507 27.6414 2.51142 27.4278C2.34777 27.2143 2.23177 26.9681 2.17127 26.7059C2.11077 26.4437 2.10716 26.1716 2.16067 25.9079C2.16938 25.6245 2.23974 25.3464 2.36688 25.0929C2.49402 24.8394 2.67486 24.6167 2.89683 24.4403C3.1188 24.2638 3.37656 24.1378 3.65217 24.0711C3.92778 24.0044 4.21461 23.9986 4.49271 24.054C4.77751 24.0503 5.05967 24.109 5.31936 24.226C5.57906 24.343 5.81 24.5154 5.99597 24.7311C6.18194 24.9469 6.31845 25.2007 6.39588 25.4748C6.47332 25.7489 6.48981 26.0366 6.44421 26.3178C6.27834 27.5862 5.41968 28.2888 3.88774 28.1619Z" fill="#5A4B9C"/>
<path d="M17.3519 84.1314C1.60319 75.2422 -1.79243 51.5216 11.107 38.7881C11.6047 39.637 12.0828 40.4176 12.5316 41.1982C15.8004 46.5843 20.2304 48.6041 24.9335 46.8575C29.6366 45.1109 32.1248 39.8516 31.2954 34.1727C30.9149 31.548 29.6756 29.294 28.5828 27.0107C24.4846 18.3655 27.0314 10.0131 35.7253 4.4903C36.0083 13.0379 41.2188 17.6532 48.1272 21.3904C59.5435 27.5766 66.6079 37.5196 70.9013 49.5701C71.6423 51.1374 71.7813 52.9225 71.2915 54.5855C69.262 51.268 67.3105 48.1748 65.359 45.15C64.5003 43.8522 63.7099 42.0666 61.7194 42.5837C60.0021 43.0228 60.1777 44.8085 59.8655 46.1843C59.8283 46.5692 59.6422 46.9244 59.3469 47.1741C59.0516 47.4238 58.6705 47.5483 58.2848 47.5211C58.1286 36.9732 51.5911 32.2212 42.1848 29.655C37.7744 28.4548 37.3646 30.26 37.8622 33.558C38.5745 38.2611 40.3211 42.8082 38.7892 47.7552C36.662 54.6538 31.393 56.6444 25.8995 52.0973C23.7235 50.2922 22.5721 51.2777 21.0695 52.7706C14.5905 59.2106 12.3462 71.9637 16.2883 80.16C16.8347 81.3017 17.264 82.5018 17.7812 83.6728C17.6251 83.8484 17.4885 83.9948 17.3519 84.1314Z" fill="#DB6DA8"/>
<path d="M59.8286 83.5556C64.0341 72.4417 61.4484 63.5429 54.3742 55.6978C53.2569 54.5292 51.9338 53.5765 50.4711 52.8876C48.6562 51.9704 46.6462 50.7995 44.6166 52.3705C42.7627 53.8048 44.08 55.6002 44.2946 57.2493C44.4185 58.3637 44.4739 59.4846 44.4605 60.6058C44.4605 63.094 44.9093 65.7969 40.8014 63.4355C37.8742 61.7475 36.7033 63.4355 36.8984 66.4311C37.024 67.8682 36.988 69.3149 36.7911 70.7439C36.4105 73.0662 35.2591 74.7055 32.5173 73.9347C28.0288 72.6857 27.6385 75.2031 27.9215 78.6475C28.2825 82.492 30.8487 85.2436 32.9368 88.4051C22.8768 88.0538 15.4806 77.2034 17.6761 66.3628C18.1955 63.8477 19.0867 61.424 20.3203 59.1715C21.8913 56.2442 22.9354 54.1854 26.9555 56.9175C31.2391 59.8448 37.3375 57.4054 40.0891 52.4973C42.3407 48.5517 43.0827 43.9227 42.1772 39.471C41.8064 37.461 41.4162 35.4607 41.0063 33.3628C49.632 34.2507 53.496 37.7147 54.4815 45.1987C54.7742 47.4332 54.8621 49.775 57.4088 50.8288C60.4726 52.0973 61.546 49.3066 63.2633 47.843C72.6501 60.9083 71.606 75.2714 59.8286 83.5556Z" fill="#F7CE2F"/>
<path d="M40.3115 66.9678C40.843 67.0991 41.341 67.3406 41.773 67.6769C42.205 68.0131 42.5615 68.4364 42.8192 68.9194C44.6049 71.1343 45.6782 70.2464 46.449 68.0607C47.9127 63.9137 47.3077 59.5814 47.4248 55.2686C54.6259 57.4347 60.4804 68.773 58.8216 76.8815C58.0591 80.6013 55.9364 83.9029 52.8686 86.1406C49.8009 88.3783 46.0087 89.391 42.2338 88.9809C37.4916 88.4442 32.4762 84.3948 31.2956 80.0234C31.0419 79.0477 29.9685 77.0962 32.3299 77.2328C39.7261 77.6036 39.687 72.2076 40.3115 66.9678Z" fill="#FAF9FB"/>
<path d="M17.7746 83.712C18.0868 83.9754 18.36 84.2682 17.8819 84.5999C17.8819 84.5999 17.5306 84.2974 17.355 84.1315C17.4916 83.9949 17.6282 83.8486 17.7746 83.712Z" fill="#DB6DA8"/>
</svg>
