
    <svg width="1000" height="1500" viewBox="0 0 1000 1500" fill="none" xmlns="http://www.w3.org/2000/svg">
        
<g clip-path="url(#clip0_31_191)">
<rect width="1000" height="1500" rx="60" fill="#F2F0EA"/>
<g filter="url(#filter0_f_31_191)">
<ellipse cx="714" cy="372" rx="314" ry="312" fill="url(#paint0_radial_31_191)" fill-opacity="0.82"/>
</g>
<g filter="url(#filter1_f_31_191)">
<circle cx="684" cy="816" r="240" fill="url(#paint1_radial_31_191)"/>
</g>
<g filter="url(#filter2_f_31_191)">
<ellipse cx="290" cy="616" rx="314" ry="312" fill="url(#paint2_radial_31_191)" fill-opacity="0.82"/>
</g>
</g>
<defs>
<filter id="filter0_f_31_191" x="370" y="30" width="688" height="684" filterUnits="userSpaceOnUse" color-interpolation-filters="sRGB">
<feFlood flood-opacity="0" result="BackgroundImageFix"/>
<feBlend mode="normal" in="SourceGraphic" in2="BackgroundImageFix" result="shape"/>
<feGaussianBlur stdDeviation="15" result="effect1_foregroundBlur_31_191"/>
</filter>
<filter id="filter1_f_31_191" x="414" y="546" width="540" height="540" filterUnits="userSpaceOnUse" color-interpolation-filters="sRGB">
<feFlood flood-opacity="0" result="BackgroundImageFix"/>
<feBlend mode="normal" in="SourceGraphic" in2="BackgroundImageFix" result="shape"/>
<feGaussianBlur stdDeviation="15" result="effect1_foregroundBlur_31_191"/>
</filter>
<filter id="filter2_f_31_191" x="-54" y="274" width="688" height="684" filterUnits="userSpaceOnUse" color-interpolation-filters="sRGB">
<feFlood flood-opacity="0" result="BackgroundImageFix"/>
<feBlend mode="normal" in="SourceGraphic" in2="BackgroundImageFix" result="shape"/>
<feGaussianBlur stdDeviation="15" result="effect1_foregroundBlur_31_191"/>
</filter>
<radialGradient id="paint0_radial_31_191" cx="0" cy="0" r="1" gradientUnits="userSpaceOnUse" gradientTransform="translate(714 372) rotate(90) scale(312 314)">
<stop stop-color="#B0D033"/>
<stop offset="1" stop-color="#B0D033" stop-opacity="0"/>
</radialGradient>
<radialGradient id="paint1_radial_31_191" cx="0" cy="0" r="1" gradientUnits="userSpaceOnUse" gradientTransform="translate(684 816) rotate(90) scale(240)">
<stop stop-color="#FF9900"/>
<stop offset="0.9998" stop-color="#FF9900" stop-opacity="0"/>
<stop offset="0.9999" stop-color="#7D72B4" stop-opacity="0"/>
<stop offset="1" stop-color="#1FB49C" stop-opacity="0"/>
<stop offset="1" stop-color="#FF9900" stop-opacity="0"/>
</radialGradient>
<radialGradient id="paint2_radial_31_191" cx="0" cy="0" r="1" gradientUnits="userSpaceOnUse" gradientTransform="translate(290 616) rotate(90) scale(312 314)">
<stop stop-color="#ED2E82"/>
<stop offset="1" stop-color="#ED2E82" stop-opacity="0"/>
</radialGradient>
<clipPath id="clip0_31_191">
<rect width="1000" height="1500" rx="60" fill="white"/>
</clipPath>
</defs>

        <path d="M19.2 16H172V214.8L19.2 300V16Z" fill="#85BFE0"/><path d="M97.152 100C95.808 100 94.704 99.592 93.84 98.776C92.976 97.912 92.544 96.856 92.544 95.608V59.32L93.552 60.904L88.296 64.792C87.624 65.32 86.784 65.584 85.776 65.584C84.624 65.584 83.616 65.152 82.752 64.288C81.888 63.424 81.456 62.392 81.456 61.192C81.456 59.656 82.2 58.408 83.688 57.448L94.056 50.536C94.536 50.2 95.064 49.96 95.64 49.816C96.264 49.672 96.84 49.6 97.368 49.6C98.76 49.6 99.864 50.032 100.68 50.896C101.496 51.712 101.904 52.744 101.904 53.992V95.608C101.904 96.856 101.448 97.912 100.536 98.776C99.672 99.592 98.544 100 97.152 100Z" fill="black"/><path d="M98.068 215.434C76.269 215.735 60.526 200.604 61.584 180.31C61.962 173.023 65.03 166.136 70.194 160.982C72.119 158.985 73.734 158.629 74.609 161.895C74.728 162.332 74.883 162.752 75.038 163.181C76.789 167.86 79.89 170.131 83.246 169.182C86.831 168.161 88.92 163.591 87.606 159.058C86.986 156.915 85.782 154.954 84.925 152.874C81.322 144.146 85.299 133.301 93.672 128.914C95.86 127.764 97.794 127.09 97.776 130.738C97.721 137.743 101.424 142.13 107.472 145.122C116.766 149.682 122.895 157.434 127.71 166.282C140.608 190.042 124.299 216.346 98.068 215.434ZM77.756 206.605C77.92 206.76 78.203 207.07 78.248 207.043C78.695 206.733 78.44 206.459 78.148 206.213C77.683 205.118 77.236 203.996 76.752 202.929C73.104 195.268 75.166 183.347 81.222 177.327C82.626 175.932 83.702 175.01 85.736 176.698C90.872 180.948 95.769 179.088 97.785 172.639C99.217 168.015 97.584 163.764 96.918 159.368C96.454 156.249 96.836 154.562 100.959 155.72C109.752 158.119 115.862 162.56 116.008 172.42C116.369 172.446 116.725 172.329 117.001 172.096C117.277 171.862 117.451 171.53 117.486 171.17C117.778 169.884 117.614 168.215 119.219 167.805C121.043 167.322 121.818 168.991 122.621 170.204C124.445 173.031 126.27 175.922 128.176 178.978C128.634 177.424 128.504 175.755 127.811 174.29C123.798 163.026 117.158 153.732 106.523 147.94C100.065 144.446 95.195 140.132 94.93 132.142C86.804 137.305 84.423 145.112 88.254 153.193C89.275 155.355 90.434 157.434 90.789 159.888C91.565 165.242 89.166 170.186 84.843 171.745C80.519 173.305 76.306 171.49 73.25 166.455C72.812 165.725 72.384 164.996 71.918 164.202C59.861 176.16 63.035 198.332 77.756 206.642V206.605ZM117.459 206.067C128.468 198.323 129.444 184.897 120.706 172.694C119.11 174.062 118.106 176.67 115.233 175.485C112.853 174.5 112.771 172.311 112.497 170.222C111.585 163.226 107.936 159.988 99.901 159.158C100.284 161.119 100.649 162.989 100.996 164.868C101.866 169.054 101.174 173.414 99.053 177.126C96.481 181.687 90.78 183.985 86.776 181.258C83.018 178.704 82.042 180.638 80.574 183.365C79.421 185.47 78.588 187.736 78.102 190.087C76.05 200.22 82.964 210.363 92.367 210.691C90.416 207.745 88.017 205.219 87.679 201.57C87.378 198.351 87.78 195.998 91.975 197.165C94.538 197.886 95.624 196.353 95.97 194.182C96.154 192.846 96.188 191.494 96.07 190.151C95.888 187.314 96.982 185.773 99.719 187.351C103.558 189.558 103.157 187.032 103.139 184.706C103.152 183.658 103.1 182.61 102.984 181.568C102.783 180.009 101.552 178.33 103.285 177.008C105.173 175.54 107.052 176.634 108.758 177.491C110.125 178.135 111.362 179.026 112.406 180.118C118.982 187.396 121.39 195.715 117.459 206.103V206.067ZM99.217 190.562C98.633 195.459 98.67 200.503 91.747 200.156C89.54 200.038 90.543 201.844 90.78 202.765C91.848 206.851 96.572 210.636 101.005 211.138C104.533 211.522 108.078 210.575 110.946 208.483C113.813 206.392 115.798 203.305 116.51 199.828C118.07 192.285 112.597 181.687 105.884 179.68C105.757 183.712 106.322 187.761 104.972 191.638C104.252 193.681 103.248 194.511 101.579 192.44C101.338 191.984 101.003 191.583 100.596 191.266C100.189 190.948 99.719 190.72 99.217 190.598V190.562Z" fill="#564394"/><path d="M113.974 138.992C113.979 138.737 114.034 138.485 114.136 138.252C114.238 138.018 114.385 137.806 114.569 137.629C114.753 137.452 114.97 137.313 115.207 137.22C115.445 137.127 115.698 137.081 115.954 137.086C116.214 137.052 116.479 137.077 116.728 137.159C116.978 137.242 117.205 137.379 117.394 137.561C117.584 137.743 117.73 137.966 117.821 138.212C117.913 138.458 117.948 138.722 117.924 138.983C117.961 139.244 117.939 139.51 117.858 139.762C117.777 140.012 117.64 140.242 117.457 140.432C117.274 140.622 117.05 140.768 116.802 140.858C116.554 140.948 116.289 140.981 116.026 140.953C115.76 140.972 115.492 140.936 115.24 140.845C114.989 140.754 114.759 140.612 114.566 140.428C114.372 140.243 114.22 140.02 114.118 139.772C114.016 139.525 113.967 139.26 113.974 138.992V138.992Z" fill="#57479A"/><path d="M65.169 154.324C64.918 154.308 64.673 154.239 64.452 154.121C64.23 154.002 64.036 153.838 63.882 153.638C63.73 153.438 63.621 153.208 63.565 152.963C63.508 152.718 63.505 152.464 63.555 152.217C63.563 151.952 63.629 151.692 63.748 151.456C63.866 151.218 64.035 151.01 64.243 150.846C64.45 150.68 64.691 150.563 64.949 150.5C65.206 150.438 65.475 150.432 65.734 150.484C66.001 150.481 66.264 150.536 66.507 150.645C66.75 150.754 66.966 150.916 67.14 151.117C67.314 151.319 67.441 151.556 67.514 151.812C67.586 152.069 67.601 152.338 67.559 152.6C67.404 153.786 66.601 154.443 65.169 154.324Z" fill="#5A4B9C"/><path d="M77.756 206.642C63.034 198.332 59.86 176.16 71.918 164.257C72.383 165.05 72.83 165.78 73.25 166.51C76.305 171.544 80.446 173.432 84.842 171.8C89.239 170.167 91.564 165.251 90.789 159.943C90.434 157.489 89.275 155.382 88.254 153.248C84.423 145.167 86.804 137.36 94.93 132.197C95.194 140.187 100.065 144.501 106.523 147.994C117.194 153.777 123.798 163.071 127.811 174.336C128.504 175.8 128.633 177.469 128.176 179.024C126.278 175.922 124.454 173.031 122.63 170.204C121.828 168.991 121.089 167.322 119.228 167.805C117.623 168.216 117.787 169.884 117.495 171.17C117.46 171.53 117.286 171.862 117.01 172.096C116.734 172.329 116.378 172.446 116.018 172.42C115.872 162.56 109.76 158.119 100.968 155.72C96.846 154.598 96.462 156.285 96.928 159.368C97.593 163.764 99.226 168.015 97.794 172.639C95.806 179.088 90.88 180.948 85.745 176.698C83.712 175.01 82.635 175.932 81.23 177.327C75.174 183.347 73.076 195.268 76.761 202.929C77.272 203.996 77.674 205.118 78.157 206.213C78.011 206.377 77.883 206.514 77.756 206.642Z" fill="#DB6DA8"/><path d="M117.46 206.103C121.391 195.715 118.974 187.396 112.362 180.063C111.317 178.971 110.08 178.08 108.713 177.436C107.017 176.579 105.138 175.485 103.24 176.953C101.508 178.294 102.739 179.972 102.94 181.514C103.055 182.555 103.107 183.603 103.095 184.651C103.095 186.977 103.514 189.504 99.674 187.296C96.938 185.718 95.844 187.296 96.026 190.096C96.144 191.44 96.11 192.792 95.926 194.128C95.57 196.298 94.494 197.831 91.931 197.11C87.735 195.943 87.37 198.296 87.635 201.516C87.972 205.109 90.371 207.681 92.323 210.636C82.919 210.308 76.006 200.166 78.058 190.032C78.544 187.682 79.376 185.416 80.53 183.31C81.998 180.574 82.974 178.65 86.732 181.204C90.736 183.94 96.436 181.66 99.008 177.072C101.113 173.384 101.807 169.057 100.96 164.896C100.614 163.016 100.249 161.147 99.866 159.186C107.929 160.016 111.54 163.254 112.462 170.249C112.735 172.338 112.818 174.527 115.198 175.512C118.062 176.698 119.065 174.089 120.67 172.721C129.445 184.934 128.469 198.36 117.46 206.103Z" fill="#F7CE2F"/><path d="M99.216 190.598C99.713 190.721 100.179 190.946 100.582 191.261C100.986 191.575 101.32 191.971 101.56 192.422C103.23 194.492 104.233 193.662 104.954 191.62C106.322 187.743 105.756 183.694 105.866 179.662C112.597 181.687 118.069 192.285 116.519 199.865C115.806 203.342 113.822 206.428 110.954 208.52C108.086 210.611 104.542 211.558 101.013 211.174C96.58 210.673 91.892 206.888 90.789 202.802C90.552 201.89 89.548 200.066 91.756 200.193C98.669 200.54 98.633 195.496 99.216 190.598Z" fill="#FAF9FB"/><path d="M78.148 206.25C78.44 206.496 78.695 206.769 78.248 207.08C78.248 207.08 77.92 206.797 77.756 206.642C77.884 206.514 78.011 206.377 78.148 206.25Z" fill="#DB6DA8"/><path width="245" stroke="#85BFE0" stroke-width="20" d="M60 10H940A50 50 0 0 1 990 60V1440A50 50 0 0 1 940 1490H60A50 50 0 0 1 10 1440V60A50 50 0 0 1 60 10z"/>
        <path fill-rule="evenodd" d="M650.08 711.688C653.832 713.192 656.804 714.128 659.548 715.524C669.552 720.632 676.384 728.332 678.544 739.656C681.98 757.68 670.228 770.3 651.82 768.644C642.84 767.836 634.576 764.9 627.404 759.8C618.5 753.468 611.452 753.388 601.836 760.028C577.736 776.668 550.056 784.848 521.116 787.944C471.788 793.224 425.22 784.208 382.2 758.94C357.785 744.604 337.412 725.936 322.827 701.472C320.186 697.032 317.878 696.54 313.299 698.396C304.393 701.984 295.512 701.132 287.246 695.996C285.12 694.688 283.059 693.152 282.068 690.724C281.313 688.88 281.458 686.948 282.92 685.504C284.292 684.16 286.032 683.224 288.008 684.096C289.427 684.712 290.726 685.612 292.044 686.444C300.188 691.616 308.145 690.572 315.728 685.38C323.709 679.9 327.177 670.756 325.086 661.644C324.809 660.428 324.386 659.244 323.993 658.056C322.948 654.864 323.945 652.416 327.062 651.328C330.301 650.18 332.609 651.976 333.847 654.792C338.058 664.364 337.587 674.052 331.908 682.592C328.313 688 328.953 691.756 332.125 696.764C346.13 718.932 364.504 736.648 387.221 749.412C448.208 783.676 511.364 788.784 576.512 761.976C578.82 761.032 580.972 759.684 583.28 758.756C586.236 757.576 587.504 755.74 587.596 752.392C587.952 739.524 595.804 731.928 606.652 726.884C610.084 725.284 613.192 723.808 615.7 720.672C619.996 715.308 626.28 712.868 632.884 711.972C636.78 711.448 638.928 709.708 640.74 706.448C645.628 697.648 649.404 688.452 651.868 678.688C652.764 675.136 652.188 673.224 648.472 671.472C639.452 667.232 633.584 660.228 632.68 649.848C632.492 647.664 632.412 645.44 633.384 643.392C634.248 641.58 635.816 640.46 637.784 640.368C639.796 640.284 641.416 641.356 642.26 643.192C642.776 644.304 643.088 645.584 643.132 646.804C643.464 655.996 648.672 661.112 657.108 663.3C666.048 665.624 673.808 663.48 679.976 656.404C681.208 654.996 682.164 653.312 683.54 652.084C685.34 650.46 687.6 650.4 689.604 651.728C691.308 652.86 691.704 654.712 691.484 656.708C691.196 659.328 689.732 661.364 688.156 663.304C683.2 669.388 676.84 673.212 669.064 674.144C664.996 674.628 663.268 676.288 662.404 680.368C660.128 691.096 655.784 701.132 650.08 711.688Z" fill="#020302"/><path fill-rule="evenodd" d="M582.644 655.876C582.236 706.756 540.948 747.576 490.22 747.232C439.384 746.888 398.02 705.512 398.208 655.164C398.395 603.964 439.992 562.556 490.88 562.892C542.276 563.248 583.052 604.564 582.644 655.876Z" fill="#020302"/><path fill-rule="evenodd" d="M594.216 539.66C600.324 533.616 605.568 526.948 612.204 521.716C616.128 518.616 620.044 515.496 624.824 513.764C633.36 510.664 639.504 513.62 642.44 522.244C644.196 527.388 644.328 532.712 643.984 538.02C643.428 546.764 642.232 555.444 640.072 563.94C639.148 567.584 639.56 569.576 643.456 571.04C648.436 572.92 652.884 575.964 656.32 580.168C658.004 582.228 659.08 584.792 656.568 586.78C654.508 588.412 652.612 586.944 650.888 585.328C637.112 572.392 621.348 572.256 604.668 578.296C603.504 578.72 602.428 579.388 601.268 579.844C599.164 580.684 596.776 581.364 595.444 578.992C594.18 576.756 595.28 574.612 597.504 573.536C600.832 571.916 600.612 569.432 599.908 566.46C597.212 554.98 592.3 545.276 580.228 541.096C577.98 540.324 575.928 539.084 576.88 536.44C577.928 533.532 580.408 533.604 583.136 534.252C587.172 535.212 590.38 537.816 594.216 539.66Z" fill="#070807"/><path fill-rule="evenodd" d="M365.149 501.988C369.62 502.384 373.312 503.872 376.828 506.076C384.604 510.936 391.081 517.268 396.936 524.18C400.184 528.016 402.84 530.412 407.376 526.016C408.628 524.8 410.692 524.276 412.48 523.816C414.868 523.212 417.724 522.444 418.88 525.6C420.02 528.72 417.744 530.076 415.168 530.916C405.256 534.16 400.432 541.9 397.413 551.16C395.866 555.892 394.047 560.72 399.926 564.18C401.28 564.98 401.716 566.72 400.724 568.316C399.256 570.664 397.31 570.572 395.08 569.436C388 565.836 380.526 563.988 372.532 564.14C362.545 564.332 353.361 566.564 346.002 573.86C345.338 574.52 344.709 575.244 343.948 575.764C342.274 576.916 340.426 577.316 338.897 575.668C337.386 574.036 337.93 572.152 339.066 570.568C341.858 566.672 345.67 563.996 349.839 561.752C356.769 558.02 356.612 558.044 355.192 550.024C353.126 538.36 350.685 526.672 352.908 514.728C354.461 506.396 358.932 501.98 365.149 501.988Z" fill="#070807"/><path fill-rule="evenodd" d="M594.664 752.316C595.692 743.316 599.884 739.036 605.208 735.604C618.576 726.984 637.62 728.412 649.796 738.656C652.048 740.56 654.304 745.804 657.764 741.38C660.492 737.912 656.116 735.316 653.764 733.152C648.848 728.652 642.92 725.884 636.388 724.472C633.084 723.752 629.768 723.068 625.92 722.26C643.512 713.088 665.676 721.252 671.18 738.356C675.716 752.456 667.724 762.904 652.94 762.032C646.28 761.648 640.164 759.296 634.352 756.156C629.14 753.332 624.084 750.192 618.748 747.648C607.876 742.452 604.236 743.084 594.664 752.316Z" fill="#870559"/><path fill-rule="evenodd" d="M489.812 736.164C445.14 736.14 409.26 699.772 409.328 654.572C409.396 610.104 445.944 573.976 490.904 573.924C536.172 573.884 571.62 610.056 571.672 656.096C571.728 700.708 533.78 737.444 489.812 736.164Z" fill="#FEFEFE"/><path fill-rule="evenodd" d="M600.372 545.3C613.092 547.392 623.296 551.656 630.788 561.084C633.7 564.744 632.552 567.268 628.212 567.144C622.892 566.992 617.668 567.244 612.472 568.356C610.152 568.848 607.796 568.652 607.416 565.824C606.504 559.032 602.788 553.196 600.372 545.3Z" fill="#EC2980"/><path fill-rule="evenodd" d="M633.624 554.48C624.988 547.556 616.472 542.664 606.636 540.324C610.616 531.992 613.732 530.76 622.052 533.716C633.864 537.908 636.656 542.516 633.624 554.48Z" fill="#EC2480"/><path fill-rule="evenodd" d="M636.144 534.88C632.456 532.8 630.064 531.364 627.588 530.088C625.14 528.824 622.608 527.732 619.576 526.32C623.232 522.336 627.376 518.868 631.872 520.828C637.02 523.068 636.776 528.82 636.144 534.88Z" fill="#DC1F75"/><path fill-rule="evenodd" d="M396.666 535.472C392.763 542.076 389.905 547.936 388.824 554.424C388.37 557.124 386.854 558.024 384.262 557.736C378.704 557.096 373.163 556.532 367.526 556.924C363.822 557.18 363.683 554.496 364.481 551.844C364.819 550.72 365.774 549.748 366.559 548.792C372.474 541.604 384.745 535.916 396.666 535.472Z" fill="#EC297F"/><path fill-rule="evenodd" d="M390.85 529.448C379.667 532.088 370.912 537.1 362.852 543.596C359.004 533.688 359.457 531.82 366.882 526.94C368.949 525.58 371.154 524.384 373.444 523.46C381.606 520.16 383.739 520.844 390.85 529.448Z" fill="#EC247E"/><path fill-rule="evenodd" d="M360.38 523.196C360.307 518.344 358.851 512.852 363.908 510.54C368.313 508.516 372.125 511.616 375.859 515.036C371.436 519.112 365.612 520.22 360.38 523.196Z" fill="#E9257C"/><path fill-rule="evenodd" d="M471.108 651.604C471.48 626.96 491.82 606.992 516.316 607.228C541.704 607.468 561.932 628.416 561.34 653.84C560.776 678.084 539.744 698.276 515.524 697.836C490.552 697.388 470.736 676.756 471.108 651.604Z" fill="#020302"/><path fill-rule="evenodd" d="M488.588 882.284C431.828 881.848 367.33 866.612 308 831.6C271.838 810.264 240.472 783.212 217.563 747.48C168.686 671.224 167.45 593.716 214.197 515.96C231.593 487.016 255.051 463.548 281.906 443.508C290.314 437.236 290.212 437.276 287.66 427.388C282.828 408.728 278.256 389.993 277.454 370.587C277.128 362.858 277.128 355.116 279.848 347.716C283.739 337.127 292.033 333.101 302.637 336.474C309.779 338.746 315.588 343.183 321.101 348.071C334.576 360.004 345.542 374.192 356.159 388.673C357.866 390.995 359.621 393.293 361.159 395.718C362.77 398.266 364.398 398.835 367.456 397.716C386.885 390.641 406.688 384.848 427.076 381.414C431.68 380.638 432.252 377.436 433.144 374.003C437.752 356.289 442.988 338.765 449.412 321.638C454.6 307.804 460.32 294.215 468.124 281.634C472.208 275.072 476.712 268.87 482.552 263.78C495.852 252.177 509.576 253.594 520.356 267.752C525.444 274.436 528.812 282.044 531.652 289.932C538.548 309.069 542.136 328.958 544.712 349.067C545.652 356.399 546.484 363.756 546.996 371.131C547.276 375.072 548.928 376.868 552.732 377.278C572.984 379.453 592.844 383.669 612.396 389.382C616.396 390.549 618.704 389.608 621.1 386.15C628.768 375.09 637.06 364.507 646.012 354.468C652.832 346.812 659.932 339.419 668.428 333.638C686.576 321.29 700.016 327.882 701.488 349.855C702.728 368.406 698.664 386.302 694.78 404.216C693.508 410.084 689.096 416.62 691.432 421.504C693.544 425.916 700.528 427.908 705.328 431.016C732.868 448.836 757.116 470.368 777.108 496.652C837.616 576.232 838.044 676.66 778.08 756.656C744.74 801.144 701.084 831.8 650.552 852.9C602.4 873.008 552.132 882.32 488.588 882.284Z" fill="#040505"/><path fill-rule="evenodd" d="M503.24 869.648C432.48 868.78 368.588 853.584 310.127 818.06C278.713 798.964 251.629 774.916 230.312 744.532C179.692 672.368 180.108 583.88 231.579 512.252C263.94 467.224 307.232 436.556 357.616 415.696C414.516 392.142 473.784 383.82 534.96 388.732C593.904 393.468 648.964 410.516 699.176 442.52C728.248 461.048 753.348 484.072 773.224 512.592C824.428 586.068 822.868 675.98 769.14 748.056C737.052 791.108 694.784 820.548 646.052 840.904C606.368 857.476 564.972 866.72 522.04 868.688C514.744 869.02 507.448 869.436 503.24 869.648Z" fill="#870559"/><path fill-rule="evenodd" d="M532.328 346.785C505.728 339.263 479.82 340.729 453.112 348.392C454.88 337.601 458.904 328.662 462.528 319.618C463.452 317.315 465.636 316.588 467.788 315.879C486.564 309.708 505.216 310.325 523.76 316.9C525.832 317.639 528.112 318.506 528.588 321.073C530.14 329.426 532.608 337.668 532.328 346.785Z" fill="#870559"/><path fill-rule="evenodd" d="M444.72 377.18C448.868 355.116 447.436 358.508 465.18 353.98C485.44 348.805 505.948 348.365 526.32 353.95C529.292 354.768 533.412 354.903 534.24 358.392C535.396 363.31 535.58 368.528 535.68 373.624C535.712 375.525 533.468 375.494 531.876 375.384C527.44 375.085 523.028 374.651 518.592 374.455C496.672 373.484 474.836 374.62 453.072 377.382C450.328 377.736 447.464 378.739 444.72 377.18Z" fill="#870559"/><path fill-rule="evenodd" d="M468.024 306.597C473.676 294.156 479.268 283.39 487.784 274.561C497.32 264.668 504.884 265.377 512.648 276.699C514.808 279.846 516.568 283.304 518.188 286.781C521.16 293.172 523.524 299.802 525.344 308.314C506.376 302.411 487.768 301.861 468.024 306.597Z" fill="#870559"/><path fill-rule="evenodd" d="M338.339 384.556C329.961 387.531 322.288 390.385 315.134 394.534C308.27 398.511 302.153 403.532 295.663 409.016C292.352 402.716 292.026 396.36 290.964 390.208C290.476 387.317 292.14 385.374 294.04 383.578C301.87 376.178 311.026 371.48 321.558 369.408C323.941 368.932 325.925 368.974 327.596 370.881C331.336 375.14 335.335 379.215 338.339 384.556Z" fill="#870559"/><path fill-rule="evenodd" d="M630.224 395.057C630.512 393.334 630.476 392.962 630.632 392.711C637.828 381.126 638.292 380.857 651.268 383.851C660.636 386.02 669.304 389.925 677.224 395.467C684.144 400.304 684.148 400.32 682.012 408.752C681.548 410.608 680.932 412.424 680.54 413.736C679.94 414.388 679.752 414.672 679.504 414.848C679.276 415.008 678.908 415.208 678.72 415.124C662.832 407.908 646.924 400.76 630.224 395.057Z" fill="#870559"/><path fill-rule="evenodd" d="M351.987 403.84C334.211 411.644 317.521 420.076 301.651 430.092C296.554 420.944 296.62 419.764 303.424 413.368C311.893 405.388 321.671 399.478 332.504 395.421C344.646 390.875 345.026 391.077 351.987 403.84Z" fill="#870559"/><path fill-rule="evenodd" d="M645.884 373.63C646.032 372.928 646.008 372.536 646.18 372.31C655.84 359.442 654.58 358.282 671.68 364.996C674.304 366.029 676.772 367.538 679.18 369.054C689.604 375.61 690.188 377.663 685.264 390.44C678.912 386.987 673.076 382.551 666.276 380.15C659.532 377.773 652.664 375.781 645.884 373.63Z" fill="#870559"/><path fill-rule="evenodd" d="M318.479 361.224C307.175 364.462 298.38 369.253 289.52 375.864C288.21 368.385 288.398 362.036 289.441 355.804C290.937 346.865 294.948 344.94 302.772 349.064C305.293 350.39 307.67 352.046 309.932 353.794C312.423 355.718 314.703 357.912 318.479 361.224Z" fill="#870559"/><path fill-rule="evenodd" d="M663.556 353.264C669.012 346.867 674.2 342.803 680.324 340.17C685.404 337.988 688.152 339.351 689.328 344.856C690.712 351.339 691.7 357.969 689.492 365.314C681.192 360.828 673.648 355.892 663.556 353.264Z" fill="#870559"/>
        <path fill-rule="evenodd" d="M602.416 646.236C593.016 635.028 588.868 621.988 589.044 607.688C586.992 607.164 585.636 608.072 584.232 608.668C565.12 616.788 548.3 601.832 550.636 581.328C552.892 561.504 564.644 547.264 580.86 536.332C584.464 533.904 588.136 531.432 592.496 530.456C595.024 529.884 597.728 529.756 598.768 532.804C599.728 535.636 598.24 537.452 595.604 538.64C586.648 542.664 578.78 548.176 572.368 555.62C566.38 562.576 561.88 570.268 560.144 579.38C559.496 582.772 559.448 586.132 560.272 589.516C562.836 600.048 570.724 604.1 580.932 600.084C588.4 597.148 593.7 591.256 599.74 586.396C603.872 583.072 607.768 579.464 611.764 575.984C629.068 560.904 649.984 557.036 672.1 557.052C674.256 557.052 676.464 557.556 678.556 558.136C681.536 558.96 683.12 561.848 681.38 563.792C678 567.584 680.192 569.156 682.776 571.636C692.072 580.596 697.336 591.548 699.028 604.348C703.044 634.868 679.124 663.532 648.132 664.964C642.564 665.22 636.96 665.004 631.064 665.004C632.56 669.876 635.36 674.424 636.204 679.66C639.864 702.256 625.98 720.832 601.66 726.088C586.084 729.452 571.18 727.04 556.508 721.748C548 718.68 539.732 714.932 530.78 713.092C515.932 710.048 501.46 712.068 487.216 716.272C478.536 718.836 470.044 722.044 461.476 724.972C451.808 728.26 441.884 729.056 431.808 727.744C413.724 725.392 404.1 715.356 401.44 695.36C399.977 684.324 402.156 673.708 408.82 664.36C409.508 664.036 409.944 663.508 410.136 662.788C411.028 661.608 412.78 660.984 412.544 659.092C412.952 658.356 413.496 657.74 414.16 657.224C416.936 655.456 419.964 654.164 422.892 652.664C424.4 651.968 425.952 651.508 427.648 651.78C439.26 649.7 450.604 651.436 461.872 654.224C475.512 657.596 489.376 659.624 503.364 660.692C520.696 662.012 537.492 658.668 554.132 654.388C562.588 652.22 571.096 650.376 579.8 649.544C585.836 648.076 591.98 649.332 598.048 648.82C599.76 648.668 602.808 650.108 602.416 646.236Z" fill="#020302"/><path fill-rule="evenodd" d="M485.644 571.94C485.764 576.256 486.324 580.62 485.908 584.884C484.264 601.764 471.092 610.332 454.656 605.48C453.46 605.12 452.28 604.72 449.988 603.984C448.868 612.824 447.932 621.672 443.824 629.696C439.816 637.548 434.428 644.22 427.592 649.804C426.62 651.148 425.604 652.44 423.788 652.716C421.056 654.62 417.868 655.68 415.06 657.436C413.716 658.376 411.808 657.792 410.596 659.08C410.048 659.024 409.532 659.12 409.044 659.368C407.7 660.08 406.06 659.928 404.76 660.768C394.775 662.416 384.928 662.42 375.112 659.36C335.606 647.012 321.477 599.788 347.908 568.296C350.605 565.072 354.446 562.744 354.887 557.74C355.123 555.052 358.474 554.72 360.911 554.14C369.875 552.012 379.02 551.988 387.946 553.416C409.32 556.84 427.628 566.144 441.564 583.032C443.74 585.664 446.092 588.16 448.448 590.648C450.592 592.924 453.072 594.776 455.952 596.104C465.392 600.484 473.572 596.824 476.22 586.808C477.6 581.596 477.132 576.436 475.308 571.304C471.544 560.728 464.832 552.36 456.116 545.476C447.988 539.068 438.848 534.376 429.268 530.488C427.248 529.668 425.084 529.136 423.184 528.116C421.496 527.2 420.36 525.588 420.92 523.496C421.58 521.1 423.444 519.688 425.8 520.06C428.536 520.48 431.232 521.424 433.808 522.48C452.68 530.188 469.008 541.128 480.104 558.632C484.948 561.836 485.504 566.812 485.644 571.94Z" fill="#020302"/><path fill-rule="evenodd" d="M720.348 618.412C719.524 636.764 713.172 652.02 699.964 664.26C699.056 665.104 698.1 665.908 697.108 666.644C694.992 668.212 692.676 669.308 690.404 667.116C687.752 664.572 688.868 662.104 691.072 659.912C692.604 658.376 694.328 657.024 695.808 655.452C707.276 643.252 712.388 628.928 710.308 612.248C709.86 608.672 708.208 604.076 713.532 603.232C718.812 602.388 718.908 607.096 719.404 610.764C719.78 613.512 720.088 616.268 720.348 618.412Z" fill="#070807"/><path fill-rule="evenodd" d="M312 623.624C312.133 621.42 312.72 619.264 315.236 618.636C318.278 617.872 319.875 619.672 320.709 622.32C321.181 623.8 321.592 625.292 322.016 626.784C326.582 642.848 335.812 655.028 351.585 661.828C354.621 663.14 358.988 664.128 356.986 668.764C355.129 673.076 351.21 671.564 348.053 670.208C328.106 661.664 316.875 646.204 312.326 625.536C312.194 624.936 312.121 624.32 312 623.624Z" fill="#090A0A"/><path fill-rule="evenodd" d="M482.26 554.628C481.456 550.512 478.504 547.696 476.096 544.528C474.628 542.596 474.412 540.572 476.376 538.788C478.252 537.092 480.452 537.248 482.356 538.512C483.852 539.512 485.14 540.944 486.236 542.388C490.764 548.38 493.412 555.26 495.1 562.464C496.444 568.212 495.24 569.212 488.256 569.412C482.9 565.812 483.692 559.772 482.26 554.628Z" fill="#020302"/><path fill-rule="evenodd" d="M560.644 546.356C560.58 548.344 559.496 549.804 558.092 551.056C553.12 555.508 549.896 560.996 548.168 567.372C547.344 570.4 545.692 572.54 542.272 571.66C538.876 570.792 538.296 568.072 539.132 565.088C541.404 556.936 545.384 549.74 551.976 544.212C553.616 542.832 555.564 541.724 557.924 542.864C559.428 543.588 560.268 544.78 560.644 546.356Z" fill="#0E0E0E"/><path fill-rule="evenodd" d="M410.596 659.076C411.544 657.752 412.924 657.284 414.476 657.172C415.008 657.572 415.216 658 415.076 658.452C414.936 658.916 414.788 659.144 414.628 659.144C413.932 659.124 413.236 659.112 412.548 659.096C411.896 659.088 411.24 659.084 410.596 659.076Z" fill="#020302"/><path fill-rule="evenodd" d="M644.216 656.016C616.396 655.848 595.552 632.428 598.772 604.972C599.14 601.86 599.6 598.856 602.132 596.576C610.696 588.896 618.936 580.812 629.132 575.156C630.488 574.4 631.916 573.772 633.304 573.072C659.688 559.812 677.204 570.524 687.28 595.48C699.14 624.848 676.096 656.216 644.216 656.016Z" fill="#FEFEFE"/><path fill-rule="evenodd" d="M430.692 669.28C433.324 671.832 432.892 675.648 434.612 678.608C436.552 681.94 438.604 685.06 442.964 685.192C447.408 685.328 449.348 682.016 451.52 678.904C453.392 676.212 451.956 671.204 456.116 670.576C459.328 670.084 462.844 671.52 466.212 672.156C468.052 672.508 469.86 673.288 471.704 673.356C479.168 673.62 484.772 675.728 486.636 684.112C487.416 687.636 490.628 690.636 494.988 690.436C499.18 690.244 502.324 687.536 503.216 683.808C504.672 677.68 508.696 677.22 513.74 677.544C516.224 677.692 518.812 677.684 521.228 677.176C528.66 675.624 534.388 675.684 538.5 684.184C541.844 691.092 549.092 690.2 553.328 683.432C554.632 681.36 555.784 678.956 556.132 676.588C556.892 671.312 560.256 669.412 564.968 668.748C566.828 668.484 568.672 668.148 570.52 667.788C579.512 666.04 579.5 666.036 583 674.18C584.652 678.04 586.812 681.36 591.58 681.776C596.264 682.192 599.144 679.46 601.636 676.088C602.188 675.336 602.568 674.456 603.136 673.72C604.604 671.808 604.236 668.052 607.104 667.872C610.268 667.664 612.656 670.252 615.008 672.356C621.008 677.696 622.28 695.796 614.148 702.168C609.376 705.908 604.284 708.584 598.372 709.988C587.628 712.532 587.308 712.448 583.968 702.516C583.672 701.636 583.484 700.708 583.1 699.868C581.096 695.552 578.828 691.236 573.332 690.908C567.784 690.584 565.112 694.616 562.764 698.796C559.192 705.188 559.208 705.16 551.944 702.528C549.004 701.456 546.072 700.296 543.036 699.616C536.152 698.096 530.788 695.992 528.06 688.048C525.412 680.32 516.636 680.188 513.208 687.732C510.108 694.548 505.696 696.616 498.916 696.896C495.22 697.06 491.416 697.952 487.936 699.272C480.88 701.944 475.756 702.032 470.9 694.464C466.516 687.644 458.36 688.84 453.872 695.736C452.376 698.044 451.328 700.72 450.5 703.36C447.748 712.18 447.232 712.588 437.476 711.652C427.128 710.664 420.772 704.752 418.54 694.024C416.22 682.872 419.852 674.204 428.884 669.516C429.38 669.256 430.064 669.352 430.692 669.28Z" fill="#EC2E83"/><path fill-rule="evenodd" d="M469.788 704.412C465.572 706.864 461.444 708.036 457.316 709.024C455.132 707.348 456.504 705.616 457.072 703.992C458.172 700.852 458.876 696.632 462.964 696.708C466.612 696.772 468.36 700.272 469.788 704.412Z" fill="#FEFEFE"/><path fill-rule="evenodd" d="M577.728 710.368C574.768 709.8 572.064 709.42 569.448 708.732C567.524 708.224 566.096 706.996 567.092 704.732C568.296 702.004 568.94 698.26 572.404 697.876C576.384 697.448 576.608 701.52 577.732 704.108C578.428 705.7 578.956 707.552 577.728 710.368Z" fill="#FEFEFE"/><path fill-rule="evenodd" d="M598.204 665.384C599.196 667.764 598.128 669.34 597.176 670.896C595.924 672.952 594.572 675.784 591.82 674.904C588.432 673.82 588.4 670.128 587.996 667.164C587.816 665.86 588.988 665.048 590.38 664.964C593.088 664.8 595.812 664.524 598.204 665.384Z" fill="#FEFEFE"/><path fill-rule="evenodd" d="M447.004 670.832C446.468 673.556 446.368 676.528 443.544 677.852C441.852 678.644 438.876 673.736 438.736 670.096C438.652 667.86 439.548 666.552 441.956 667.176C444.096 667.724 447.192 667.208 447.004 670.832Z" fill="#FEFEFE"/><path fill-rule="evenodd" d="M550.276 671.556C549.576 676.78 549.292 680.892 545.412 681.32C542.476 681.652 541.676 677.912 540.92 675.152C543.284 672.916 546.436 673.42 550.276 671.556Z" fill="#FEFEFE"/><path fill-rule="evenodd" d="M495.368 676.112C496.124 676.208 498.592 676.012 498.428 678.448C498.3 680.344 497.736 683.112 495.088 683.224C491.86 683.356 491.448 680.504 491.236 678.144C491.068 676.108 492.692 675.848 495.368 676.112Z" fill="#FEFEFE"/><path fill-rule="evenodd" d="M523.728 692.588C523.844 694.904 522.808 695.708 521.044 695.716C519.18 695.72 517.156 695.6 517.344 693.072C517.48 691.216 518.636 689.22 520.524 689.184C522.484 689.136 523.192 691.276 523.728 692.588Z" fill="#FEFEFE"/><path fill-rule="evenodd" d="M378.857 561.728C402.512 563.196 421.952 572.9 436.816 591.532C440.228 595.796 440.456 600.708 440.428 605.624C440.344 625.44 426.86 643.676 407.796 650.116C388.492 656.644 367.045 650.584 354.41 635.024C336.079 612.468 342.078 578.928 366.942 563.748C370.825 561.368 374.744 562.188 378.857 561.728Z" fill="#FEFEFE"/><path fill-rule="evenodd" d="M666.584 613.088C666.584 616.48 666.628 619.884 666.572 623.28C666.524 626.424 665.72 629.412 664.256 632.176C661.208 637.904 655.36 640.468 649.348 638.824C643.528 637.236 639.44 631.68 640.516 625.316C642.252 615.088 642.188 605.224 638.768 595.244C636.5 588.624 639.856 582.808 646.188 580.2C651.828 577.88 657.948 579.824 661.732 585.192C664.504 589.116 665.072 593.768 666.028 598.288C666.348 599.788 666.464 601.352 666.492 602.892C666.56 606.288 666.516 609.692 666.516 613.088H666.584Z" fill="#020302"/><path fill-rule="evenodd" d="M361.238 607.972C361.087 600.464 362.303 593.196 364.589 586.1C365.538 583.156 366.663 580.288 368.895 577.988C372.76 574.004 377.659 572.812 382.461 574.76C387.632 576.868 390.178 580.744 390.294 586.224C390.342 588.716 389.64 591.052 388.914 593.436C386.483 601.508 385.824 609.66 387.324 618.076C388.788 626.32 384.245 632.812 376.939 634C370.208 635.092 363.845 630.476 362.369 622.696C361.456 617.884 361.583 612.884 361.238 607.972Z" fill="#020302"/>
        <path d="M505.288 1398.088C499.816 1393.052 497.996 1386.552 498.104 1379.42C498.104 1376.936 497.684 1375.456 494.932 1374.616C471.628 1367.484 468.428 1349.38 473.98 1331.284C480.06 1311.452 498.8 1297.624 519.444 1297.152C542.068 1296.636 561.188 1309 568.676 1329.092C570.456 1333.952 571.428 1339.072 571.548 1344.248C571.94 1357.616 565.948 1367.156 553.584 1372.416C550.732 1373.628 549.832 1375.008 549.92 1378.256C550.116 1385.724 548.772 1392.908 542.504 1398.108H538.048C535.304 1396.208 533.2 1393.524 532.012 1390.404C530.912 1393.672 528.64 1396.412 525.64 1398.108H522.072C519.4 1396.448 517.616 1393.864 515.556 1390.664C514.516 1394.476 512.144 1396.34 509.664 1398.108L505.288 1398.088ZM492.756 1311.236C485.24 1316.088 479.864 1323.632 477.724 1332.32C471.54 1355.852 479.232 1365.552 496.668 1371.168C500.928 1372.54 502.124 1374.58 501.848 1378.708C501.544 1383.156 502.536 1387.596 504.708 1391.492C506.68 1395.056 508.712 1395.056 510.948 1391.776C512.08 1390.044 512.852 1388.1 513.212 1386.064C513.508 1384.608 514.192 1383.524 515.764 1383.476C517.544 1383.432 518.328 1384.468 518.668 1386.152C519 1387.588 519.484 1388.984 520.112 1390.316C520.88 1392.096 521.824 1394.104 523.992 1394.084C526.156 1394.068 527.012 1391.936 527.86 1390.244C528.444 1389.068 528.888 1387.832 529.188 1386.552C529.58 1384.84 530.196 1383.352 532.208 1383.344C534.224 1383.336 534.436 1384.86 534.812 1386.356C535.148 1387.64 535.596 1388.888 536.148 1390.092C536.944 1391.82 537.648 1393.936 539.904 1394.016C542.432 1394.112 543.184 1391.768 544.02 1389.968C546.008 1385.492 546.696 1380.552 546.008 1375.704C545.632 1372.416 546.9 1371.052 549.796 1369.84C565.056 1363.448 570.3 1353.116 566.868 1336.972C564.712 1326.692 559.06 1317.476 550.872 1310.896C542.68 1304.316 532.464 1300.784 521.956 1300.896C511.136 1300.96 500.972 1303.572 492.736 1311.256L492.756 1311.236Z" fill="#554392"/><path d="M464.568 1291.788C461.972 1287.176 459.164 1283.204 457.936 1278.468C457.4 1276.4 456.912 1274.296 458.712 1272.712C460.512 1271.124 462.616 1272.052 464.48 1272.976C468.044 1274.76 470.96 1277.436 474.08 1280.412C474.792 1277.148 475.104 1274.236 476.104 1271.56C477.492 1267.824 480 1267.104 483.5 1269.048C488.36 1271.748 490.5 1276.4 492.148 1281.364C493.204 1284.704 493.88 1288.152 494.164 1291.644C490.98 1291.34 488.896 1289.396 486.516 1288.22C483.744 1286.848 482.216 1286.644 482.46 1290.656C482.876 1297.948 482.192 1298.828 474.98 1300.612C471.512 1301.504 471.772 1303.936 471.708 1306.424C471.548 1312.976 471.228 1313.128 465.308 1309.988C461.368 1307.876 457.624 1305.532 455.128 1301.744C453.692 1299.56 452.168 1297.116 453.728 1294.344C455.2 1291.776 457.836 1291.824 460.36 1291.788C461.536 1291.768 462.712 1291.788 464.568 1291.788Z" fill="#4D3D95"/><path d="M492.736 1311.256C500.972 1303.58 511.136 1300.976 521.956 1300.896C532.456 1300.78 542.668 1304.308 550.856 1310.88C559.048 1317.448 564.704 1326.656 566.868 1336.928C570.324 1353.072 565.084 1363.404 549.796 1369.796C546.916 1371.008 545.632 1372.372 546.008 1375.66C546.696 1380.508 546.004 1385.448 544.02 1389.924C543.18 1391.704 542.432 1394.068 539.9 1393.968C537.648 1393.888 536.94 1391.776 536.148 1390.048C535.592 1388.844 535.148 1387.596 534.812 1386.312C534.436 1384.816 534.116 1383.292 532.208 1383.3C530.3 1383.308 529.536 1384.796 529.188 1386.508C528.896 1387.8 528.456 1389.052 527.876 1390.244C526.984 1391.936 526.172 1394.06 524.008 1394.084C521.84 1394.112 520.896 1392.088 520.128 1390.316C519.504 1388.984 519.02 1387.588 518.684 1386.152C518.348 1384.448 517.528 1383.416 515.78 1383.476C514.212 1383.476 513.524 1384.608 513.232 1386.064C512.88 1388.1 512.12 1390.04 511 1391.776C508.748 1395.084 506.712 1395.056 504.76 1391.492C502.588 1387.596 501.596 1383.156 501.9 1378.708C502.176 1374.58 501.008 1372.54 496.72 1371.168C479.284 1365.552 471.592 1355.852 477.78 1332.32C479.9 1323.64 485.26 1316.1 492.756 1311.236C492.86 1311.816 492.756 1312.528 493.092 1312.948C494.492 1314.82 496.168 1314.232 497.656 1313.128C498.548 1312.468 500.144 1311.54 499.504 1310.452C498.396 1308.588 496.96 1310.408 495.74 1310.836C494.796 1311.248 493.756 1311.392 492.736 1311.256V1311.256ZM523.144 1340.572C523.312 1337.596 522.208 1333.336 520.3 1329.296C514.612 1317.256 501.196 1314.688 491.936 1324.152C483.564 1332.676 481.504 1343.052 484.928 1354.348C487.2 1361.816 491.704 1367.62 499.992 1368.752C508.284 1369.884 514.052 1365.444 518.372 1358.892C521.7 1353.812 523.052 1348.132 523.144 1340.572ZM558.372 1350.896C558.076 1346.028 556.908 1341.528 553.8 1337.72C549.404 1332.372 542.336 1332.044 537.576 1337.028C530.836 1344.088 530.916 1357.956 537.744 1364.98C542.316 1369.68 548.924 1369.536 553.336 1364.644C556.884 1360.704 558.112 1355.932 558.372 1350.896ZM520.424 1373.716C521.316 1374.652 521.076 1377.872 524.052 1375.252C524.808 1374.58 524.944 1374.224 525.952 1375.252C528.412 1377.664 529.196 1375.616 529.256 1373.468C529.356 1370.516 527.548 1367.6 525.088 1367.512C522.456 1367.388 521.112 1370.508 520.424 1373.716Z" fill="#F9CF2D"/><path d="M523.144 1340.572C523.052 1348.132 521.716 1353.812 518.372 1358.864C514.048 1365.416 508.328 1369.856 499.992 1368.724C491.656 1367.592 487.2 1361.788 484.928 1354.32C481.504 1343.024 483.564 1332.648 491.932 1324.152C501.204 1314.712 514.612 1317.28 520.3 1329.324C522.208 1333.336 523.312 1337.596 523.144 1340.572Z" fill="#4C3A91"/><path d="M558.372 1350.896C558.112 1355.96 556.884 1360.704 553.336 1364.644C548.924 1369.536 542.316 1369.68 537.744 1364.98C530.916 1357.956 530.836 1344.084 537.576 1337.024C542.336 1332.044 549.404 1332.336 553.8 1337.72C556.908 1341.5 558.076 1346.004 558.372 1350.896Z" fill="#4C3B91"/><path d="M520.424 1373.716C521.112 1370.516 522.456 1367.388 525.084 1367.476C527.548 1367.564 529.356 1370.48 529.256 1373.432C529.196 1375.572 528.368 1377.62 525.952 1375.216C524.944 1374.232 524.808 1374.592 524.052 1375.216C521.076 1377.872 521.332 1374.652 520.424 1373.716Z" fill="#57448B"/><path d="M492.736 1311.256C493.76 1311.392 494.796 1311.248 495.74 1310.836C496.964 1310.408 498.416 1308.588 499.504 1310.452C500.144 1311.54 498.54 1312.468 497.656 1313.128C496.168 1314.232 494.492 1314.82 493.092 1312.948C492.78 1312.528 492.864 1311.816 492.756 1311.236L492.736 1311.256Z" fill="#FDDC5C"/><path d="M237.457 1331.048C237.457 1347.332 229.306 1359.792 218.288 1370.728C206.549 1382.468 192.31 1390.852 177.871 1398.888C177.33 1399.288 176.685 1399.524 176.013 1399.568C175.34 1399.616 174.67 1399.464 174.081 1399.136C153.654 1387.4 134.2 1374.584 121.202 1354.276C113.857 1342.804 111.258 1330.46 116.171 1317.228C122.712 1299.572 139.264 1291.872 157.109 1298.18C162.913 1300.044 168.229 1303.176 172.672 1307.352C175.439 1310.084 176.932 1309.364 179.38 1307.132C184.711 1302.084 191.314 1298.576 198.482 1296.988C218.825 1292.696 236.552 1306.564 237.457 1327.476C237.508 1328.616 237.457 1329.824 237.457 1331.048ZM144.849 1300.092C134.904 1300.56 127.106 1304.82 122.259 1313.84C115.249 1326.908 116.809 1339.636 124.49 1351.776C136.648 1371.08 154.912 1383.204 174.064 1394.34C174.638 1394.692 175.306 1394.864 175.979 1394.832C176.652 1394.8 177.3 1394.564 177.837 1394.156C192.512 1385.772 207.018 1377.136 218.573 1364.472C228.636 1353.404 234.874 1340.876 233.147 1325.296C231.587 1311.024 219.73 1299.788 205.626 1300.24C195.245 1300.56 186.608 1305.272 179.615 1312.636C176.798 1315.652 175.12 1315.688 172.252 1312.636C168.747 1308.828 164.518 1305.76 159.813 1303.604C155.108 1301.452 150.021 1300.256 144.849 1300.092V1300.092Z" fill="#533F96"/><path d="M144.848 1300.092C150.023 1300.26 155.111 1301.46 159.816 1303.62C164.522 1305.78 168.749 1308.856 172.252 1312.668C175.12 1315.688 176.797 1315.652 179.614 1312.668C186.608 1305.22 195.244 1300.592 205.626 1300.276C219.646 1299.82 231.587 1311.06 233.146 1325.332C234.823 1340.908 228.685 1353.436 218.572 1364.508C207.018 1377.168 192.511 1385.804 177.836 1394.192C177.299 1394.596 176.651 1394.832 175.978 1394.864C175.305 1394.896 174.638 1394.728 174.063 1394.376C154.911 1383.204 136.648 1371.08 124.489 1351.776C116.808 1339.636 115.248 1326.908 122.258 1313.844C127.105 1304.82 134.97 1300.644 144.848 1300.092ZM164.118 1343.208C164.068 1344.148 164.068 1345.088 164.118 1346.024C165.208 1355.6 174.65 1360.984 182.247 1356.356C186.49 1353.772 189.408 1344.984 187.849 1340.12C186.91 1337.172 185.467 1338.444 183.958 1339.352C179.178 1342.452 174.231 1342.152 169.35 1339.836C164.47 1337.524 164.068 1337.672 164.118 1343.208ZM157.796 1330.98C157.858 1328.416 157.164 1325.892 155.8 1323.72C151.792 1317.448 144.161 1317.396 140.388 1323.72C139.258 1325.48 138.549 1327.48 138.316 1329.56C138.084 1331.64 138.333 1333.744 139.046 1335.712C140.824 1340.624 144.48 1343.376 148.924 1343.04C152.932 1342.736 156.756 1338.812 157.561 1334.136C157.696 1333.088 157.774 1332.036 157.796 1330.98V1330.98ZM195.01 1331.704C194.96 1332.512 194.96 1333.324 195.01 1334.136C195.865 1340.288 201.366 1344.936 206.364 1343.76C210.556 1342.756 214.061 1338.144 214.414 1333.144C214.799 1327.344 212.015 1322.044 207.705 1320.416C201.248 1317.984 194.976 1323.5 195.01 1331.704V1331.704ZM146.375 1351.072C147.446 1351.164 148.523 1351.164 149.595 1351.072C150.869 1350.84 152.53 1350.672 152.63 1348.992C152.731 1347.62 151.423 1346.896 150.282 1346.528C146.458 1345.272 142.584 1343.996 138.543 1345.356C137.536 1345.688 136.228 1345.792 136.195 1347.164C136.161 1348.54 137.285 1348.992 138.224 1349.412C140.744 1350.616 143.518 1351.184 146.308 1351.072H146.375ZM205.223 1351.896C208.153 1352.1 211.091 1351.628 213.81 1350.52C214.833 1350.116 215.956 1349.58 215.923 1348.356C215.889 1347.132 214.665 1346.68 213.625 1346.428C210.893 1345.656 208.011 1345.576 205.24 1346.192C202.926 1346.796 199.32 1346.896 199.538 1349.448C199.756 1352.38 203.479 1351.628 205.156 1351.896H205.223ZM148.806 1305.676C149.46 1305.676 150.484 1306.012 150.92 1304.768C151.356 1303.528 150.702 1302.84 149.477 1302.404C144.798 1300.728 140.522 1302.204 136.329 1304.08C136.064 1304.16 135.821 1304.292 135.615 1304.476C135.41 1304.66 135.248 1304.888 135.142 1305.14C135.036 1305.396 134.988 1305.672 135.002 1305.944C135.016 1306.22 135.091 1306.488 135.222 1306.732C135.926 1307.84 137.117 1307.368 138.14 1306.968C141.494 1305.676 144.832 1304.2 148.806 1305.676ZM124.908 1318.688C127.256 1318.036 127.323 1315.536 128.413 1313.824C129.067 1312.836 129.671 1311.644 128.413 1310.588C128.21 1310.448 127.979 1310.352 127.737 1310.308C127.494 1310.26 127.245 1310.264 127.004 1310.32C125.864 1310.64 123.198 1316.56 123.55 1317.684C123.639 1317.972 123.819 1318.228 124.064 1318.408C124.308 1318.588 124.604 1318.688 124.908 1318.688V1318.688Z" fill="#DE6EA8"/><path d="M164.119 1343.208C164.119 1337.672 164.471 1337.524 169.368 1339.852C174.266 1342.184 179.196 1342.468 183.976 1339.368C185.485 1338.396 186.927 1337.188 187.866 1340.14C189.426 1345 186.508 1353.788 182.265 1356.372C174.668 1361 165.226 1355.616 164.136 1346.04C164.079 1345.096 164.074 1344.152 164.119 1343.208Z" fill="#4D3A93"/><path d="M157.796 1330.98C157.777 1332.06 157.699 1333.132 157.562 1334.2C156.756 1338.88 152.933 1342.804 148.924 1343.108C144.48 1343.444 140.824 1340.692 139.046 1335.78C138.334 1333.812 138.084 1331.704 138.317 1329.624C138.55 1327.548 139.258 1325.548 140.388 1323.788C144.162 1317.396 151.792 1317.448 155.8 1323.788C157.152 1325.94 157.846 1328.44 157.796 1330.98V1330.98ZM144.732 1321.156C144.732 1324.508 141.579 1325.48 141.663 1326.772C141.747 1328.064 144.246 1329.472 144.011 1331.604C148.472 1331.216 151.256 1329.54 150.166 1324.476C148.388 1324.676 146.711 1323.568 144.732 1321.156V1321.156Z" fill="#513E95"/><path d="M195.011 1331.704C195.011 1323.504 201.25 1317.984 207.74 1320.416C212.033 1322.092 214.817 1327.344 214.448 1333.144C214.096 1338.176 210.591 1342.756 206.398 1343.76C201.367 1344.936 195.9 1340.288 195.045 1334.136C194.983 1333.324 194.972 1332.512 195.011 1331.704V1331.704ZM200.881 1333.38C202.675 1330.612 204.822 1331.452 206.684 1331.1C205.878 1329.052 207.69 1325.968 206.801 1325.296C203.346 1322.748 200.093 1323.736 197.56 1327.948C200.126 1328.316 200.093 1330.596 200.881 1333.396V1333.38Z" fill="#513E95"/><path d="M146.308 1351.072C143.472 1351.2 140.649 1350.624 138.09 1349.396C137.151 1348.976 136.011 1348.388 136.061 1347.148C136.112 1345.908 137.403 1345.672 138.409 1345.336C142.518 1343.98 146.392 1345.336 150.148 1346.512C151.289 1346.88 152.597 1347.6 152.496 1348.976C152.396 1350.652 150.736 1350.82 149.461 1351.056C148.412 1351.152 147.358 1351.156 146.308 1351.072V1351.072Z" fill="#FACC34"/><path d="M205.157 1351.896C203.48 1351.628 199.757 1352.38 199.506 1349.448C199.288 1346.896 202.86 1346.796 205.208 1346.192C207.979 1345.576 210.86 1345.656 213.593 1346.428C214.633 1346.68 215.84 1347.1 215.891 1348.356C215.941 1349.612 214.8 1350.032 213.778 1350.52C211.048 1351.636 208.098 1352.104 205.157 1351.896V1351.896Z" fill="#FBCE31"/><path d="M148.807 1305.676C144.832 1304.148 141.495 1305.676 138.141 1306.968C137.118 1307.368 135.927 1307.84 135.222 1306.732C135.092 1306.488 135.016 1306.22 135.002 1305.944C134.988 1305.672 135.036 1305.396 135.142 1305.14C135.249 1304.888 135.41 1304.66 135.616 1304.476C135.821 1304.292 136.065 1304.16 136.33 1304.08C140.522 1302.204 144.799 1300.728 149.478 1302.404C150.702 1302.84 151.339 1303.476 150.92 1304.768C150.501 1306.06 149.461 1305.676 148.807 1305.676Z" fill="#E690BC"/><path d="M124.91 1318.688C124.62 1318.672 124.343 1318.564 124.115 1318.384C123.888 1318.204 123.72 1317.96 123.635 1317.684C123.283 1316.56 125.95 1310.64 127.09 1310.32C127.331 1310.264 127.58 1310.26 127.822 1310.308C128.065 1310.352 128.295 1310.448 128.499 1310.588C129.673 1311.644 129.069 1312.836 128.499 1313.824C127.325 1315.536 127.258 1318.036 124.91 1318.688Z" fill="#E690BC"/><path d="M200.88 1333.396C200.091 1330.596 200.125 1328.364 197.525 1327.964C200.008 1323.752 203.311 1322.764 206.766 1325.312C207.655 1325.984 205.844 1329.068 206.649 1331.116C204.821 1331.468 202.674 1330.628 200.88 1333.396Z" fill="#F1F0F7"/><path d="M146.283 1334.816C149.069 1334.708 151.212 1331.608 151.07 1327.888C150.928 1324.164 148.554 1321.236 145.768 1321.344C142.982 1321.448 140.839 1324.552 140.981 1328.272C141.124 1331.992 143.497 1334.924 146.283 1334.816Z" fill="#FDFDFD"/><path d="M203.144 1334.824C205.93 1334.716 208.074 1331.616 207.931 1327.892C207.789 1324.172 205.415 1321.244 202.629 1321.348C199.843 1321.456 197.7 1324.56 197.842 1328.28C197.985 1332 200.359 1334.928 203.144 1334.824Z" fill="#FDFDFD"/>
        <text fill="black" xml:space="preserve" style="white-space: pre" font-family="Quicksand" font-size="144" font-weight="bold" letter-spacing="0em"><tspan x="96" y="1116">Ferocious</tspan></text><text fill="black" xml:space="preserve" style="white-space: pre" font-family="Quicksand" font-size="96" font-weight="500" letter-spacing="0em"><tspan x="96" y="1224">Dale</tspan></text><text fill="black" xml:space="preserve" style="white-space: pre" font-family="Quicksand" font-size="72" font-weight="bold" letter-spacing="0.05em"><tspan x="266.4" y="1376">75</tspan></text><text fill="black" xml:space="preserve" style="white-space: pre" font-family="Quicksand" font-size="72" font-weight="bold" letter-spacing="0.05em"><tspan x="602.363" y="1376">24</tspan></text>
    </svg>
